<?xml version="1.0" encoding="utf-8"?>
<!-- Generator: Adobe Illustrator 16.0.0, SVG Export Plug-In . SVG Version: 6.00 Build 0)  -->
<!DOCTYPE svg PUBLIC "-//W3C//DTD SVG 1.1//EN" "http://www.w3.org/Graphics/SVG/1.1/DTD/svg11.dtd">
<svg version="1.1" id="Layer_1" xmlns="http://www.w3.org/2000/svg" xmlns:xlink="http://www.w3.org/1999/xlink" x="0px" y="0px"
	 width="200px" height="200px" viewBox="0 0 200 200" enable-background="new 0 0 200 200" xml:space="preserve">
<path fill="#020202" d="M53.144,173.538C53.143,173.538,53.143,173.538,53.144,173.538c-1.357-0.001-2.476-0.512-3.235-1.479
	c-2.028-2.58-0.889-7.581-0.752-8.143l0.058-0.171l65.605-147.228c5.61-12.185,6.728-12.185,7.626-12.185
	c0.401,0,0.777,0.187,1.03,0.514c1.055,1.359-0.218,7.454-1.47,12.327l-0.036,0.111c-0.146,0.38-14.849,38.43-29.546,76.025
	C83.791,115.394,76.85,133,71.792,145.642c-8.151,20.373-9.677,23.719-10.411,24.352l0.005,0.008
	C57.922,172.381,55.226,173.538,53.144,173.538z M51.08,164.475c-0.308,1.337-0.787,4.84,0.402,6.351
	c0.383,0.486,3.768,2.675,8.665-2.4c2.884-4.733,44.14-110.918,59.936-151.805c0.877-3.422,1.671-7.387,1.812-9.419
	c-0.831,1.205-2.398,3.941-5.255,10.144L51.08,164.475z"/>
<path fill="#020202" d="M57.25,151.375c0,0-0.561,6.063,8.312,4c0.21-0.495,3.938-10.125,3.938-10.125s-6,3.584-7.875-3.562
	C61.375,141.812,57.25,151.375,57.25,151.375z"/>
<path fill="#020202" d="M63.625,136.75l1.188-2.688c0,0,2.625,6.312,7.688,3.875l-0.938,2.312
	C65.688,141.562,63.625,137.125,63.625,136.75z"/>
<path fill="#020202" d="M74.017,182.24L74.017,182.24c-1.214,0-2.264-0.459-3.038-1.327c-2.072-2.324-1.619-6.863-1.56-7.373
	l0.048-0.212l52.572-152.395c4.462-12.938,5.605-12.938,6.523-12.938c0.382,0,0.735,0.167,0.995,0.47
	c1.122,1.31,0.452,7.45-0.309,12.37l-0.027,0.124c-0.112,0.39-11.328,39.4-22.58,77.963c-6.608,22.65-11.936,40.717-15.834,53.697
	c-6.284,20.923-7.497,24.368-8.161,25.066l0.005,0.007C79.068,180.752,76.244,182.24,74.017,182.24z M71.395,173.873
	c-1.02,5.002,1.969,6.367,2.622,6.367l0,0c1.165,0,3.364-0.695,7.244-3.992c2.419-4.886,33.962-113.836,46.021-155.781
	c0.536-3.485,0.938-7.5,0.884-9.542c-0.712,1.293-2.004,4.188-4.236,10.661L71.395,173.873z"/>
<path fill="#020202" d="M76.312,160.625c0,0,0.702,4.345,9.312,1.375c0.16-0.514,2.875-9.25,2.875-9.25s-6.312,3.125-9-1.75
	C79.496,151.009,76.312,160.625,76.312,160.625z"/>
<path fill="#020202" d="M81.562,144.875l1-2.75c0,0,3,4.812,8.688,1.5L90.562,146C86,148,81.593,145.005,81.562,144.875z"/>
</svg>
