<?xml version="1.0" encoding="utf-8"?>
<!-- Generator: Adobe Illustrator 16.0.0, SVG Export Plug-In . SVG Version: 6.00 Build 0)  -->
<!DOCTYPE svg PUBLIC "-//W3C//DTD SVG 1.1//EN" "http://www.w3.org/Graphics/SVG/1.1/DTD/svg11.dtd">
<svg version="1.1" id="Layer_1" xmlns="http://www.w3.org/2000/svg" xmlns:xlink="http://www.w3.org/1999/xlink" x="0px" y="0px"
	 width="200px" height="200px" viewBox="0 0 200 200" enable-background="new 0 0 200 200" xml:space="preserve">
<path fill="#020202" d="M123.477,4.846c-0.254-0.327-0.629-0.514-1.031-0.514c-0.897,0-2.016,0-7.625,12.185L49.215,163.745
	l-0.058,0.171c-0.137,0.562-1.276,5.562,0.752,8.143c0.759,0.967,1.878,1.479,3.235,1.479c2.082,0,4.778-1.157,8.242-3.536
	l-0.005-0.008c0.734-0.633,2.26-3.979,10.411-24.352C76.85,133,83.791,115.395,92.424,93.309
	c14.697-37.595,29.4-75.645,29.547-76.025l0.035-0.111C123.258,12.3,124.531,6.205,123.477,4.846z M60.147,168.426
	c-4.897,5.075-8.282,2.887-8.665,2.4c-1.189-1.512-0.71-5.014-0.402-6.352l5.68-12.746c0.896,1.749,3.271,4.418,9.122,3.237
	C62.798,162.563,60.718,167.488,60.147,168.426z M69.814,145.198c-1.811,0.454-6.73,1.217-8.723-3.189l2.027-4.55
	c1.134,1.263,4.206,3.623,8.708,2.695C71.133,141.896,70.462,143.578,69.814,145.198z M120.083,16.621
	c-10.731,27.777-33.21,85.685-47.429,121.452c-3.712,1.131-7.047-1.988-8.304-3.378l52.291-117.349
	c2.856-6.203,4.424-8.939,5.254-10.144C121.754,9.234,120.96,13.199,120.083,16.621z"/>
<path fill="#020202" d="M129.557,8.465c-0.26-0.303-0.613-0.47-0.994-0.47c-0.918,0-2.062,0-6.523,12.938L69.467,173.328
	l-0.048,0.212c-0.059,0.51-0.512,5.049,1.56,7.373c0.774,0.868,1.824,1.327,3.038,1.327c2.227,0,5.051-1.488,8.634-4.549
	l-0.005-0.006c0.664-0.699,1.877-4.144,8.161-25.066c3.898-12.98,9.226-31.047,15.833-53.697
	c11.252-38.563,22.469-77.573,22.58-77.963l0.027-0.124C130.009,15.915,130.68,9.775,129.557,8.465z M81.345,145.029
	c1.385,0.709,5.636,2.401,9.356,0.955c-0.77,2.584-1.509,5.052-2.209,7.382c-1.468,0.419-6.861,1.672-9.473-1.596L81.345,145.029z
	 M81.261,176.248c-3.88,3.297-6.079,3.992-7.244,3.992c-0.653,0-3.642-1.365-2.622-6.367l4.375-12.682
	c1.019,1.072,3.91,3.129,9.947,1.335C83.35,170.267,81.738,175.285,81.261,176.248z M127.282,20.467
	c-8.111,28.213-25.037,86.739-35.986,123.523c-4.531,1.692-7.923-0.679-9.03-1.629L123.93,21.586
	c2.232-6.473,3.524-9.368,4.236-10.661C128.221,12.967,127.818,16.982,127.282,20.467z"/>
</svg>
