<?xml version="1.0" encoding="utf-8"?>
<!-- Generator: Adobe Illustrator 16.0.0, SVG Export Plug-In . SVG Version: 6.00 Build 0)  -->
<!DOCTYPE svg PUBLIC "-//W3C//DTD SVG 1.1//EN" "http://www.w3.org/Graphics/SVG/1.1/DTD/svg11.dtd">
<svg version="1.1" id="Layer_1" xmlns="http://www.w3.org/2000/svg" xmlns:xlink="http://www.w3.org/1999/xlink" x="0px" y="0px"
	 width="200px" height="200px" viewBox="0 0 200 200" enable-background="new 0 0 200 200" xml:space="preserve">
<path fill="#020202" d="M62.332,188.279L62.332,188.279c-1.316,0-2.352-0.469-3.079-1.393c-2.085-2.653-0.77-8.188-0.713-8.422
	l71.98-161.558c5.991-13.01,7.181-13.01,7.82-13.01c0.259,0,0.492,0.118,0.658,0.332c1.132,1.459-1.029,10.324-1.719,13.006
	c-0.179,0.472-16.304,42.203-32.423,83.435c-29.698,75.968-33.056,83.079-33.834,83.821l0.01,0.015
	C67.389,187.01,64.461,188.279,62.332,188.279z M59.483,178.786c0.008,0-1.223,5.22,0.557,7.483
	c1.552,1.972,5.124,1.051,10.411-2.577c2.417-3.286,44.101-110.394,65.877-166.762c1.293-5.043,2.374-10.953,1.931-11.999
	c-0.439,0.25-2.025,1.958-6.828,12.388L59.483,178.786L59.483,178.786z"/>
<path fill="#020202" d="M66.115,161.874c0,0,2.227,7.609,11.959,5.346c0.23-0.543,4.22-9.987,4.22-9.987s-8.93,1.815-10.987-6.022
	C71.303,151.217,66.115,161.874,66.115,161.874z"/>
<path fill="#020202" d="M81.417,152.3c-1.411,0-2.679-0.336-3.792-1.006c-3.163-1.903-3.884-5.787-3.913-5.952l0.984-0.175
	c0.006,0.036,0.678,3.611,3.45,5.274c1.724,1.033,3.918,1.133,6.522,0.293l0.307,0.951C83.707,152.095,82.519,152.3,81.417,152.3z"
	/>
<path fill="#020202" d="M85.227,197.824C85.226,197.824,85.226,197.824,85.227,197.824c-1.173,0-2.144-0.423-2.887-1.256
	c-2.136-2.396-1.587-7.409-1.563-7.621l0.024-0.106L138.458,21.7c4.755-13.787,5.949-13.787,6.591-13.787
	c0.242,0,0.469,0.109,0.638,0.306c1.217,1.419-0.055,10.376-0.474,13.088c-0.137,0.489-12.438,43.273-24.778,85.566
	c-22.701,77.804-25.449,85.262-26.141,86.089l0.013,0.016C90.544,196.193,87.489,197.824,85.227,197.824z M81.764,189.112
	c-0.051,0.523-0.412,4.848,1.323,6.791c0.553,0.619,1.252,0.921,2.139,0.921h0c2.015,0,4.849-1.547,8.421-4.597
	c2.097-3.461,33.974-113.33,50.591-171.134c0.792-5.153,1.29-11.156,0.745-12.143c-0.387,0.274-1.792,2.092-5.58,13.076
	L81.764,189.112z"/>
<path fill="#020202" d="M87.176,171.416c0,0,3,7.341,12.444,4.084c0.176-0.564,3.17-10.367,3.17-10.367s-8.694,2.725-11.548-4.86
	C91.238,160.282,87.176,171.416,87.176,171.416z"/>
<path fill="#020202" d="M99.661,159.188c-1.104,0-2.113-0.221-3.023-0.662c-2.899-1.404-3.665-4.517-3.696-4.648l0.973-0.231
	c0.007,0.028,0.698,2.794,3.169,3.985c1.941,0.934,4.466,0.69,7.508-0.728l0.422,0.906
	C103.044,158.729,101.255,159.188,99.661,159.188z"/>
</svg>
