<?xml version="1.0" encoding="utf-8"?>
<!-- Generator: Adobe Illustrator 16.0.0, SVG Export Plug-In . SVG Version: 6.00 Build 0)  -->
<!DOCTYPE svg PUBLIC "-//W3C//DTD SVG 1.1//EN" "http://www.w3.org/Graphics/SVG/1.1/DTD/svg11.dtd">
<svg version="1.1" id="Layer_1" xmlns="http://www.w3.org/2000/svg" xmlns:xlink="http://www.w3.org/1999/xlink" x="0px" y="0px"
	 width="200px" height="200px" viewBox="0 0 200 200" enable-background="new 0 0 200 200" xml:space="preserve">
<path d="M185.398,88.87c0.707-1.502,1.103-3.155,1.103-4.892c0-6.537-5.557-11.895-12.57-12.35c-0.184-2.896-1.21-5.019-3.073-6.303
	c-2.923-2.016-7.06-1.344-9.264-0.768c0.075-1.802-0.28-3.63-1.113-5.312c-1.794-3.62-5.352-5.893-9.852-6.394
	c0.163-0.947,0.178-1.887,0.007-2.777c-0.447-2.34-2.117-3.952-4.617-4.535c-0.47-6.447-6.331-11.565-13.489-11.565
	c-6.715,0-12.288,4.509-13.338,10.392c-1.431-2.225-3.596-3.781-6.084-4.193c0.225-1.345-0.183-2.646-1.205-3.758
	c-2.391-2.604-7.674-3.605-11.534-2.187c-2.653,0.974-4.321,2.919-4.8,5.542c-0.373-0.085-0.749-0.164-1.132-0.208
	c-2.486-0.288-4.714,0.375-6.273,1.79c-2.108-4.34-6.853-7.377-12.365-7.377c-7.463,0-13.534,5.56-13.534,12.394
	c0,2.089,0.573,4.056,1.573,5.784c-2.63-0.373-4.865,0.08-6.665,1.359c-2.664,1.894-3.662,5.111-4.039,7.17
	c-2.47-2.406-5.966-3.92-9.849-3.92c-7.463,0-13.534,5.561-13.534,12.395c0,1.522,0.315,2.975,0.866,4.323
	c-4.268-0.229-7.608,0.836-9.942,3.185c-3.374,3.396-3.642,8.472-3.556,10.87c-0.141-0.049-0.288-0.096-0.427-0.146
	c0,0-4.557,69.123,0,79.758c6.076,3.797,140.526,20.509,171.669,0C189.071,155.784,189.117,99.289,185.398,88.87z M184.501,83.978
	c0,1.395-0.312,2.725-0.866,3.941c-2.457,1.043-9.062,2.397-18.428,3.725c-2.311-1.902-3.771-4.63-3.771-7.666
	c0-0.561,0.063-1.108,0.159-1.645c0.239-0.648,0.421-1.277,0.54-1.884c1.607-3.997,5.851-6.866,10.834-6.866
	C179.328,73.583,184.501,78.247,184.501,83.978z M126.018,90.687c-0.117-2.999,2.704-6.076,3.945-7.28
	c1.041,1.608,2.84,3.067,5.391,4.356l0.121,0.052c2.133,0.743,3.484,1.013,4.496,1.013c0.911,0,1.545-0.22,2.221-0.513
	c0.101-0.043,0.197-0.084,0.295-0.124c-0.231,1.777-0.203,3.788,0.091,6.031c-4.147,0.376-8.495,0.723-12.988,1.03
	C128.055,94.109,126.073,92.125,126.018,90.687z M113.883,96.117c-0.368,0.016-0.738,0.03-1.108,0.044
	c-0.658-0.595-1.358-1.155-2.085-1.667c-3.239-2.783-7.816-7.292-7.455-9.863c0.354-2.533,3.018-4.687,7.914-6.401
	c3.321-0.617,5.478,1.211,7.185,3.339c-3.549,1.414-6.175,4.429-6.699,7.733C111.248,91.741,112.052,94.107,113.883,96.117z
	 M109.411,96.286c-4.557,0.155-9.177,0.256-13.822,0.295c0.827-0.994,2.828-3.008,5.711-3.369
	C103.859,92.889,106.588,93.934,109.411,96.286z M87.65,84.845c-0.064-0.059-0.137-0.11-0.205-0.165
	c-1.933-1.768-3.162-4.366-3.162-7.267c0-5.313,4.105-9.635,9.151-9.635c5.047,0,9.153,4.323,9.153,9.635s-4.106,9.634-9.153,9.634
	c-2.156,0-4.137-0.794-5.702-2.112C87.702,84.907,87.68,84.872,87.65,84.845z M87.438,96.583c-2.078-0.018-4.154-0.05-6.226-0.096
	c-0.066-0.433-0.172-1.109-0.199-1.571c-0.151-2.548-0.42-6.956-3.013-9.647c2.24-0.492,5.963-0.911,8.178,0.959
	c0.071,0.063,0.138,0.131,0.21,0.192C88.192,88.165,88.551,91.892,87.438,96.583z M40.715,81.32c0.833,0.147,1.691,0.231,2.57,0.231
	c1.672,0,3.267-0.292,4.747-0.802c1.681,0.717,3.904,1.874,4.519,3.47c0.902,2.341-0.632,6.189-3.279,10.159
	c-3.807-0.453-7.52-0.981-11.1-1.597c1.615-1.084,2.729-2.416,3.301-4C42.467,86.021,41.603,83.196,40.715,81.32z M71.028,61.102
	c1.453-1.552,3.618-2.339,6.433-2.339v-0.104c0.915-0.104,1.8-0.29,2.649-0.553c2.229,1.189,6.919,4.394,6.732,7.684
	c-0.146,2.577-3.305,5.088-9.13,7.283c-2.411-1.305-4.813-1.505-5.999-1.51c-0.774-1.815-1.717-3.31-2.827-4.466
	C68.892,66.116,69.08,63.183,71.028,61.102z M86.863,53.483l0.665,0.843c-1.07,1.382-1.714,3.113-1.714,4.996
	c0,0.16,0.015,0.315,0.024,0.473c-1.147-1.109-2.405-2.004-3.404-2.636C84.192,56.249,85.704,54.99,86.863,53.483z M101.441,51.63
	l1.189,0.003c0.257,3.142,1.714,5.883,3.835,7.622c-0.819,0.034-1.625,0.136-2.403,0.359c-0.749,0.215-1.434,0.51-2.065,0.854
	c0.053-0.376,0.09-0.757,0.09-1.147c0-2.173-0.855-4.146-2.24-5.611C100.513,52.994,101.035,52.298,101.441,51.63z M132.146,58.745
	c0.702,0.611,1.419,1.138,2.146,1.583c-1.165,1.687-3.19,5.334-1.84,8.788c0.359,0.918,0.935,1.741,1.707,2.474
	c-0.567,0.441-1.286,1.055-2.013,1.798c0.071-0.503,0.119-1.007,0.129-1.506c0.096-4.794-2.627-10.046-8.827-10.249
	c-0.024-0.001-0.046,0.001-0.069,0c0.279-0.364,0.512-0.765,0.686-1.211c0.511-1.313,0.465-2.827,0.167-4.284
	C126.431,57.708,129.167,58.668,132.146,58.745z M155.99,73.662c0.814,0.243,2.784,0.992,3.755,2.756
	c0.478,0.866,0.649,1.885,0.521,3.041c-1.692-0.468-7.537-1.82-12.143,0.332c0.033-0.654-0.043-1.3-0.244-1.937
	c-0.276-0.875-0.749-1.625-1.277-2.25c0.427,0.022,0.847,0.038,1.25,0.038C151.441,75.641,154.075,74.78,155.99,73.662z
	 M142.985,75.188c0.459,0.257,2.411,1.441,2.987,3.268c0.312,0.989,0.173,2.008-0.409,3.11c-1.209,1.164-2.084,2.642-2.61,4.438
	c-1.358,0.309-3.803,0.967-6.758-0.056c-3.402-1.733-5.186-3.684-5.295-5.8c-0.169-3.257,3.528-6.284,4.921-7.304
	C137.599,73.911,139.995,74.692,142.985,75.188z M120.037,80.49c-1.335-1.714-3.456-3.919-6.619-4.313
	c-0.205-1.838-0.443-6.682,2.205-9.768c1.678-1.955,4.281-2.891,7.761-2.776c4.845,0.158,6.97,4.367,6.894,8.21
	c-0.073,3.753-2.234,7.777-6.803,7.777C123.462,79.62,121.117,80.217,120.037,80.49z M120.878,52.64
	c0.985,1.997,2.1,5.062,1.323,7.057c-0.283,0.729-2.006,1.82-3.387,2.465c-0.745,0.217-1.444,0.494-2.087,0.843
	c-1.084-0.773-2.149-1.442-3.19-1.977c3.697-0.82,6.609-4.189,7.299-8.45C120.85,52.598,120.864,52.619,120.878,52.64z
	 M75.82,83.745c-0.691-0.314-1.48-0.54-2.375-0.661c-0.262-2.079-1.114-3.726-2.546-4.9c-0.082-0.067-0.167-0.123-0.25-0.185
	c0.751-0.883,1.59-2.359,1.518-4.452c2.393,0.066,8.362,1.111,9.966,9.606C79.878,83.073,77.52,83.395,75.82,83.745z M79.696,74.439
	c1.318-0.544,2.498-1.111,3.533-1.699c-0.604,1.432-0.946,3.01-0.946,4.672c0,0.076,0.009,0.149,0.011,0.224
	C81.539,76.3,80.646,75.256,79.696,74.439z M88.83,65.661c0.333,0.271,0.688,0.512,1.062,0.729
	c-0.417,0.146-0.821,0.321-1.215,0.516c0.082-0.331,0.143-0.664,0.162-1.003C88.844,65.821,88.829,65.743,88.83,65.661z
	 M100.087,59.322c0,1.299-0.404,2.504-1.089,3.499c-0.303,0.324-0.583,0.65-0.833,0.972c-1.101,1.048-2.582,1.696-4.213,1.696
	c-3.385,0-6.138-2.766-6.138-6.167c0-3.401,2.753-6.167,6.138-6.167C97.334,53.155,100.087,55.922,100.087,59.322z M70.096,72.855
	c0.373,2.208-0.648,3.564-1.243,4.147c-1.712-0.679-3.485-0.77-4.601-0.734c-1.57-3.517-5.896-5-7.569-5.45
	c0.08-0.545,0.136-1.097,0.136-1.662c0-0.55-0.053-1.087-0.129-1.618c1.062-0.561,4.472-2.121,7.744-1.02
	C66.864,67.335,68.768,69.467,70.096,72.855z M56.229,72.77c1.501,0.417,5.357,1.753,6.36,4.688
	c0.787,2.304-0.319,5.224-3.287,8.679c-2.406,1.797-3.854,1.525-4.475,1.235c0.174-1.406,0.042-2.701-0.41-3.874
	c-0.791-2.052-2.371-3.281-3.704-3.993C53.318,77.932,55.298,75.561,56.229,72.77z M54.401,89.343
	c0.404,0.14,0.884,0.246,1.459,0.246c1.211,0,2.796-0.448,4.735-1.921l0.151-0.142c2.977-3.439,4.314-6.544,4.033-9.262
	c1.339,0.012,3.386,0.259,4.859,1.472c0.948,0.781,1.525,1.903,1.76,3.312c-4.378,0.307-7.441,1.762-9.077,4.362
	c-1.647,2.618-1.477,5.795-0.987,8.132c-3.228-0.244-6.409-0.535-9.533-0.875C53.038,92.764,53.905,90.987,54.401,89.343z
	 M64.015,88.476c1.393-2.214,4.263-3.39,8.461-3.497c5.5,0.255,6.26,5.324,6.54,10.055c0.033,0.555,0.064,1.021,0.109,1.4
	c-5.292-0.144-10.546-0.383-15.698-0.739C62.926,93.684,62.591,90.74,64.015,88.476z M98.445,67.033
	c0.265-0.503,0.668-1.184,1.217-1.902c0.315-0.312,0.6-0.654,0.861-1.014c1.02-1.073,2.371-2.086,4.09-2.578
	c2.998-0.859,6.484,0.058,10.365,2.683c-0.309,0.274-0.601,0.568-0.873,0.885c-3.068,3.576-2.933,8.812-2.7,11.076
	c-0.233,0.027-0.467,0.052-0.71,0.1l-0.135,0.037c-2.585,0.899-4.636,1.947-6.156,3.134c0.113-0.664,0.183-1.342,0.183-2.039
	C104.587,72.878,102.082,68.951,98.445,67.033z M128.909,79.993c0.001,0.085-0.011,0.168-0.007,0.253
	c0.021,0.417,0.097,0.824,0.201,1.225c-0.202,0.179-0.599,0.544-1.089,1.057c-0.529-0.358-1.073-0.675-1.642-0.924
	C127.335,81.234,128.178,80.676,128.909,79.993z M144.564,93.999c-0.719-5.409,0.201-9.226,2.733-11.345
	c3.929-3.287,10.739-1.724,12.439-1.264c-0.194,0.835-0.302,1.7-0.302,2.588c0,3.056,1.22,5.853,3.229,8.016
	c-5.597,0.751-12.038,1.483-19.08,2.135L144.564,93.999z M161.281,66.729c1.443-0.456,5.783-1.592,8.441,0.241
	c1.308,0.902,2.05,2.468,2.212,4.66c-4.077,0.285-7.647,2.227-9.918,5.095c-0.131-0.44-0.297-0.867-0.52-1.271
	c-0.906-1.646-2.385-2.624-3.579-3.185c0.752-0.667,1.322-1.342,1.734-1.928C160.433,69.233,160.965,68.004,161.281,66.729z
	 M150.078,54.803c3.967,0.353,7.087,2.256,8.609,5.33c1.453,2.934,1.195,6.405-0.67,9.059c-1.401,1.993-4.926,5.206-12.838,4.288
	c-6.072-0.7-9.83-2.46-10.861-5.087c-1.066-2.714,0.861-5.866,1.772-7.136c1.331,0.554,2.679,0.842,4.011,0.842
	c1.633,0,3.242-0.422,4.766-1.274C147.264,59.48,149.132,57.22,150.078,54.803z M148.671,50.45c0.558,2.911-1.632,6.863-4.782,8.63
	c-2.747,1.54-5.787,1.33-8.736-0.556c5.782-1.044,10.253-5.467,10.844-10.924C147.475,48.063,148.398,49.027,148.671,50.45z
	 M132.529,35.975c6.361,0,11.535,4.662,11.535,10.394c0,5.732-5.174,10.395-11.535,10.395c-4.221,0-7.909-2.062-9.919-5.12
	c-0.365-0.73-0.671-1.25-0.793-1.449c-0.522-1.186-0.819-2.475-0.819-3.826C120.998,40.638,126.171,35.975,132.529,35.975z
	 M118.998,50.637c0,4.734-3.232,8.586-7.206,8.586s-7.205-3.852-7.205-8.586c0-4.734,3.231-8.585,7.205-8.585
	S118.998,45.903,118.998,50.637z M101.059,36.105c3.069-1.127,7.537-0.335,9.371,1.663c0.662,0.719,0.87,1.485,0.647,2.325
	c-4.43,0.395-7.992,4.401-8.442,9.459l-0.238-0.021c0.544-1.786,0.311-3.247-0.002-4.178c-0.704-2.109-2.561-3.902-4.889-4.932
	C97.865,37.841,99.592,36.643,101.059,36.105z M94.204,41.549c2.948,0.344,5.536,2.169,6.294,4.438
	c0.67,2.002-0.104,4.217-2.205,6.44c-1.258-0.801-2.745-1.272-4.342-1.272c-1.888,0-3.623,0.654-5.004,1.74L88,51.694
	c0.844-1.616,1.332-3.418,1.332-5.326c0-1.009-0.147-1.985-0.396-2.925C90.482,41.373,93.106,41.421,94.204,41.549z M75.798,35.975
	c6.36,0,11.534,4.662,11.534,10.393c0,5.732-5.174,10.396-11.534,10.396c-6.36,0-11.534-4.664-11.534-10.395
	C64.264,40.638,69.438,35.975,75.798,35.975z M54.904,62.661c0.002-0.052,0.18-5.21,3.429-7.52c1.809-1.285,4.303-1.452,7.408-0.508
	c1.571,1.602,3.582,2.83,5.865,3.514c-0.764,0.436-1.455,0.963-2.052,1.604c-1.735,1.862-2.35,4.168-2.562,5.796
	c-0.611-0.382-1.253-0.699-1.936-0.928c-3.616-1.207-7.186,0.12-8.831,0.912c-0.342-1.021-0.835-1.98-1.438-2.872L54.904,62.661z
	 M43.285,58.763c6.36,0,11.534,4.662,11.534,10.395c0,5.732-5.174,10.395-11.534,10.395c-6.36,0-11.534-4.664-11.534-10.395
	C31.751,63.426,36.925,58.763,43.285,58.763z M22.101,78.067c1.879-1.888,5.619-2.851,9.477-2.72
	c1.466,2.315,3.716,4.165,6.427,5.221c0.611,0.916,2.713,4.408,1.586,7.534c-0.622,1.726-2.161,3.098-4.573,4.106
	C29.329,91.123,24,89.81,19.167,88.233C19.048,86.78,18.851,81.33,22.101,78.067z M89.354,96.593c0.8-3.329,0.911-6.08,0.339-8.234
	c1.171,0.438,2.427,0.688,3.741,0.688c3.048,0,5.812-1.285,7.828-3.359c0.262,1.968,1.583,4.016,3.147,5.816
	c-1.207-0.297-2.36-0.405-3.384-0.274c-4.344,0.556-7.341,4.539-7.919,5.365C91.856,96.599,90.605,96.598,89.354,96.593z
	 M116.942,95.981c-2.068-1.777-3.674-4.211-3.333-6.363c0.416-2.617,2.66-5.126,5.584-6.245c2.604-0.996,5.286-0.74,7.509,0.672
	c-1.378,1.758-2.78,4.182-2.685,6.713c0.067,1.787,0.859,3.364,2.341,4.705C123.275,95.658,120.133,95.832,116.942,95.981z"/>
</svg>
