<?xml version="1.0" encoding="utf-8"?>
<!-- Generator: Adobe Illustrator 16.0.0, SVG Export Plug-In . SVG Version: 6.00 Build 0)  -->
<!DOCTYPE svg PUBLIC "-//W3C//DTD SVG 1.1//EN" "http://www.w3.org/Graphics/SVG/1.1/DTD/svg11.dtd">
<svg version="1.1" id="Layer_1" xmlns="http://www.w3.org/2000/svg" xmlns:xlink="http://www.w3.org/1999/xlink" x="0px" y="0px"
	 width="200px" height="200px" viewBox="0 0 200 200" enable-background="new 0 0 200 200" xml:space="preserve">
<path fill="#231F20" d="M94.545,133.033c-3.005,0-5.209-0.372-6.552-1.106l-3.99-2.182l4.09,1.183
	c-0.115-1.106-1.554-4.598-2.837-7.71c-3.852-9.349-6.614-16.639-4.29-18.399l0.018,0.023c0.016-0.02,0.034-0.04,0.052-0.062
	l-0.002-0.005l0.003,0.004c0.926-1.084,4.604-4.408,18.228-16.59c9.213-8.238,18.44-16.439,18.44-16.439l0.526-0.468l0.268,0.651
	c2.06,5.004,19.903,49.031,12.575,53.837l-0.021-0.032c-1.778,1.252-13.117,3.85-13.633,3.967
	c-5.445,1.243-15.659,3.328-22.872,3.328C94.546,133.033,94.546,133.033,94.545,133.033z M89.07,131.323
	c1.23,0.472,3.068,0.71,5.477,0.71c12.327-0.001,34.027-6.018,35.814-6.967l0.008-0.03l0.155-0.102
	c5.53-3.626-7.035-38.117-12.684-51.968c-10.292,9.149-35.377,31.515-36.185,32.529l-0.331-0.264l0.244,0.383
	c-1.895,1.436,2.178,11.317,4.611,17.222C88.314,128.014,89.207,130.314,89.07,131.323z"/>
<path fill="#020202" d="M114.53,72.028c0,0-41.524,33.374-34.993,33.98c0,0,1.279,17.638,4.198,18.596
	c-0.596,0.171,0.712,16.799-10.142,4.747c-0.019,0.69-16.285-15.993-15.07-17.35c-0.038,1.374,6.458-16.112,1.804-18.151
	c0.015-0.526-3.561-21.657,3.046-23.548C64.056,69.629,116.222,53.408,114.53,72.028z"/>
<path fill="#020202" d="M89.997,9.038c0,0,90.8-8.537,97.425,71.635c2.139,25.891,26.822,114.212-82.812,106.883
	c-57.833-6.782-92.637,10.824-94.069-84.445C11.356,93.927-11.766,9.573,89.997,9.038z M97.508,172.026
	c95.045,15.865,72.427-80.059,72.422-80.585c-7.807-55.4,3.731-62.509-84.205-67.128C8.292,22.168,21.587,98.933,21.587,98.933
	C20.974,181.233,72.201,167.944,97.508,172.026z"/>
</svg>
