<?xml version="1.0" encoding="utf-8"?>
<!-- Generator: Adobe Illustrator 16.0.0, SVG Export Plug-In . SVG Version: 6.00 Build 0)  -->
<!DOCTYPE svg PUBLIC "-//W3C//DTD SVG 1.1//EN" "http://www.w3.org/Graphics/SVG/1.1/DTD/svg11.dtd">
<svg version="1.1" id="Layer_1" xmlns="http://www.w3.org/2000/svg" xmlns:xlink="http://www.w3.org/1999/xlink" x="0px" y="0px"
	 width="200px" height="200px" viewBox="0 0 200 200" enable-background="new 0 0 200 200" xml:space="preserve">
<path d="M196.771,100.369c0,24.279-7.976,52.523-26.437,68.033c-17.294,14.527-44.226,17.105-69.979,17.105
	c-29.203,0-55.375-11.467-73.055-29.578c-14.556-14.914-23.357-34.328-23.357-55.562c0-25.752,8.31-54.754,28.769-70.366
	c16.899-12.894,43.56-14.772,67.644-14.772c29.42,0,61.625,4.203,79.308,22.548C193.988,52.636,196.771,79.329,196.771,100.369z
	 M15.348,69.919c-2.348,1.66-4.698,5.701-0.293,8.552c0,0-9.274-1.295-2.478,3.628c2.669,1.933-10.877,0.931-2.489,15.16
	c0,0-4.414,2.973-1.221,6.095c0.995,0.972,1.549,4.101,1.296,7.256c0,0-2.073,7.516,3.629,8.033
	c2.717,0.248,2.767,5.961,3.369,7.774c1.74,5.254,5.671,9.617,5.671,9.617c2.527,6.122,6.923,12.077,7.805,10.083
	c3.568,5.723,5.639,7.195,6.479,6.738c1.069-0.584,1.287,4.561,4.147,7.254c3.628,3.422,2.943,3.795,5.702,3.113
	c2.758-0.685-0.551,5.539,4.406,3.109c3.041-3.216,5.474,5.666,6.739,4.148c2.221-2.668,7.26,1.25,10.108,4.405
	c2.333,2.585,8.812,1.878,8.812,2.335c3.985,3.885,2.987-1.341,8.294,0.26c6.5,1.963,6.695,4.084,7.516,1.209
	c4.277,2.141,8.848,1.771,12.699,1.404c1.891-0.182,8.386-0.266,8.554-1.062c0.484-2.333,7.774-0.15,7.774-0.517
	c0.422-0.069,5.334,1.943,8.296-2.853c0.401-0.647,5.748,4.013,7.774,0c1.055-2.082,9.576,0.06,10.886-2.593
	c1.612-3.264,2.001-1.354,5.961-2.592c4.146-1.295,8.21-0.942,10.368-5.701c1.963-4.324,7.334-5.721,8.812-9.33
	c0.916-2.242,10.929-6.705,8.812-12.965c-0.985-2.918,5.387-6.775,4.146-9.851c-1.783-4.424,6.582-7.807,4.926-11.401
	c-2.318-5.027,0.484-11.44,0.217-11.664c-2.39-1.993,2.689-3.873-1.514-7.256c-3.684-2.967,1.524-6.88,1.732-6.479
	c2.355-1.569-3.393-8.945-1.215-10.108c5.043-2.699-3.229-7.281-1.035-12.959c2.011-5.21-3.812-13.656-4.926-13.737
	c3.849-8.979-11.922-13.772-11.922-15.55c7.231-6.415-19.229-14.734-20.994-13.736c0-4.46-11.65,1.558-13.654-4.352
	c-2.081-6.134-6.87,3.22-10.244-0.525c-5.055-5.609-12.314,0.025-13.023-0.777c-3.968-4.489-10.689,1.75-14.771,0.777
	c-1.492-0.355-10.692-7.192-14.774,0c-5.637-5.636-11.662,8.165-16.328,1.944c-3.078-4.104-11.416,3.22-11.857,2.722
	c-7.273-2.058-14.773-3.499-17.689,2.527c-2.492,5.149-4.389,8.846-4.816,8.363c-5.476-1.375-5.562,6.104-9.061,7.465
	c-6.392,2.486-4.665,12.44-4.665,12.44C15.679,63.311,16.229,69.919,15.348,69.919z"/>
<path d="M48.606,83.063c0,0,29.474,35.216,34.612,32.309c-0.383-0.455,28.116-19.319,27.083-29.146
	C109.92,85.322,98.608,39.692,77.7,48.632C71.444,51.132,40.764,74.028,48.606,83.063z"/>
<path d="M111.502,85.062c0,0-11.13-23.141-7.421-24.542c3.709-1.402,27.206-4.208,27.206-4.208s5.566,9.816,3.711,14.375
	C133.143,75.245,110.266,91.372,111.502,85.062z"/>
<path d="M149.184,103.639c7.754,0,19.784,1.538,19.905,1.555l1.013,0.13l-0.519-0.88c-0.759-1.291-18.642-31.667-22.978-35.51
	c-0.334-0.297-0.785-0.447-1.342-0.447c-7.14,0-35.965,27.28-37.188,28.441l-0.617,0.585l0.084,0.026
	c-9.515,5.261-17.996,14.557-24.086,22.523L51.651,89.513l-0.346,0.329c-5.679,5.392-12.201,11.268-13.079,11.53l-0.491,0.062
	l0.057,0.491c1.487,12.774,20.641,24.19,21.455,24.669l0.169,0.1l22.766-4.941c-5.28,7.125-8.457,12.79-8.457,12.79
	c0.72,21.569,48.304,0,48.736,0c1.687-1.32,2.314-4.711,2.382-8.743c0.774,6.412,1.817,11.852,1.817,11.852
	c0.57,3.252,30.296,2.805,32.152,0c1.853-2.803-3.092-32.26-3.092-32.26s-6-0.355-12.671-0.523c0.009-0.085,0.024-0.169,0.009-0.258
	c-0.006-0.035-0.007-0.062,0.037-0.115C143.312,104.238,144.337,103.639,149.184,103.639z M38.831,102.157
	c2.163-1.265,9.305-7.933,12.816-11.261l30.963,29.741l-23.021,4.997C57.705,124.484,40.491,113.703,38.831,102.157z
	 M126.66,105.391c-1.979,0.457-2.635,4.206-2.633,8.992c-0.691-5.18-1.566-9.292-1.566-9.292s-2.132-2.193-5.846-4.81
	c5.22,1.522,11.916,3.38,17.217,4.529C130.774,104.872,128.163,105.043,126.66,105.391z M142.33,103.852
	c-0.227,0.271-0.316,0.592-0.229,0.865c-0.001,0.001-0.078,0.07-0.374,0.12c-0.723-0.015-1.448-0.027-2.171-0.037
	c-5.775-0.606-18.62-4.269-25.829-6.418c-1.111-0.682-2.312-1.363-3.599-2.018c10.645-9.988,29.968-26.879,35.135-26.88
	c0.305,0,0.532,0.066,0.678,0.195c3.82,3.385,19.236,29.28,22.264,34.396c-3.08-0.37-12.525-1.438-19.021-1.438
	C143.953,102.637,142.768,103.33,142.33,103.852z"/>
</svg>
