<?xml version="1.0" encoding="utf-8"?>
<!-- Generator: Adobe Illustrator 16.0.0, SVG Export Plug-In . SVG Version: 6.00 Build 0)  -->
<!DOCTYPE svg PUBLIC "-//W3C//DTD SVG 1.1//EN" "http://www.w3.org/Graphics/SVG/1.1/DTD/svg11.dtd">
<svg version="1.1" id="Layer_1" xmlns="http://www.w3.org/2000/svg" xmlns:xlink="http://www.w3.org/1999/xlink" x="0px" y="0px"
	 width="200px" height="200px" viewBox="0 0 200 200" enable-background="new 0 0 200 200" xml:space="preserve">
<path d="M196.771,100.369c0,24.279-7.975,52.524-26.436,68.033c-17.294,14.528-44.225,17.106-69.979,17.106
	c-29.203,0-55.375-11.467-73.055-29.579c-14.556-14.913-23.357-34.328-23.357-55.561c0-25.752,8.31-54.754,28.769-70.366
	c16.899-12.894,43.56-14.772,67.644-14.772c29.421,0,61.625,4.203,79.308,22.548C193.988,52.636,196.771,79.329,196.771,100.369z
	 M15.348,69.919c-2.348,1.66-4.698,5.701-0.293,8.552c0,0-9.274-1.295-2.478,3.628c2.669,1.933-10.877,0.931-2.489,15.16
	c0,0-4.414,2.973-1.221,6.095c0.995,0.971,1.549,4.1,1.296,7.255c0,0-2.073,7.516,3.629,8.033c2.717,0.248,2.767,5.961,3.369,7.775
	c1.74,5.254,5.671,9.617,5.671,9.617c2.527,6.122,6.923,12.077,7.805,10.083c3.568,5.723,5.639,7.196,6.479,6.738
	c1.069-0.584,1.287,4.561,4.147,7.255c3.628,3.421,2.943,3.794,5.702,3.112c2.758-0.684-0.551,5.54,4.406,3.11
	c3.041-3.216,5.474,5.666,6.739,4.149c2.221-2.668,7.26,1.25,10.108,4.405c2.333,2.585,8.812,1.877,8.812,2.334
	c3.985,3.885,2.987-1.34,8.294,0.261c6.5,1.963,6.695,4.084,7.516,1.209c4.277,2.14,8.848,1.771,12.699,1.404
	c1.89-0.182,8.386-0.266,8.554-1.062c0.484-2.333,7.774-0.15,7.774-0.517c0.422-0.069,5.334,1.944,8.296-2.852
	c0.401-0.648,5.748,4.013,7.775,0c1.054-2.082,9.575,0.06,10.885-2.593c1.612-3.264,2.001-1.353,5.961-2.591
	c4.146-1.296,8.21-0.943,10.369-5.702c1.962-4.324,7.333-5.721,8.811-9.33c0.916-2.242,10.928-6.705,8.812-12.965
	c-0.986-2.917,5.386-6.775,4.146-9.85c-1.784-4.424,6.582-7.807,4.926-11.402c-2.319-5.027,0.484-11.44,0.217-11.663
	c-2.39-1.994,2.689-3.873-1.514-7.256c-3.684-2.967,1.524-6.881,1.732-6.479c2.356-1.569-3.392-8.945-1.214-10.108
	c5.043-2.699-3.229-7.281-1.036-12.959c2.011-5.21-3.812-13.656-4.925-13.737c3.848-8.979-11.922-13.772-11.922-15.55
	c7.231-6.415-19.23-14.734-20.995-13.736c0-4.46-11.65,1.558-13.654-4.352c-2.081-6.134-6.87,3.22-10.244-0.525
	c-5.054-5.609-12.314,0.025-13.023-0.777c-3.968-4.489-10.69,1.75-14.772,0.777c-1.492-0.355-10.692-7.192-14.774,0
	c-5.637-5.636-11.662,8.165-16.328,1.944c-3.078-4.104-11.416,3.22-11.857,2.722c-7.273-2.058-14.773-3.499-17.689,2.527
	c-2.492,5.149-4.389,8.846-4.816,8.363c-5.476-1.375-5.562,6.104-9.061,7.465c-6.392,2.486-4.665,12.44-4.665,12.44
	C15.679,63.311,16.229,69.919,15.348,69.919z"/>
<path d="M48.606,83.063c0,0,29.474,35.216,34.612,32.309c-0.383-0.455,28.116-19.319,27.083-29.146
	C109.92,85.322,98.608,39.692,77.7,48.632C71.444,51.132,40.764,74.028,48.606,83.063z"/>
<path d="M59.416,126.694l-0.169-0.1c-0.814-0.479-19.968-11.895-21.455-24.669l-0.057-0.491l0.491-0.062
	c0.878-0.263,7.4-6.138,13.079-11.53l0.346-0.329l33.005,31.702L59.416,126.694z M38.831,102.157
	c1.66,11.546,18.874,22.328,20.758,23.477l23.021-4.997L51.647,90.896C48.136,94.224,40.994,100.892,38.831,102.157z"/>
<path d="M111.502,85.062c0,0-11.13-23.141-7.421-24.542c3.709-1.402,27.206-4.208,27.206-4.208s5.567,9.816,3.711,14.375
	C133.143,75.245,110.266,91.372,111.502,85.062z"/>
<path d="M140.976,105.889c-6.744,0-31.649-7.791-32.706-8.123l-0.812-0.254l0.617-0.585c1.224-1.161,30.049-28.441,37.189-28.441
	c0.556,0,1.007,0.15,1.342,0.447c4.336,3.843,22.218,34.219,22.977,35.511l0.518,0.879l-1.012-0.13
	c-0.121-0.016-12.151-1.555-19.905-1.555c-4.847,0-5.872,0.6-6.088,0.856c-0.044,0.053-0.043,0.08-0.037,0.115
	c0.049,0.278-0.02,0.546-0.194,0.753C142.559,105.727,141.976,105.889,140.976,105.889z M109.383,97.065
	c4.438,1.37,25.67,7.824,31.593,7.824c0.939,0,1.123-0.17,1.125-0.172c-0.087-0.273,0.002-0.595,0.229-0.866
	c0.438-0.521,1.623-1.214,6.854-1.214c6.496,0,15.941,1.068,19.021,1.438c-3.027-5.116-18.443-31.011-22.263-34.396
	c-0.146-0.129-0.374-0.195-0.678-0.195C139.974,69.485,119.845,87.189,109.383,97.065z"/>
<path d="M73.725,134.542c0,0,16.154-28.837,36.249-38.259c7.729,3.899,12.487,8.808,12.487,8.808s5.375,25.244,0,29.451
	C122.03,134.542,74.445,156.111,73.725,134.542z"/>
<path d="M126.66,137.65c0,0-5.934-30.891,0-32.26c5.93-1.371,29.06,0,29.06,0s4.945,29.457,3.092,32.26
	C156.956,140.455,127.231,140.903,126.66,137.65z"/>
</svg>
