<?xml version="1.0" encoding="utf-8"?>
<!-- Generator: Adobe Illustrator 16.0.0, SVG Export Plug-In . SVG Version: 6.00 Build 0)  -->
<!DOCTYPE svg PUBLIC "-//W3C//DTD SVG 1.1//EN" "http://www.w3.org/Graphics/SVG/1.1/DTD/svg11.dtd">
<svg version="1.1" id="Layer_1" xmlns="http://www.w3.org/2000/svg" xmlns:xlink="http://www.w3.org/1999/xlink" x="0px" y="0px"
	 width="200px" height="200px" viewBox="0 0 200 200" enable-background="new 0 0 200 200" xml:space="preserve">
<path fill="#020202" d="M94.178,177.958c-1.487,0.001-3.201-1.671-4.666-3.412c-0.156,0.592-0.499,1.129-1.267,1.129
	c-0.401,0-0.836-0.151-1.341-0.327c-0.662-0.23-1.412-0.491-2.275-0.491c-0.336,0-0.658,0.039-0.982,0.119l-0.736,0.186
	c-1.706,0.436-3.828,0.979-6.084,0.979c-2.935,0-5.328-0.912-7.318-2.788c-0.408-0.385-0.865-0.571-1.397-0.571
	c-1.188,0-2.653,0.924-4.07,1.817c-1.568,0.988-3.189,2.011-4.724,2.012c-1.036,0-1.93-0.469-2.657-1.395
	c-1.749-2.225-3.97-2.478-5.755-2.681c-1.285-0.146-2.395-0.272-2.902-1.157c-0.373-0.649-0.329-1.591,0.165-3.029
	c-1.942,0.738-5.213,0.965-7.33,0.965c-2.25,0-7.609-0.232-8.765-2.385c-0.211-0.393-0.357-1,0.005-1.781
	c-1.19-0.854-4.7-3.747-6.532-9.277c-0.438-1.324,0.941-2.84,2.275-4.306c0.601-0.661,1.506-1.655,1.497-1.982
	c-0.015,0.004-0.125-0.06-0.463-0.09c-6.967-0.634-7.457-6.359-7.49-7.091c-0.574-2.125,0.017-4.373,0.492-6.183
	c0.324-1.233,0.659-2.51,0.296-2.864c-1.079-1.054-1.585-2.253-1.505-3.565c0.148-2.421,2.276-4.49,3.127-5.226
	c-3.438-5.909-4.567-9.779-3.454-11.822c0.734-1.347,2.225-1.553,3.22-1.609c-2.802-2.091-4.082-4.052-3.806-5.831
	c0.254-1.636,1.747-2.639,2.721-3.128c-2.123-1.721-3.359-4.419-3.423-7.543c-0.057-2.748,0.832-5.309,2.238-6.544
	c-0.216-0.271-0.588-0.691-0.927-1.074c-2.109-2.383-6.036-6.82-4.939-9.822c0.473-1.294,1.792-2.147,3.923-2.54
	c-0.117-2.483-0.339-14.099,5.273-20.128c3.029-3.255,7.268-4.306,12.545-3.083c0.039-0.478,0.058-1.313,0.077-2.129
	c0.153-6.526,0.559-23.863,11.58-23.863c1.115,0,2.322,0.182,3.587,0.54l0.168,0.071c0.925-0.046,3.887-1.468,7.02-2.972
	c6.31-3.03,14.928-7.168,20.339-7.253c1.811-1.449,10.73-3.27,18.553-3.27c7.601,0,18.037,1.558,24.593,8.977
	c0.392,0.443,2.202,0.443,2.798,0.443c0.744,0,1.597-0.026,2.544-0.055c1.191-0.037,2.53-0.077,3.987-0.077
	c7.441,0,18.459,1.032,28.39,9.906c0.033-0.003,0.067-0.004,0.103-0.004c2.739,0,16.028,10.818,16.451,17.545
	c0.127,2.025-0.826,4.566-5.979,5.367c0.163,0.56,0.554,1.46,0.99,2.464c2.033,4.679,5.782,13.307,2.495,21.749
	c0.807,0.359,2.05,1.248,2.976,2.597c0.97,1.415,1.867,3.771,0.635,6.962c-1.219,3.159,1.154,6.446,3.248,9.347
	c1.684,2.333,3.139,4.348,2.725,6.138c-0.202,0.873-0.816,1.572-1.878,2.141c-0.895,0.479-0.625,1.82-0.111,3.812
	c0.532,2.068,1.137,4.413-0.652,5.603l-0.466,0.31l-0.077-0.148c-0.451,0.345-1.47,1.391-1.732,2.743
	c-0.259,1.339,0.303,2.575,1.67,3.676c3.236,2.605,1.647,6.735,0.371,10.054c-0.863,2.245-1.679,4.364-0.683,5.195
	c2.151,1.792,2.16,3.785,1.789,5.142c-0.799,2.922-4.068,5.579-5.973,6.042c-0.224,0.247-0.688,0.638-1.641,1.436
	c-4.312,3.609-6.376,5.772-6.138,6.429c0.017,0.046,0.199,0.175,0.802,0.175c0.166,0,0.35-0.01,0.554-0.029c0.002,0,0.005,0,0.007,0
	c0.35,0,0.645,0.227,0.645,0.656c0,1.181-4.792,10.837-6.697,10.838l0,0c-0.167,0-0.575-0.057-0.771-0.583
	c-0.311-0.833-0.789-1.205-1.552-1.205c-1.253,0-2.99,0.977-4.67,1.922c-1.671,0.939-3.249,1.826-4.47,1.827
	c-0.386,0-0.724-0.087-1.009-0.259c-1.386,1.228-6.035,4.518-11.713,4.518c-1.405,0.001-2.793-0.203-4.125-0.605
	c-0.801-0.241-1.605-0.359-2.46-0.359c-1.843,0-3.515,0.558-4.989,1.05c-1.165,0.389-2.171,0.725-3.064,0.725
	c-1.307,0-2.154-0.71-2.647-2.229c-0.447,0.104-1.295,0.355-2.122,0.602c-2.953,0.878-7.896,2.348-11.344,2.348
	c-1.763,0-2.954-0.371-3.645-1.136c-0.965-1.069-2.063-1.611-3.268-1.611c-2.869,0-5.651,2.97-6.714,4.247
	C95.261,177.71,94.751,177.958,94.178,177.958z M88.684,171.92l0.857,1.079c0.922,1.162,4.042,5.161,5.343,3.601
	c1.432-1.721,4.309-4.606,7.482-4.606c1.499,0,2.848,0.653,4.01,1.941c0.483,0.535,1.459,0.806,2.902,0.806
	c3.302,0,8.157-1.443,11.06-2.307c1.61-0.479,2.337-0.69,2.685-0.69c0.338,0,0.536,0.205,0.582,0.435
	c0.436,1.618,1.115,1.842,1.786,1.842c0.732,0,1.667-0.312,2.749-0.673c1.547-0.517,3.3-1.102,5.306-1.102
	c0.94,0,1.865,0.136,2.749,0.402c1.238,0.374,2.529,0.563,3.836,0.562c5.957,0,10.789-3.925,11.312-4.517l0.375-0.424l0.374,0.424
	c0.099,0.11,0.273,0.258,0.66,0.258c0.96-0.001,2.495-0.864,3.98-1.699c1.792-1.008,3.646-2.05,5.16-2.05
	c1.136,0,1.979,0.6,2.442,1.736c1.193-0.705,4.955-7.49,5.51-9.414c-1.039,0.02-1.668-0.254-1.878-0.832
	c-0.504-1.386,1.873-3.718,6.436-7.538c0.621-0.52,1.262-1.056,1.487-1.281v-0.262l0.42-0.067c1.403-0.228,4.641-2.648,5.384-5.363
	c0.427-1.562-0.066-2.944-1.466-4.11c-1.546-1.289-0.605-3.733,0.39-6.321c1.221-3.173,2.604-6.769-0.064-8.916
	c-2.519-2.026-2.233-4.205-1.839-5.323c0.534-1.518,1.945-2.947,2.68-2.991c0.92-0.78,0.624-2.266,0.075-4.398
	c-0.514-1.995-1.046-4.058,0.608-4.943c0.792-0.424,1.242-0.909,1.375-1.483c0.312-1.349-1.084-3.282-2.562-5.328
	c-2.242-3.106-4.783-6.627-3.37-10.292c0.794-2.053,0.706-3.943-0.261-5.616c-0.869-1.503-2.2-2.374-2.798-2.66l-0.356,0.839
	l-0.578-1.684l0.257-0.121c3.361-8.159-0.352-16.703-2.353-21.308c-0.695-1.599-1.154-2.656-1.154-3.286v-0.441l0.438-0.055
	c3.884-0.489,5.775-1.964,5.624-4.385c-0.403-6.426-13.649-16.608-15.453-16.608l-0.314,0.178l-0.263-0.255
	c-9.725-8.806-20.589-9.825-27.915-9.825c-1.445,0-2.774,0.041-3.957,0.077c-3.201,0.099-5.301,0.203-6.122-0.726
	c-6.308-7.14-16.447-8.639-23.843-8.639c-9.177,0-16.821,2.219-17.883,2.942v0.326h-0.5c-5.172,0-13.786,4.136-20.076,7.156
	c-4.207,2.02-6.449,3.074-7.458,3.074c-0.213,0-0.391-0.047-0.532-0.139c-1.14-0.315-2.222-0.475-3.217-0.475
	c-10.044,0-10.419,16.038-10.58,22.887c-0.065,2.795-0.076,3.225-0.731,3.225h-0.226l-1.989-0.452
	c-5.025-1.23-7.115,0.057-9.944,3.097c-5.878,6.315-4.991,19.696-4.982,19.831l0.033,0.463l-0.459,0.067
	c-2.006,0.294-3.211,0.956-3.581,1.968c-0.893,2.443,2.917,6.748,4.749,8.816c1.218,1.377,1.472,1.664,1.282,2.085l-0.133,0.295
	l-0.197,0.014c-1.241,0.975-2.063,3.357-2.012,5.868c0.064,3.131,1.413,5.776,3.7,7.256l0.874,0.565l-0.988,0.329
	c-0.026,0.009-2.617,0.892-2.896,2.697c-0.217,1.413,1.052,3.163,3.671,5.061c0.385,0.279,0.865,0.627,0.721,1.104
	c-0.136,0.451-0.599,0.47-1.186,0.493c-0.866,0.035-2.175,0.087-2.729,1.104c-0.647,1.187-0.538,4.094,3.653,11.205l0.225,0.382
	l-0.352,0.27c-0.029,0.022-2.928,2.268-3.08,4.777c-0.062,1.021,0.333,1.933,1.206,2.786c0.779,0.762,0.423,2.117-0.028,3.833
	c-0.449,1.709-1.008,3.836-0.48,5.718l0.019,0.134c0.001,0.228,0.102,5.582,6.583,6.172c0.263,0.023,1.062,0.097,1.308,0.729
	c0.314,0.807-0.528,1.732-1.693,3.013c-0.979,1.076-2.32,2.549-2.065,3.318c2.06,6.219,6.461,8.982,6.505,9.009l0.441,0.271
	l-0.285,0.432c-0.464,0.7-0.267,1.067-0.202,1.188c0.597,1.111,3.765,1.857,7.884,1.857c4.687,0,7.667-0.88,7.936-1.488l0.915,0.404
	c0,0.001-0.001,0.002-0.001,0.003c-0.84,1.902-1.115,3.13-0.817,3.648c0.255,0.445,1.091,0.54,2.148,0.661
	c1.866,0.212,4.421,0.503,6.428,3.057c0.542,0.69,1.137,1.012,1.871,1.012c1.246-0.001,2.743-0.944,4.19-1.857
	c1.537-0.97,3.126-1.972,4.604-1.972c0.788,0,1.488,0.283,2.083,0.843c1.796,1.693,3.966,2.517,6.633,2.517
	c2.13,0,4.186-0.525,5.837-0.947l0.743-0.188c0.398-0.099,0.81-0.148,1.222-0.148c1.032,0,1.903,0.303,2.604,0.547
	c0.402,0.14,0.781,0.271,1.013,0.271c0.091,0,0.369,0,0.404-1.378L88.684,171.92z"/>
<path fill="#020202" d="M141.512,97.696c6.719,35.3-17.188,44.628-38.39,44.628c-38.391,0-38.391-19.979-38.391-44.628
	c0-5.8-11.704-28.873,38.391-38.599C142.663,51.419,136.9,73.484,141.512,97.696z M111.332,114.432
	c3.015,3.756,27.541-10.7,26.817-7.911c4.03-7.88-6.591-43.358-7.521-43.599c-5.054-7.262-54.371,14.64-54.371,14.64
	S111.996,115.594,111.332,114.432z M75.94,133.825c2.132,6.74,23.759,2.459,24.303,2.459c1.964-4.844,20.128,1.343,18.715,1.343
	c1.429,1.211,18.123-15.99,17.41-15.99c12.087-11.506-4.975-9.691-5.17-10.295c-0.903,3.029-19,4.844-19,4.844
	c-0.438,6.733-35.94-35.015-35.94-35.015C57.064,79.96,75.229,133.143,75.94,133.825z"/>
<path fill="#020202" d="M13.191,57.545c0,0,36.165-60.352,102.866-47.396c0-0.479,62.342,7.566,71.938,47.396
	c-0.479,0.479-11.936,16.183-11.936,16.183s-21.632-52.308-68.944-49.085c-0.488,0-66.81,3.812-79.398,45.971
	C27.717,70.614,5.942,67.099,13.191,57.545z"/>
</svg>
