<?xml version="1.0" encoding="utf-8"?>
<!-- Generator: Adobe Illustrator 16.0.0, SVG Export Plug-In . SVG Version: 6.00 Build 0)  -->
<!DOCTYPE svg PUBLIC "-//W3C//DTD SVG 1.1//EN" "http://www.w3.org/Graphics/SVG/1.1/DTD/svg11.dtd">
<svg version="1.1" id="Layer_1" xmlns="http://www.w3.org/2000/svg" xmlns:xlink="http://www.w3.org/1999/xlink" x="0px" y="0px"
	 width="200px" height="200px" viewBox="0 0 200 200" enable-background="new 0 0 200 200" xml:space="preserve">
<path fill="#020202" d="M141.512,97.696c6.719,35.3-17.188,44.628-38.39,44.628c-38.391,0-38.391-19.979-38.391-44.628
	c0-5.8-11.704-28.873,38.391-38.599C142.663,51.419,136.9,73.484,141.512,97.696z M111.332,114.432
	c3.016,3.756,27.541-10.699,26.816-7.91c4.031-7.879-6.59-43.357-7.521-43.6c-5.054-7.262-54.371,14.64-54.371,14.64
	S111.996,115.594,111.332,114.432z M75.94,133.825c2.132,6.739,23.759,2.459,24.303,2.459c1.964-4.845,20.128,1.343,18.715,1.343
	c1.429,1.211,18.123-15.99,17.41-15.99c12.087-11.506-4.976-9.691-5.17-10.295c-0.903,3.029-19,4.844-19,4.844
	c-0.438,6.733-35.94-35.015-35.94-35.015C57.064,79.96,75.229,133.143,75.94,133.825z"/>
<path d="M180.021,93.699c2.154-5.582-1.476-8.997-2.64-9.911c-0.319-0.251-0.608-0.452-0.872-0.612
	c1.031-2.943,1.182-7.779,0.833-11.207c3.003-4.11,10.272-14.045,10.652-14.424c-9.597-39.83-71.938-47.875-71.938-47.396
	C49.356-2.807,13.191,57.545,13.191,57.545c-2.882,3.798-1.171,6.639,1.929,8.687l-0.048-0.027
	c-1.281,4.909-1.426,10.201-1.366,12.355c-2.122,0.51-3.464,1.506-3.999,2.969c-1.286,3.521,2.81,8.149,5.257,10.914
	c0.173,0.195,0.355,0.401,0.519,0.589c-1.331,1.532-2.118,4.069-2.061,6.833c0.063,3.062,1.15,5.761,3.043,7.671
	c-1.001,0.67-2.067,1.725-2.306,3.262c-0.286,1.843,0.677,3.718,2.937,5.7c-0.845,0.26-1.702,0.768-2.249,1.771
	c-1.269,2.328-0.223,6.299,3.294,12.455c-1.099,1.049-2.896,3.112-3.043,5.515c-0.094,1.532,0.499,2.983,1.716,4.202
	c0.069,0.381-0.224,1.496-0.44,2.319c-0.508,1.933-1.137,4.328-0.534,6.687c0.076,2.511,1.784,7.059,7.767,7.904
	c-0.277,0.334-0.618,0.709-0.887,1.004c-1.453,1.598-3.099,3.406-2.51,5.185c1.767,5.335,5.015,8.403,6.594,9.644
	c-0.232,0.898,0.028,1.599,0.253,1.993c1.717,3.011,9.285,2.864,11.565,2.747c1.52-0.079,3.217-0.249,4.664-0.602
	c-0.2,1.025-0.11,1.789,0.252,2.421c0.71,1.237,2.158,1.403,3.559,1.562c1.804,0.205,3.848,0.438,5.471,2.504
	c2.603,3.313,6.076,1.127,8.613-0.475c2.323-1.466,3.805-2.29,4.773-1.378c4.821,4.545,10.927,2.983,14.576,2.05l0.751-0.189
	c1.111-0.276,2.092,0.065,2.958,0.367c0.882,0.307,1.881,0.655,2.77,0.037c0.12-0.082,0.226-0.175,0.32-0.277
	c1.487,1.641,3.094,2.967,4.654,2.985c0.012,0.001,0.023,0.001,0.035,0.001c0.817,0,1.538-0.348,2.086-1.005
	c2.158-2.592,4.463-4.1,6.324-4.137c1.1,0,2.028,0.446,2.913,1.427c2.495,2.766,9.411,1,16.283-1.044
	c0.526-0.155,1.093-0.323,1.541-0.45c0.377,0.834,0.89,1.42,1.553,1.778c1.472,0.792,3.126,0.242,5.046-0.399
	c2.141-0.714,4.568-1.522,7.275-0.709c7.475,2.254,14.311-1.922,16.73-3.889c1.635,0.564,3.812-0.664,5.929-1.855
	c1.643-0.924,3.897-2.19,4.843-1.843c0.084,0.03,0.337,0.123,0.559,0.716c0.311,0.83,1.105,1.246,1.933,1.021
	c0.444-0.123,1.629-0.45,4.588-5.755c1.301-2.334,2.81-5.345,2.608-6.438c-0.129-0.701-0.742-1.172-1.449-1.111
	c-0.133,0.012-0.248,0.019-0.35,0.022c1.016-1.507,4.571-4.481,5.844-5.549c0.787-0.659,1.291-1.082,1.615-1.396
	c2.213-0.67,5.629-3.502,6.51-6.715c0.625-2.281-0.117-4.442-2.09-6.086c-0.631-0.527,0.23-2.764,0.922-4.561
	c1.334-3.467,3.162-8.217-0.608-11.25c-1.12-0.902-1.613-1.837-1.507-2.858c0.083-0.796,0.516-1.518,0.929-2.014l1.149-0.767
	c2.287-1.522,1.562-4.338,0.979-6.6c-0.31-1.206-0.735-2.859-0.246-3.12c1.279-0.684,2.056-1.592,2.312-2.696
	c0.505-2.181-1.092-4.393-2.941-6.955C181.135,99.699,178.9,96.603,180.021,93.699z M183.805,109.083
	c-0.033,0.14-0.131,0.562-1.056,1.056c-2.222,1.188-1.542,3.827-0.996,5.948c0.452,1.755,0.74,3.083,0.263,3.703
	c-1.166,0.336-2.671,2.091-3.182,3.783c-0.389,1.288-0.618,3.791,2.221,6.075c2.182,1.756,1.312,4.591-0.156,8.404
	c-1.08,2.805-2.195,5.703-0.189,7.377c1.227,1.024,1.645,2.17,1.279,3.506c-0.698,2.549-3.86,4.84-4.987,5.022l-1.051,0.17v0.575
	c-0.304,0.27-0.813,0.695-1.279,1.086c-5.376,4.501-7.642,6.824-6.854,8.704c0.306,0.731,0.938,1.054,1.578,1.187
	c-0.902,2.146-3.224,6.282-4.522,7.885c-0.388-0.522-0.878-0.895-1.47-1.11c-2.032-0.744-4.521,0.657-6.928,2.012
	c-1.18,0.665-3.379,1.9-3.9,1.646l-0.934-1.024l-0.938,1.022c-0.061,0.066-6.977,6.283-14.938,3.887
	c-3.471-1.049-6.543-0.02-8.791,0.73c-1.252,0.416-2.547,0.851-3.065,0.57c-0.249-0.135-0.482-0.545-0.662-1.162l-0.009-0.469
	l-0.502-0.375c-0.629-0.467-1.057-0.34-3.82,0.48c-2.986,0.89-12.07,3.588-13.715,1.768c-1.381-1.531-3.018-2.296-4.819-2.252
	c-3.541,0.07-6.654,3.185-8.195,5.035c-0.091,0.109-0.127,0.104-0.173,0.107c-0.361-0.005-1.494-0.386-4.228-3.826l-2.141-2.693
	l-0.087,3.439c-0.007,0.275-0.024,0.479-0.044,0.625c-0.148-0.047-0.314-0.104-0.454-0.152c-1.013-0.354-2.546-0.885-4.379-0.434
	l-0.771,0.195c-3.555,0.909-8.421,2.157-12.243-1.447c-2.448-2.307-5.428-0.426-7.821,1.083c-3.076,1.941-4.275,2.364-5.313,1.044
	c-2.268-2.887-5.208-3.221-7.154-3.443c-0.599-0.067-1.504-0.17-1.671-0.318c-0.011-0.021-0.244-0.577,0.881-3.124c0,0,0,0,0-0.001
	l-2.287-1.01c0.032-0.074,0.066-0.109,0.067-0.11c-0.378,0.386-2.824,1.136-7.016,1.21c-3.686,0.074-6.875-0.468-7.936-1.326
	c-0.237-0.191-0.308-0.25-0.018-0.688l0.708-1.075l-1.094-0.68c-0.044-0.027-4.389-2.78-6.425-8.919
	c-0.036-0.524,1.326-2.021,1.98-2.739c1.333-1.464,2.386-2.621,1.896-3.881c-0.191-0.491-0.688-1.103-1.971-1.22
	c-5.922-0.539-6.15-5.148-6.156-5.666l-0.046-0.338c-0.493-1.757,0.035-3.767,0.5-5.539c0.507-1.929,0.945-3.595-0.167-4.682
	c-0.743-0.725-1.081-1.482-1.031-2.316c0.111-1.877,2.135-3.824,2.904-4.416l0.882-0.672l-0.563-0.957
	c-4.551-7.723-4.155-10.186-3.773-10.887c0.347-0.637,1.246-0.725,2.215-0.764c0.64-0.025,1.608-0.064,1.9-1.031
	c0.3-0.994-0.59-1.638-1.018-1.949c-2.439-1.766-3.686-3.378-3.51-4.535c0.178-1.178,1.915-2.016,2.506-2.215l2.478-0.817
	l-2.191-1.419c-3.072-1.988-3.471-5.502-3.5-6.921c-0.051-2.489,0.745-4.478,1.629-5.333l0.401-0.013l0.332-0.737
	c0.391-0.868-0.073-1.392-1.448-2.946c-1.663-1.878-5.556-6.277-4.781-8.399c0.354-0.967,1.897-1.385,3.129-1.566l1.147-0.169
	l-0.082-1.157c-0.005-0.062-0.308-5.953,1.254-11.941l-0.034-0.019c4.588,2.162,10.247,3.079,10.247,3.079
	c12.588-42.159,78.91-45.971,79.398-45.971c47.302-3.223,68.935,49.065,68.943,49.084l-0.002,0.002
	c0.34,3.343-1.06,6.556-2.178,9.342l-0.475,0.355l1.307,4.062l0.837-1.955c0.657,0.459,1.533,1.264,2.095,2.406
	c0.715,1.451,0.731,3.086,0.047,4.858c-1.608,4.168,1.269,8.154,3.58,11.356C182.639,106.051,184.052,108.01,183.805,109.083z"/>
</svg>
