<?xml version="1.0" encoding="utf-8"?>
<!-- Generator: Adobe Illustrator 16.0.0, SVG Export Plug-In . SVG Version: 6.00 Build 0)  -->
<!DOCTYPE svg PUBLIC "-//W3C//DTD SVG 1.1//EN" "http://www.w3.org/Graphics/SVG/1.1/DTD/svg11.dtd">
<svg version="1.1" id="Layer_1" xmlns="http://www.w3.org/2000/svg" xmlns:xlink="http://www.w3.org/1999/xlink" x="0px" y="0px"
	 width="200px" height="200px" viewBox="0 0 200 200" enable-background="new 0 0 200 200" xml:space="preserve">
<path d="M192.797,98.696c4.148,89.598-17.112,80.522-94.086,81.819c-88.508,1.49-88.706-20.852-88.706-82.192
	c0-49.402-23.854-82.45,89.97-89.08C205.714,3.084,189.493,27.351,192.797,98.696z M16.312,77.998
	c-3.131,2.214-5.819,9.936,0.057,13.74c0,0-7.934,5.015,1.13,11.582c3.561,2.58-10.529-4.121,0.659,14.859
	c0,0-5.411,4.007-1.153,8.172c1.329,1.296-1.479,5.359-1.815,9.568c0,0-1.513,11.234,6.093,11.927
	c3.622,0.328,0.778,6.154,1.58,8.577c2.322,7.009,3.217,6.98,3.217,6.98c3.371,8.167,17.4,7.475,18.575,4.812
	c4.76,7.633,9.083,5.003,10.205,4.392c1.426-0.778,6.555-2.427,10.371,1.167c4.837,4.562,10.359-0.771,14.038-1.678
	c3.681-0.911,2.297,5.178,8.909,1.937c4.055-4.29,5.771,1.807,7.458-0.219c2.961-3.557,5.724-4.509,9.524-0.3
	c3.111,3.448,15.687-0.219,15.687,0.389c5.315,5.186,14.572-3.561,21.65-1.426c8.674,2.617,15.034,1.256,15.687,0.519
	c5.704,2.853,11.063-2.103,16.205-2.593c2.518-0.239,7.555-10.865,7.778-11.927c0.647-3.111,0.777-7.288,0.777-7.778
	c2.597-0.417,10.237-14.787,4.846-19.28c-3.188-2.661,5.951-11.959,0.346-16.472c-4.914-3.958-1.061-9.12-0.783-8.585
	c3.14-2.091-3.683-11.411-0.778-12.963c6.726-3.6-4.473-7.827-1.55-15.401c2.685-6.95-1.748-13.446-1.562-12.861
	c5.131-11.978-3.111-19.667-3.111-22.039c9.646-8.556-2.315-18.443-4.667-17.112c0-8.557-12.524-3.802-14.337-9.152
	c-2.775-8.184-9.164,4.294-13.665-0.701c-6.741-7.482-16.428,0.033-17.372-1.037c-5.293-5.988-14.26,2.333-19.705,1.037
	c-1.991-0.474-14.26-9.593-19.705,0c-7.52-7.519-15.557,10.89-21.78,2.593c-4.108-5.473-15.229,4.294-15.816,3.63
	c-9.703-2.745-17.819,0.043-21.708,8.081c-3.326,6.869-7.742,7.089-8.312,6.445c-7.304-1.835-1.872,8.032-6.539,9.847
	c-8.528,3.316-2.605,17.023-2.605,17.023C6.634,67.729,17.487,77.998,16.312,77.998z"/>
<path d="M64.816,67.179c0,0,0,61.075,8.206,63.47c0-0.794,48.007,9.982,55.802,0c0.411-1.195,5.103-44.151-25.318-36.969
	C94.457,89.817,64.51,51.231,64.816,67.179z"/>
<path d="M77.231,57.407c0,0,0,11.064,4.839,11.754c4.839,0.691,7.462-0.002,8.917-5.878C92.442,57.407,77.231,57.407,77.231,57.407z
	"/>
<polygon points="86.778,65.85 86.778,77.603 95.766,77.603 98.531,65.85 "/>
<path d="M97.068,81.735c0,0,1.57,11.151,8.542,11.57c0,0.14,12.202-3.067,12.725-3.624c0,0-7.843-10.177-9.413-9.618
	C108.922,79.922,97.068,81.735,97.068,81.735z"/>
<path d="M115.55,64.199c0,0-10.871-2.936-13.995,3.312c-0.129-0.055-1.971,12.427-1.665,13.126c0,0,12.439-3.216,12.543-4.879
	C112.562,75.812,115.55,64.199,115.55,64.199z"/>
<path d="M122.7,65.036c0,0-11.182,1.345-11.74,8.307c-0.142-0.004,2.821,12.261,3.366,12.796c0,0,10.333-7.639,9.807-9.221
	C124.272,76.922,122.7,65.036,122.7,65.036z"/>
<path d="M117.226,84.095c0,0,0,11.064,4.839,11.753c4.839,0.693,7.462,0,8.917-5.877C132.436,84.095,117.226,84.095,117.226,84.095z
	"/>
</svg>
