<?xml version="1.0" encoding="utf-8"?>
<!-- Generator: Adobe Illustrator 16.0.0, SVG Export Plug-In . SVG Version: 6.00 Build 0)  -->
<!DOCTYPE svg PUBLIC "-//W3C//DTD SVG 1.1//EN" "http://www.w3.org/Graphics/SVG/1.1/DTD/svg11.dtd">
<svg version="1.1" id="Layer_1" xmlns="http://www.w3.org/2000/svg" xmlns:xlink="http://www.w3.org/1999/xlink" x="0px" y="0px"
	 width="200px" height="200px" viewBox="0 0 200 200" enable-background="new 0 0 200 200" xml:space="preserve">
<path d="M188.549,99.644c3.962,85.571-16.344,76.904-89.857,78.143C14.163,179.21,13.974,157.87,13.974,99.29
	c0-47.182-22.781-78.745,85.926-85.076C200.888,8.33,185.396,31.506,188.549,99.644z M20.002,79.876
	c-2.991,2.115-5.56,9.489,0.054,13.123c0,0-7.58,4.79,1.079,11.062c3.401,2.462-10.058-3.937,0.627,14.189
	c0,0-5.167,3.829-1.099,7.805c1.265,1.237-1.414,5.12-1.737,9.141c0,0-1.443,10.729,5.819,11.391
	c3.462,0.313,0.743,5.877,1.509,8.19c2.217,6.692,3.072,6.667,3.072,6.667c3.219,7.8,16.618,7.137,17.742,4.595
	c4.544,7.291,8.674,4.78,9.744,4.195c1.362-0.742,6.262-2.319,9.905,1.114c4.624,4.357,9.897-0.734,13.41-1.604
	c3.513-0.868,2.19,4.947,8.504,1.852c3.875-4.098,5.514,1.724,7.125-0.211c2.829-3.396,5.467-4.305,9.094-0.284
	c2.972,3.293,14.981-0.209,14.981,0.371c5.076,4.953,13.919-3.4,20.677-1.361c8.283,2.499,14.362,1.197,14.981,0.495
	c5.447,2.724,10.57-2.008,15.477-2.477c2.406-0.23,7.22-10.377,7.429-11.391c0.619-2.972,0.742-6.961,0.742-7.429
	c2.484-0.4,9.777-14.124,4.632-18.415c-3.047-2.54,5.684-11.422,0.329-15.731c-4.693-3.778-1.014-8.708-0.751-8.197
	c3.003-1.998-3.515-10.899-0.743-12.381c6.427-3.438-4.271-7.475-1.478-14.708c2.562-6.637-1.672-12.841-1.493-12.282
	c4.901-11.439-2.972-18.783-2.972-21.048c9.216-8.171-2.21-17.614-4.458-16.343c0-8.171-11.959-3.631-13.692-8.74
	c-2.65-7.815-8.752,4.102-13.051-0.669c-6.438-7.146-15.688,0.031-16.591-0.99c-5.053-5.719-13.619,2.229-18.819,0.99
	c-1.899-0.453-13.619-9.162-18.819,0c-7.181-7.181-14.857,10.4-20.8,2.477c-3.919-5.228-14.544,4.101-15.105,3.467
	c-9.267-2.622-18.82-4.458-22.534,3.219c-3.172,6.56-5.591,11.269-6.136,10.654c-6.976-1.753-1.788,7.67-6.245,9.404
	c-8.141,3.167-2.484,16.258-2.484,16.258C10.754,70.07,21.124,79.876,20.002,79.876z"/>
<path d="M66.323,69.543c0,0,0,58.33,7.839,60.618c0-0.76,45.847,9.532,53.293,0c0.391-1.144,28.214-51.515-1.176-63.335
	C117.636,63.136,66.031,54.313,66.323,69.543z"/>
</svg>
