<?xml version="1.0" encoding="utf-8"?>
<!-- Generator: Adobe Illustrator 16.0.0, SVG Export Plug-In . SVG Version: 6.00 Build 0)  -->
<!DOCTYPE svg PUBLIC "-//W3C//DTD SVG 1.1//EN" "http://www.w3.org/Graphics/SVG/1.1/DTD/svg11.dtd">
<svg version="1.1" id="Layer_1" xmlns="http://www.w3.org/2000/svg" xmlns:xlink="http://www.w3.org/1999/xlink" x="0px" y="0px"
	 width="200px" height="200px" viewBox="0 0 200 200" enable-background="new 0 0 200 200" xml:space="preserve">
<path d="M192.797,98.696c4.148,89.598-17.111,80.522-94.086,81.82c-88.508,1.489-88.706-20.853-88.706-82.192
	c0-49.402-23.854-82.45,89.97-89.08C205.714,3.084,189.493,27.351,192.797,98.696z M16.312,77.998
	c-3.131,2.214-5.819,9.936,0.057,13.74c0,0-7.934,5.015,1.13,11.583c3.561,2.58-10.529-4.121,0.659,14.859
	c0,0-5.411,4.006-1.153,8.172c1.329,1.295-1.479,5.358-1.815,9.567c0,0-1.513,11.233,6.093,11.927
	c3.622,0.328,0.778,6.154,1.58,8.577c2.322,7.009,3.217,6.979,3.217,6.979c3.371,8.168,17.4,7.476,18.575,4.812
	c4.76,7.633,9.083,5.003,10.205,4.393c1.426-0.778,6.555-2.428,10.371,1.166c4.837,4.562,10.359-0.771,14.038-1.678
	c3.681-0.91,2.297,5.178,8.909,1.938c4.055-4.29,5.771,1.807,7.458-0.219c2.961-3.558,5.723-4.51,9.524-0.301
	c3.111,3.448,15.688-0.219,15.688,0.389c5.314,5.187,14.571-3.561,21.649-1.426c8.674,2.617,15.034,1.256,15.687,0.52
	c5.705,2.854,11.063-2.104,16.205-2.594c2.519-0.238,7.555-10.864,7.778-11.926c0.647-3.111,0.776-7.289,0.776-7.778
	c2.598-0.417,10.238-14.787,4.847-19.28c-3.188-2.661,5.951-11.959,0.346-16.473c-4.913-3.957-1.061-9.119-0.782-8.584
	c3.14-2.092-3.684-11.411-0.778-12.963c6.726-3.6-4.474-7.827-1.55-15.401c2.685-6.95-1.748-13.446-1.562-12.861
	c5.131-11.978-3.111-19.667-3.111-22.039c9.646-8.556-2.314-18.443-4.666-17.112c0-8.557-12.524-3.802-14.338-9.152
	c-2.774-8.184-9.164,4.294-13.664-0.701c-6.742-7.482-16.429,0.033-17.373-1.037c-5.293-5.988-14.26,2.333-19.705,1.037
	c-1.99-0.474-14.259-9.593-19.705,0c-7.52-7.519-15.557,10.89-21.78,2.593c-4.108-5.473-15.229,4.294-15.816,3.63
	c-9.703-2.745-17.819,0.043-21.708,8.081c-3.326,6.869-7.742,7.089-8.312,6.445c-7.304-1.835-1.872,8.032-6.539,9.847
	c-8.528,3.316-2.605,17.023-2.605,17.023C6.634,67.729,17.487,77.998,16.312,77.998z"/>
<g>
	<path d="M82.07,69.161c1.887,0.27,3.433,0.322,4.708-0.054v8.496h8.988l2.765-11.753H90.13c0.322-0.72,0.608-1.563,0.856-2.567
		c1.455-5.876-13.756-5.876-13.756-5.876S77.231,68.471,82.07,69.161z"/>
	<path d="M122.064,95.848c4.84,0.693,7.463,0,8.918-5.877c1.453-5.876-13.756-5.876-13.756-5.876s0.001,2.217,0.436,4.728
		c-0.605-0.764-1.561-1.952-2.631-3.213c2.318-1.756,9.544-7.362,9.102-8.692c0.139,0.004-1.433-11.882-1.433-11.882
		s-4.647,0.562-8.101,2.826c0.531-2.034,0.95-3.663,0.95-3.663s-10.87-2.937-13.995,3.312c-0.129-0.055-1.971,12.427-1.665,13.126
		c0,0,9.039-2.337,11.768-4.058c0.547,2.288,1.307,5.296,1.89,7.327c-1.954-2.183-3.922-4.094-4.626-3.843
		c0-0.141-11.854,1.672-11.854,1.672s1.549,10.972,8.382,11.553c-0.634,0.11-1.277,0.235-1.944,0.393
		c-9.049-3.863-38.996-42.449-38.69-26.501c0,0,0,61.075,8.206,63.47c0-0.793,48.007,9.982,55.802,0
		c0.396-1.152,4.776-41.202-22.27-37.534c2.537-0.605,9.446-2.46,11.321-3.203C118.494,92.7,119.701,95.512,122.064,95.848z"/>
</g>
</svg>
