<?xml version="1.0" encoding="utf-8"?>
<!-- Generator: Adobe Illustrator 16.0.0, SVG Export Plug-In . SVG Version: 6.00 Build 0)  -->
<!DOCTYPE svg PUBLIC "-//W3C//DTD SVG 1.1//EN" "http://www.w3.org/Graphics/SVG/1.1/DTD/svg11.dtd">
<svg version="1.1" id="Layer_1" xmlns="http://www.w3.org/2000/svg" xmlns:xlink="http://www.w3.org/1999/xlink" x="0px" y="0px"
	 width="200px" height="200px" viewBox="0 0 200 200" enable-background="new 0 0 200 200" xml:space="preserve">
<path fill="#020202" d="M114.529,72.028c0,0-41.523,33.375-34.992,33.98c0,0,1.279,17.639,4.198,18.596
	c-0.596,0.172,0.712,16.799-10.142,4.748c-0.019,0.689-16.285-15.994-15.07-17.351c-0.038,1.374,6.458-16.112,1.804-18.151
	c0.015-0.526-3.561-21.657,3.046-23.548C64.056,69.629,116.223,53.408,114.529,72.028z"/>
<path fill="#020202" d="M89.997,9.038c0,0,90.8-8.537,97.425,71.635c2.139,25.892,26.822,114.212-82.812,106.884
	c-57.833-6.783-92.636,10.823-94.068-84.445C11.356,93.927-11.766,9.573,89.997,9.038z M97.508,172.025
	c95.045,15.865,72.428-80.059,72.422-80.584c-7.807-55.4,3.731-62.509-84.205-67.128c-77.433-2.145-64.138,74.62-64.138,74.62
	C20.974,181.232,72.201,167.943,97.508,172.025z"/>
<path fill="#020202" d="M94.831,131.628c-3.04,0-5.215-0.381-6.65-1.165l-11.975-6.549l11.065,3.2
	c-0.518-1.458-1.377-3.543-2.119-5.343c-4.162-10.098-6.487-16.381-3.698-18.493l0.001,0.001c0.758-0.841,2.293-2.229,5.229-4.887
	c3.237-2.929,7.562-6.808,11.891-10.678c8.654-7.738,17.322-15.441,17.322-15.441l1.579-1.404l0.804,1.954
	c0.048,0.115,4.753,11.583,8.567,23.445c7.119,22.136,5.265,26.789,2.854,28.37l-0.022-0.034c-1.072,0.71-4.098,1.811-13.136,3.872
	C111.385,129.653,101.706,131.628,94.831,131.628z M90.693,128.229c0.857,0.223,2.161,0.398,4.138,0.398
	c10.922,0,30.491-5.247,33.008-6.356l0.217-0.143c2.686-1.76-1.076-19.833-11.751-46.205c-13.199,11.737-31.78,28.343-32.797,29.481
	l-0.957-0.854l0.715,1.117c-0.869,1.543,3.006,10.944,4.661,14.959C89.65,124.812,90.488,126.943,90.693,128.229z"/>
</svg>
