<?xml version="1.0" encoding="utf-8"?>
<!-- Generator: Adobe Illustrator 16.0.0, SVG Export Plug-In . SVG Version: 6.00 Build 0)  -->
<!DOCTYPE svg PUBLIC "-//W3C//DTD SVG 1.1//EN" "http://www.w3.org/Graphics/SVG/1.1/DTD/svg11.dtd">
<svg version="1.1" id="Layer_1" xmlns="http://www.w3.org/2000/svg" xmlns:xlink="http://www.w3.org/1999/xlink" x="0px" y="0px"
	 width="200px" height="200px" viewBox="0 0 200 200" enable-background="new 0 0 200 200" xml:space="preserve">
<path fill="#020202" d="M114.529,69.028c-5.018,4.053-34.184,34.055-34.992,33.98c-3.559,16.318,8.997,41.588-16.24,12.885
	c-3.795-4.315-7.526-46.415,0.076-48.591C70.034,60.74,115.949,53.419,114.529,69.028z"/>
<path fill="#020202" d="M89.997,9.038c0,0,90.8-8.537,97.425,71.635c2.139,25.892,26.822,114.212-82.812,106.884
	c-57.833-6.783-92.635,10.823-94.067-84.445C11.356,93.927-11.766,9.573,89.997,9.038z M97.508,172.025
	c95.045,15.865,72.428-80.06,72.422-80.584c-7.807-55.4,3.731-62.509-84.205-67.128c-77.433-2.145-64.138,74.62-64.138,74.62
	C20.974,181.232,72.201,167.943,97.508,172.025z"/>
<path fill="#020202" d="M94.831,131.628c-3.04,0-5.215-0.381-6.65-1.165c0,0-2.287-6.892-3.029-8.691
	c-4.162-10.099-6.487-16.381-3.698-18.494l0.001,0.002c0.758-0.842,2.293-2.229,5.229-4.887
	c3.237-2.929,29.212-26.119,29.212-26.119l1.58-1.404l0.803,1.954c0.049,0.115,4.754,11.583,8.568,23.445
	c7.118,22.136,5.264,26.789,2.854,28.371l-0.021-0.035C128.607,125.314,101.706,131.628,94.831,131.628z M90.693,128.229
	c0.857,0.224,2.161,0.398,4.138,0.398c10.922,0,30.491-5.247,33.008-6.355l0.218-0.144c2.686-1.76-1.076-19.833-11.752-46.205
	c-13.199,11.737-31.78,28.343-32.797,29.481l-0.242,0.263c-0.869,1.543,3.006,10.944,4.661,14.959
	C89.65,124.812,90.488,126.943,90.693,128.229z"/>
</svg>
