<?xml version="1.0" encoding="utf-8"?>
<!-- Generator: Adobe Illustrator 16.0.0, SVG Export Plug-In . SVG Version: 6.00 Build 0)  -->
<!DOCTYPE svg PUBLIC "-//W3C//DTD SVG 1.1//EN" "http://www.w3.org/Graphics/SVG/1.1/DTD/svg11.dtd">
<svg version="1.1" id="Layer_1" xmlns="http://www.w3.org/2000/svg" xmlns:xlink="http://www.w3.org/1999/xlink" x="0px" y="0px"
	 width="200px" height="200px" viewBox="0 0 200 200" enable-background="new 0 0 200 200" xml:space="preserve">
<path fill="#020202" d="M141.512,97.696c6.719,35.3-17.188,44.628-38.39,44.628c-38.391,0-38.391-19.979-38.391-44.628
	c0-5.8-11.704-28.873,38.391-38.599C142.663,51.419,136.9,73.484,141.512,97.696z M111.332,114.432
	c3.016,3.756,27.541-10.699,26.816-7.91c4.031-7.88-6.59-43.358-7.521-43.6c-5.054-7.262-54.371,14.64-54.371,14.64
	S111.996,115.594,111.332,114.432z M75.94,133.825c2.132,6.739,23.759,2.459,24.303,2.459c1.964-4.845,20.128,1.343,18.715,1.343
	c1.429,1.211,18.123-15.99,17.41-15.99c12.087-11.506-4.976-9.691-5.17-10.295c-0.903,3.029-19,4.844-19,4.844
	c-0.438,6.733-35.94-35.015-35.94-35.015C57.064,79.96,75.229,133.143,75.94,133.825z"/>
<path fill="#020202" d="M13.191,57.545c0,0,36.165-60.352,102.866-47.396c0-0.479,62.342,7.566,71.938,47.396
	c-0.479,0.479-11.937,16.183-11.937,16.183s-21.632-52.308-68.943-49.085c-0.488,0-66.81,3.812-79.398,45.971
	C27.717,70.614,5.942,67.099,13.191,57.545z"/>
<path d="M92.018,186.93c-0.012,0-0.023,0-0.035-0.001c-1.56-0.019-3.167-1.345-4.654-2.985c-0.094,0.102-0.2,0.195-0.32,0.277
	c-0.889,0.618-1.888,0.269-2.77-0.038c-0.866-0.301-1.847-0.643-2.958-0.366l-0.751,0.189c-3.649,0.934-9.755,2.495-14.576-2.05
	c-0.968-0.912-2.45-0.088-4.773,1.378c-2.537,1.601-6.01,3.788-8.613,0.475c-1.623-2.066-3.667-2.299-5.471-2.504
	c-1.401-0.159-2.849-0.324-3.559-1.562c-0.362-0.631-0.452-1.396-0.252-2.421c-1.447,0.353-3.144,0.523-4.664,0.602
	c-2.28,0.117-9.848,0.263-11.565-2.747c-0.225-0.395-0.485-1.095-0.253-1.993c-1.579-1.24-4.827-4.309-6.594-9.644
	c-0.589-1.778,1.057-3.587,2.51-5.184c0.269-0.295,0.61-0.67,0.887-1.004c-5.983-0.846-7.691-5.394-7.767-7.905
	c-0.603-2.358,0.026-4.753,0.534-6.686c0.216-0.824,0.509-1.939,0.44-2.32c-1.217-1.218-1.81-2.669-1.716-4.202
	c0.147-2.402,1.944-4.466,3.043-5.514c-3.517-6.156-4.563-10.127-3.294-12.455c0.547-1.005,1.404-1.512,2.249-1.772
	c-2.26-1.982-3.223-3.857-2.937-5.7c0.239-1.537,1.305-2.592,2.306-3.262c-1.893-1.91-2.98-4.608-3.043-7.671
	c-0.057-2.764,0.73-5.301,2.061-6.833c-0.164-0.188-0.346-0.394-0.519-0.589c-2.447-2.765-6.543-7.393-5.257-10.914
	c0.535-1.463,1.877-2.459,3.999-2.969c-0.06-2.154,0.085-7.446,1.366-12.355l2.432,1.349c-1.562,5.988-1.259,11.879-1.254,11.941
	l0.082,1.157l-1.147,0.169c-1.232,0.181-2.775,0.599-3.129,1.566c-0.775,2.122,3.118,6.521,4.781,8.399
	c1.375,1.554,1.839,2.078,1.448,2.946l-0.332,0.737l-0.401,0.013c-0.884,0.855-1.68,2.844-1.629,5.333
	c0.029,1.419,0.428,4.933,3.5,6.921l2.191,1.419l-2.478,0.817c-0.591,0.2-2.328,1.038-2.506,2.215
	c-0.176,1.158,1.071,2.77,3.51,4.536c0.428,0.311,1.318,0.955,1.018,1.949c-0.292,0.967-1.26,1.006-1.9,1.031
	c-0.969,0.039-1.868,0.127-2.215,0.764c-0.382,0.701-0.778,3.164,3.773,10.887l0.563,0.956l-0.882,0.673
	c-0.769,0.591-2.793,2.539-2.904,4.415c-0.05,0.834,0.288,1.592,1.031,2.317c1.112,1.087,0.674,2.753,0.167,4.682
	c-0.465,1.772-0.993,3.782-0.5,5.539l0.046,0.338c0.006,0.517,0.234,5.126,6.156,5.666c1.283,0.117,1.78,0.728,1.971,1.219
	c0.49,1.26-0.563,2.417-1.896,3.881c-0.654,0.719-2.016,2.215-1.98,2.739c2.036,6.139,6.381,8.892,6.425,8.919l1.094,0.68
	l-0.708,1.075c-0.29,0.438-0.219,0.496,0.018,0.688c1.061,0.858,4.25,1.4,7.936,1.326c4.192-0.074,6.638-0.824,7.016-1.21
	c-0.001,0.001-0.035,0.036-0.067,0.11l2.287,1.01c0,0.001,0,0.001,0,0.001c-1.125,2.547-0.892,3.102-0.881,3.124
	c0.167,0.148,1.072,0.251,1.671,0.319c1.946,0.222,4.886,0.556,7.154,3.443c1.038,1.32,2.237,0.897,5.313-1.044
	c2.393-1.509,5.373-3.39,7.821-1.083c3.822,3.604,8.688,2.356,12.243,1.447l0.771-0.195c1.833-0.451,3.366,0.08,4.379,0.433
	c0.14,0.049,0.306,0.106,0.454,0.153c0.02-0.147,0.037-0.35,0.044-0.625l0.087-3.44l2.141,2.694c2.734,3.44,3.867,3.821,4.228,3.826
	c0.046-0.004,0.082,0.001,0.173-0.108c1.541-1.85,4.654-4.965,8.195-5.035c1.801-0.044,3.439,0.721,4.819,2.252
	c1.645,1.821,10.729-0.878,13.715-1.767c2.764-0.821,3.191-0.948,3.82-0.481l0.502,0.375l0.009,0.469
	c0.18,0.617,0.413,1.027,0.662,1.162c0.519,0.28,1.814-0.154,3.066-0.571c2.247-0.749,5.32-1.778,8.79-0.73
	c7.962,2.397,14.878-3.82,14.938-3.886l0.938-1.023l0.933,1.025c0.522,0.254,2.721-0.981,3.901-1.646
	c2.407-1.354,4.895-2.756,6.927-2.012c0.592,0.216,1.083,0.588,1.47,1.11c1.299-1.602,3.62-5.738,4.522-7.884
	c-0.64-0.133-1.272-0.455-1.578-1.187c-0.786-1.879,1.479-4.203,6.855-8.704c0.466-0.39,0.976-0.816,1.279-1.086v-0.575l1.051-0.17
	c1.127-0.182,4.289-2.473,4.987-5.022c0.366-1.336-0.053-2.482-1.279-3.506c-2.006-1.674-0.89-4.573,0.189-7.377
	c1.468-3.814,2.338-6.649,0.157-8.405c-2.839-2.284-2.61-4.787-2.221-6.075c0.511-1.692,2.016-3.447,3.181-3.783
	c0.478-0.62,0.19-1.948-0.262-3.703c-0.546-2.121-1.226-4.761,0.996-5.948c0.925-0.495,1.022-0.917,1.055-1.056
	c0.248-1.073-1.166-3.032-2.534-4.928c-2.312-3.203-5.189-7.189-3.581-11.357c0.685-1.772,0.669-3.407-0.046-4.858
	c-0.562-1.142-1.438-1.947-2.095-2.406l-0.837,1.955l-1.306-4.062l0.474-0.355c1.118-2.786,2.518-5.999,2.178-9.342l1.286-1.762
	c0.349,3.427,0.198,8.264-0.833,11.208c0.263,0.16,0.552,0.361,0.872,0.612c1.164,0.914,4.794,4.329,2.639,9.911
	c-1.12,2.904,1.114,6,3.276,8.995c1.85,2.562,3.446,4.774,2.942,6.954c-0.256,1.105-1.033,2.013-2.312,2.697
	c-0.489,0.261-0.064,1.914,0.246,3.12c0.582,2.262,1.307,5.077-0.979,6.599l-1.15,0.767c-0.413,0.496-0.846,1.218-0.929,2.014
	c-0.106,1.021,0.387,1.956,1.507,2.858c3.77,3.034,1.942,7.783,0.608,11.25c-0.691,1.797-1.552,4.034-0.922,4.56
	c1.973,1.644,2.715,3.806,2.09,6.086c-0.88,3.213-4.296,6.046-6.51,6.715c-0.323,0.314-0.828,0.737-1.614,1.396
	c-1.273,1.067-4.828,4.042-5.844,5.549c0.101-0.004,0.216-0.011,0.349-0.023c0.707-0.06,1.32,0.41,1.45,1.111
	c0.201,1.094-1.308,4.105-2.609,6.439c-2.959,5.305-4.143,5.632-4.588,5.755c-0.827,0.224-1.622-0.191-1.932-1.021
	c-0.222-0.593-0.475-0.686-0.559-0.716c-0.945-0.348-3.2,0.918-4.843,1.843c-2.117,1.191-4.294,2.419-5.929,1.855
	c-2.419,1.967-9.256,6.143-16.73,3.888c-2.707-0.813-5.134-0.004-7.276,0.709c-1.919,0.642-3.574,1.192-5.045,0.4
	c-0.663-0.358-1.176-0.944-1.553-1.778c-0.448,0.126-1.014,0.294-1.541,0.45c-6.872,2.044-13.788,3.809-16.283,1.044
	c-0.885-0.981-1.813-1.427-2.913-1.427c-1.861,0.037-4.166,1.545-6.324,4.137C93.556,186.582,92.835,186.93,92.018,186.93z"/>
</svg>
