<?xml version="1.0" encoding="utf-8"?>
<!-- Generator: Adobe Illustrator 16.0.0, SVG Export Plug-In . SVG Version: 6.00 Build 0)  -->
<!DOCTYPE svg PUBLIC "-//W3C//DTD SVG 1.1//EN" "http://www.w3.org/Graphics/SVG/1.1/DTD/svg11.dtd">
<svg version="1.1" id="Layer_1" xmlns="http://www.w3.org/2000/svg" xmlns:xlink="http://www.w3.org/1999/xlink" x="0px" y="0px"
	 width="200px" height="200px" viewBox="0 0 200 200" enable-background="new 0 0 200 200" xml:space="preserve">
<path fill="#020202" d="M141.512,97.696c6.719,35.3-17.188,44.628-38.39,44.628c-38.391,0-38.391-19.979-38.391-44.628
	c0-5.8-11.704-28.873,38.391-38.599C142.663,51.419,136.9,73.484,141.512,97.696z M111.332,114.432
	c3.016,3.756,27.541-10.699,26.816-7.91c4.031-7.88-6.59-43.358-7.521-43.6c-5.054-7.262-54.371,14.64-54.371,14.64
	S111.996,115.594,111.332,114.432z M75.94,133.825c2.132,6.739,23.759,2.459,24.303,2.459c1.964-4.845,20.128,1.343,18.715,1.343
	c1.429,1.211,18.123-15.99,17.41-15.99c12.087-11.506-4.976-9.691-5.17-10.295c-0.903,3.029-19,4.844-19,4.844
	c-0.438,6.733-35.94-35.015-35.94-35.015C57.064,79.96,75.229,133.143,75.94,133.825z"/>
<path fill="#020202" d="M13.191,57.545c0,0,36.165-60.352,102.866-47.396c0-0.479,62.342,7.566,71.938,47.396
	c-0.479,0.479-11.937,16.183-11.937,16.183s-21.632-52.308-68.943-49.085c-0.488,0-66.81,3.812-79.398,45.971
	C27.717,70.614,5.942,67.099,13.191,57.545z"/>
<path d="M92.017,186.93c-1.57,0-3.188-1.331-4.686-2.983c-0.357,0.41-0.845,0.616-1.461,0.616c-0.54,0-1.07-0.185-1.632-0.38
	c-0.868-0.302-1.937-0.621-2.958-0.366l-0.75,0.189c-1.809,0.463-4.06,1.038-6.492,1.038c-3.191,0.001-5.911-1.038-8.085-3.088
	c-0.289-0.271-0.581-0.393-0.946-0.393c-1.021,0-2.448,0.9-3.828,1.771c-1.712,1.08-3.483,2.197-5.285,2.198
	c-1.31,0-2.429-0.58-3.328-1.724c-1.623-2.066-3.667-2.299-5.471-2.504c-1.401-0.159-2.849-0.324-3.559-1.562
	c-0.362-0.631-0.452-1.396-0.252-2.421c-2.372,0.581-5.307,0.649-6.537,0.649c-3.06,0-8.393-0.371-9.727-2.856
	c-0.207-0.385-0.442-1.063-0.218-1.932c-1.578-1.239-4.827-4.308-6.594-9.645c-0.589-1.777,1.057-3.586,2.51-5.183
	c0.269-0.295,0.61-0.67,0.887-1.004c-5.983-0.846-7.691-5.394-7.767-7.905c-0.603-2.358,0.026-4.753,0.534-6.686
	c0.216-0.824,0.509-1.939,0.44-2.32c-1.217-1.218-1.81-2.669-1.716-4.202c0.147-2.402,1.944-4.466,3.043-5.514
	c-3.517-6.156-4.563-10.127-3.294-12.455c0.547-1.005,1.404-1.512,2.249-1.772c-2.26-1.982-3.223-3.857-2.937-5.7
	c0.239-1.536,1.305-2.592,2.306-3.262c-1.893-1.91-2.98-4.608-3.043-7.671c-0.057-2.764,0.73-5.301,2.061-6.833
	c-0.164-0.188-0.346-0.394-0.519-0.589c-2.447-2.765-6.543-7.393-5.257-10.914c0.535-1.463,1.877-2.459,3.998-2.969
	c-0.103-3.574,0.062-14.728,5.682-20.766c3.157-3.391,7.486-4.617,12.848-3.589c0.014-0.402,0.024-0.868,0.035-1.328
	c0.163-6.958,0.595-25.443,12.73-25.443c1.223,0,2.541,0.197,3.916,0.586l0.111,0.031c0.965-0.181,4.067-1.671,6.821-2.993
	c6.47-3.106,15.26-7.327,21.039-7.578c0.792-0.536,2.455-1.17,5.941-1.933c2.503-0.547,7.604-1.466,13.634-1.466
	c8.027,0,19.058,1.657,26.032,9.549c0.071,0.037,0.529,0.212,2.352,0.212c0.765,0,1.642-0.027,2.614-0.057
	c1.241-0.038,2.636-0.08,4.151-0.08c7.78,0,19.277,1.074,29.7,10.268c2.226,0.201,7,4.037,9.737,6.639
	c2.818,2.678,7.588,7.826,7.863,12.219c0.144,2.283-0.822,5.112-5.946,6.174c0.202,0.506,0.47,1.121,0.719,1.695
	c2.101,4.834,5.934,13.657,2.823,22.481c0.946,0.566,2.012,1.508,2.775,2.621c1.104,1.611,2.13,4.289,0.738,7.893
	c-1.12,2.904,1.114,6,3.276,8.995c1.85,2.562,3.446,4.774,2.942,6.953c-0.256,1.106-1.033,2.014-2.312,2.698
	c-0.489,0.261-0.064,1.914,0.246,3.12c0.582,2.262,1.307,5.077-0.979,6.599l-1.15,0.767c-0.413,0.496-0.846,1.218-0.929,2.014
	c-0.106,1.021,0.387,1.956,1.507,2.858c3.77,3.034,1.942,7.783,0.608,11.25c-0.691,1.797-1.552,4.033-0.922,4.56
	c1.973,1.644,2.715,3.806,2.09,6.086c-0.88,3.213-4.296,6.046-6.51,6.715c-0.323,0.314-0.828,0.737-1.614,1.396
	c-1.273,1.067-4.827,4.042-5.843,5.549c0.108-0.004,0.224-0.012,0.348-0.023l0.131-0.007c0.652,0,1.346,0.496,1.346,1.414
	c0,1.459-2.537,5.972-2.826,6.481c-3.107,5.478-4.237,5.479-4.844,5.479c-0.668,0-1.237-0.415-1.485-1.082
	c-0.266-0.712-0.574-0.77-0.921-0.77c-1.107,0-2.899,1.008-4.48,1.896c-1.816,1.022-3.532,1.987-4.99,1.987
	c-0.356,0-0.666-0.057-0.932-0.146c-1.884,1.521-6.608,4.562-12.251,4.562c-1.527,0-3.037-0.222-4.486-0.659
	c-0.761-0.229-1.525-0.341-2.338-0.341c-1.791,0-3.464,0.559-4.939,1.05c-1.267,0.423-2.361,0.788-3.406,0.788
	c-1.467,0-2.535-0.728-3.189-2.168c-0.44,0.125-1.01,0.294-1.54,0.452c-3.099,0.921-8.285,2.464-11.965,2.464
	c-2.045,0-3.458-0.465-4.319-1.42c-0.867-0.96-1.797-1.428-2.843-1.428c-1.875,0-4.206,1.509-6.395,4.138
	C93.557,186.581,92.834,186.93,92.017,186.93z M85.645,177.909l2.141,2.694c2.744,3.453,3.874,3.826,4.231,3.826
	c0.042,0,0.08,0,0.169-0.108c1.566-1.881,4.729-5.037,8.315-5.037c1.769,0,3.35,0.759,4.698,2.254
	c0.161,0.179,0.724,0.594,2.464,0.594c3.315,0,8.283-1.478,11.252-2.36c1.863-0.554,2.53-0.745,2.988-0.745
	c0.7,0,1.166,0.453,1.304,0.97l0,0c0.366,1.38,0.796,1.388,1.144,1.388c0.002,0,0.004,0,0.006,0c0.64,0,1.6-0.32,2.616-0.659
	c1.574-0.525,3.533-1.179,5.73-1.179c1.046,0,2.076,0.15,3.061,0.448c1.215,0.366,2.48,0.552,3.764,0.552
	c5.794,0,10.542-3.748,11.175-4.438l0.938-1.023l0.933,1.025c0.003,0.005,0.039,0.021,0.137,0.021c0.803,0,2.377-0.885,3.766-1.666
	c1.938-1.091,3.943-2.218,5.705-2.218c1.123,0,2.048,0.461,2.688,1.319c1.3-1.6,3.625-5.744,4.527-7.891
	c-1.007-0.209-1.434-0.773-1.611-1.264c-0.677-1.862,1.682-4.265,6.887-8.622c0.466-0.391,0.976-0.817,1.279-1.087v-0.575
	l1.051-0.17c1.127-0.182,4.289-2.473,4.987-5.022c0.366-1.336-0.053-2.482-1.279-3.506c-2.006-1.674-0.89-4.573,0.189-7.377
	c1.468-3.814,2.338-6.649,0.157-8.405c-2.961-2.383-2.61-4.987-2.138-6.328c0.576-1.637,1.981-3.194,3.094-3.524
	c0.483-0.618,0.195-1.948-0.258-3.709c-0.546-2.121-1.226-4.761,0.996-5.948c0.925-0.495,1.022-0.917,1.055-1.056
	c0.248-1.073-1.166-3.032-2.534-4.928c-2.312-3.203-5.189-7.189-3.581-11.357c0.685-1.772,0.669-3.407-0.046-4.858
	c-0.561-1.14-1.436-1.944-2.091-2.404l-0.812,1.913l-1.419-4.282l0.62-0.255c3.154-8.082-0.545-16.597-2.551-21.213
	c-0.848-1.953-1.256-2.926-1.256-3.697v-1.103l1.094-0.138c5.231-0.659,5.204-2.854,5.195-3.574
	c-0.073-5.801-12.577-16.066-15.16-16.693l-0.549,0.311l-0.669-0.605c-9.892-8.955-20.966-9.991-28.436-9.991
	c-1.488,0-2.856,0.042-4.075,0.079c-3.585,0.109-5.835,0.222-6.915-0.999c-6.356-7.194-16.646-8.705-24.159-8.705
	c-8.698,0-15.996,1.984-17.798,2.768v0.619h-1.25c-5.191,0-14.031,4.244-20.485,7.343c-4.582,2.2-6.838,3.257-8.045,3.257
	c-0.352,0-0.626-0.083-0.837-0.196c-1.084-0.292-2.108-0.44-3.047-0.44c-8.591,0-9.98,12.292-10.23,23.001
	c-0.069,2.951-0.095,4.055-1.489,4.055h-0.564l-0.149-0.159c-4.884-1.143-8.616-0.271-11.35,2.667
	c-5.876,6.312-4.978,19.86-4.968,19.996l0.083,1.158l-1.148,0.168c-1.232,0.181-2.775,0.599-3.129,1.566
	c-0.775,2.122,3.118,6.521,4.781,8.399c1.375,1.554,1.839,2.078,1.448,2.946l-0.332,0.737l-0.401,0.013
	c-0.884,0.855-1.68,2.844-1.629,5.333c0.029,1.419,0.428,4.933,3.5,6.921l2.191,1.419l-2.478,0.817
	c-0.591,0.2-2.328,1.038-2.506,2.215c-0.176,1.158,1.071,2.77,3.51,4.536c0.428,0.311,1.318,0.955,1.018,1.949
	c-0.292,0.967-1.26,1.006-1.9,1.031c-0.969,0.039-1.868,0.127-2.215,0.764c-0.382,0.701-0.778,3.164,3.773,10.887l0.563,0.956
	l-0.882,0.673c-0.769,0.591-2.793,2.539-2.904,4.415c-0.05,0.834,0.288,1.592,1.031,2.317c1.112,1.087,0.674,2.753,0.167,4.682
	c-0.465,1.772-0.993,3.781-0.5,5.539l0.046,0.338c0.006,0.517,0.234,5.126,6.156,5.666c1.283,0.117,1.78,0.728,1.971,1.219
	c0.49,1.26-0.563,2.417-1.896,3.881c-0.654,0.719-2.016,2.215-1.98,2.739c2.036,6.139,6.381,8.892,6.425,8.919l1.094,0.68
	l-0.708,1.075c-0.04,0.061-0.236,0.366-0.175,0.48c0.343,0.639,2.904,1.539,7.524,1.539c4.487,0,7.218-0.806,7.62-1.216
	c-0.001,0.001-0.035,0.036-0.067,0.11l2.287,1.01c-0.001,0.002-0.002,0.004-0.002,0.006c-1.123,2.543-0.89,3.097-0.879,3.119
	c0.167,0.148,1.072,0.251,1.671,0.319c1.946,0.222,4.886,0.556,7.154,3.443c0.535,0.681,1.009,0.769,1.361,0.769
	c1.079-0.001,2.54-0.922,3.951-1.812c1.681-1.061,3.418-2.156,5.162-2.156c1.009,0,1.904,0.361,2.66,1.073
	c1.719,1.62,3.803,2.407,6.371,2.407c2.118,0,4.2-0.532,5.873-0.96l0.77-0.195c0.47-0.116,0.955-0.175,1.44-0.175
	c1.193,0,2.202,0.352,2.939,0.607c0.14,0.049,0.306,0.106,0.454,0.153c0.02-0.147,0.037-0.35,0.044-0.625L85.645,177.909z"/>
</svg>
