<?xml version="1.0" encoding="utf-8"?>
<!-- Generator: Adobe Illustrator 16.0.0, SVG Export Plug-In . SVG Version: 6.00 Build 0)  -->
<!DOCTYPE svg PUBLIC "-//W3C//DTD SVG 1.1//EN" "http://www.w3.org/Graphics/SVG/1.1/DTD/svg11.dtd">
<svg version="1.1" id="Layer_1" xmlns="http://www.w3.org/2000/svg" xmlns:xlink="http://www.w3.org/1999/xlink" x="0px" y="0px"
	 width="200px" height="200px" viewBox="0 0 200 200" enable-background="new 0 0 200 200" xml:space="preserve">
<path fill="#020202" d="M185.759,100.876c3.802,82.106-15.68,73.79-86.216,74.978c-81.105,1.367-81.287-19.109-81.287-75.316
	c0-45.271-21.859-75.555,82.445-81.63C197.598,13.262,182.734,35.499,185.759,100.876z M24.04,81.91
	c-2.87,2.029-5.335,9.105,0.052,12.591c0,0-7.272,4.596,1.036,10.614c3.263,2.361-9.65-3.777,0.601,13.615
	c0,0-4.958,3.674-1.054,7.487c1.214,1.188-1.357,4.913-1.667,8.771c0,0-1.385,10.294,5.583,10.929
	c3.323,0.301,0.713,5.641,1.448,7.859c2.127,6.421,2.948,6.396,2.948,6.396c3.089,7.484,15.945,6.849,17.023,4.408
	c4.36,6.996,8.323,4.587,9.35,4.026c1.307-0.713,6.008-2.227,9.504,1.068c4.436,4.18,9.496-0.705,12.867-1.539
	c3.371-0.832,2.101,4.746,8.16,1.776c3.718-3.933,5.29,1.653,6.836-0.202c2.714-3.26,5.246-4.13,8.726-0.271
	c2.852,3.158,14.374-0.201,14.374,0.355c4.87,4.752,13.354-3.264,19.84-1.309c7.948,2.398,13.78,1.149,14.374,0.477
	c5.229,2.613,10.143-1.927,14.85-2.376c2.311-0.221,6.928-9.957,7.129-10.93c0.594-2.851,0.713-6.679,0.713-7.128
	c2.383-0.385,9.379-13.553,4.442-17.67c-2.923-2.437,5.453-10.959,0.315-15.094c-4.504-3.625-0.973-8.354-0.721-7.865
	c2.881-1.918-3.373-10.458-0.713-11.879c6.166-3.298-4.099-7.172-1.418-14.113c2.457-6.369-1.604-12.321-1.434-11.785
	c4.704-10.976-2.852-18.022-2.852-20.196c8.844-7.84-2.119-16.9-4.275-15.681c0-7.84-11.477-3.484-13.139-8.386
	c-2.543-7.499-8.397,3.935-12.521-0.642c-6.178-6.857-15.053,0.03-15.919-0.951c-4.849-5.487-13.067,2.139-18.058,0.951
	c-1.822-0.435-13.067-8.791-18.058,0c-6.89-6.89-14.255,9.979-19.958,2.376c-3.761-5.016-13.955,3.935-14.494,3.326
	c-8.891-2.515-18.057-4.277-21.621,3.089c-3.044,6.294-5.365,10.812-5.888,10.222c-6.693-1.682-1.715,7.359-5.992,9.023
	c-7.811,3.039-2.383,15.599-2.383,15.599C15.167,72.501,25.117,81.91,24.04,81.91z"/>
<path fill="#020202" d="M124.995,72.443c0,0-39.161,30.866-36.661,35.558c0,0,2.724,13.315,5.291,17.999
	c0.708,1.834,0.726,17.111-10.332,4.836c-0.019,0.703-16.589-16.292-15.351-17.673c-0.039,1.399,2.058-12.162,1.838-18.49
	c0.015-0.537-3.627-22.061,3.104-23.988C73.579,70,126.718,53.477,124.995,72.443z"/>
<path d="M91.626,182.74c-39.479,0-59.823-5.509-70.222-19.015c-10.248-13.309-10.248-34.13-10.248-62.948
	c0-7.504-0.561-14.547-1.104-21.357c-1.398-17.544-2.605-32.695,7.429-44.216c11.561-13.273,37.187-20.385,83.092-23.06
	c10.409-0.606,19.349-0.901,27.327-0.901c63.792,0,63.999,20.095,64.45,64.125c0.079,7.649,0.168,16.319,0.602,25.701
	c1.817,39.244-1.396,58.66-11.459,69.25c-11.344,11.938-30.588,12.027-62.471,12.176c-6.188,0.029-12.589,0.059-19.571,0.177
	C96.764,182.717,94.151,182.74,91.626,182.74z M127.901,14.243c-7.92,0-16.802,0.293-27.153,0.896
	c-45.034,2.624-70.017,9.419-81.004,22.035c-9.206,10.569-8.1,24.443-6.7,42.007c0.547,6.87,1.113,13.973,1.113,21.596
	c0,28.226,0,48.618,9.625,61.118c10.396,13.502,32.029,18.514,75.619,17.776c7.001-0.118,13.41-0.147,19.608-0.177
	c31.084-0.145,49.847-0.232,60.31-11.242c9.43-9.922,12.412-28.72,10.638-67.045c-0.437-9.436-0.526-18.134-0.605-25.809
	c-0.222-21.63-0.382-37.258-7.963-46.993C173.656,18.479,157.661,14.243,127.901,14.243z"/>
<path d="M105.854,132.128c-4.152,0-7.16-0.972-8.938-2.888l-0.142-0.152l-0.094-0.186c-0.791-1.546-3.086-6.58-4.761-11.464
	c-3.12-9.096-1.985-11.426-0.647-12.438c0.708-0.778,2.092-2.03,4.657-4.353c2.889-2.615,6.75-6.078,10.614-9.533
	c7.725-6.907,15.462-13.784,15.462-13.784l1.579-1.404l0.804,1.954c0.043,0.102,4.245,10.345,7.653,20.94
	c6.389,19.863,4.684,24.066,2.483,25.508l-0.029-0.045c-0.979,0.74-3.502,2.021-10.211,4.207
	C119.197,130.15,111.869,132.128,105.854,132.128z M99.25,127.337c1.22,1.188,3.44,1.791,6.604,1.791
	c9.495-0.001,23.958-5.623,26.558-6.986l0.004-0.016l0.465-0.304c0.114-0.076,2.74-2.076-3.694-22.082
	c-2.489-7.74-5.407-15.289-6.781-18.75c-11.744,10.445-28.143,25.102-29.083,26.145l-0.948-0.854l0.709,1.11
	C91.76,109.005,95.892,120.693,99.25,127.337z"/>
</svg>
