<?xml version="1.0" encoding="utf-8"?>
<!-- Generator: Adobe Illustrator 16.0.0, SVG Export Plug-In . SVG Version: 6.00 Build 0)  -->
<!DOCTYPE svg PUBLIC "-//W3C//DTD SVG 1.1//EN" "http://www.w3.org/Graphics/SVG/1.1/DTD/svg11.dtd">
<svg version="1.1" id="Layer_1" xmlns="http://www.w3.org/2000/svg" xmlns:xlink="http://www.w3.org/1999/xlink" x="0px" y="0px"
	 width="200px" height="200px" viewBox="0 0 200 200" enable-background="new 0 0 200 200" xml:space="preserve">
<path d="M81.649,134.341c-0.837,0-1.735-0.29-2.584-1.16c-1.362-1.394-3.223-0.393-3.241-0.383c-0.395,0.235-1.35,0.81-2.63,0.475
	c-0.863-0.226-1.671-0.826-2.413-1.789c-1.468,1.164-4.105,2.28-6.035,2.262c-1.225-0.014-2.213-0.436-2.882-1.211
	c-1.176,0.793-3.151,1.857-4.725,1.382c-0.541-0.164-1.24-0.571-1.646-1.569c-0.495,0.005-1.542,0.258-2.204,0.417
	c-1.122,0.271-2.183,0.53-2.969,0.45c-3.382-0.335-6.235-1.477-6.355-1.525l-0.675-0.272l0.023-0.322
	c-0.704,0.024-2.126,0.411-2.95,0.636c-2.028,0.552-3.366,0.914-3.826-0.232c-0.246-0.611-3.295-0.401-6.502,0.717l-0.19,0.046
	c-2.973,0.419-4.357-1.776-5.585-3.709c-0.871-1.371-1.693-2.666-3.006-3.232c-1.021-0.438-2.019-2.173-1.239-7.799
	c-0.719-0.129-1.103-0.637-1.238-0.857c-0.906-1.478-0.055-4.541,1.214-5.628c0.01-0.042,0.021-0.088,0.033-0.137
	c0.215-0.88,0.639-2.619,2.67-4.065c-0.437-1.391-0.938-3.561-0.263-4.67c0.266-0.437,0.688-0.713,1.188-0.778l0.26,1.982
	c0.13-0.017,0.24-0.12,0.265-0.173c-0.194,0.413,0.134,2.186,0.687,3.719l0.285,0.788l-0.727,0.419
	c-1.895,1.089-2.225,2.443-2.423,3.253c-0.093,0.381-0.25,1.022-0.774,1.274c-0.554,0.597-0.958,2.348-0.75,2.893
	c0.066-0.013,0.176-0.045,0.339-0.123l1.74-0.832l-0.323,1.902c-0.537,3.158-0.578,6.513-0.086,7.038
	c1.812,0.768,2.887,2.46,3.835,3.954c1.208,1.903,1.983,2.979,3.528,2.812c1.799-0.62,6.99-2.164,8.619-0.062
	c0.433-0.073,1.169-0.274,1.742-0.43c2.48-0.676,4.051-1.031,4.961-0.281c0.167,0.138,0.298,0.304,0.389,0.491
	c0.907,0.319,3.006,0.984,5.328,1.214c0.448,0.053,1.479-0.204,2.303-0.403c1.961-0.475,3.989-0.963,4.472,0.62
	c0.145,0.476,0.344,0.536,0.429,0.562c0.852,0.263,2.771-0.86,3.802-1.699l1.074-0.873l0.493,1.293
	c0.238,0.628,0.675,0.939,1.415,1.009c2.098,0.188,5.125-1.638,5.509-2.263l0.771-1.902l1.004,1.818
	c0.812,1.413,1.488,1.842,1.912,1.953c0.464,0.121,0.841-0.104,1.065-0.236c0.922-0.545,3.663-1.436,5.732,0.682
	c0.75,0.77,2.408-0.057,4.003-0.908l-0.001,2.566C83.856,133.783,82.811,134.341,81.649,134.341z"/>
<path d="M117.304,133.596c-1.308,0-2.889-0.22-4.562-0.769c-0.491-0.161-1.955-0.27-2.741-0.077l0.396-1.821
	c1.163-0.285,2.108-0.285,2.969-0.002c3.128,1.025,5.295,0.611,5.771,0.438l0.425-0.519l0.728,0.395
	c1.076,0.584,2.118,0.212,3.708-0.475c0.86-0.372,1.75-0.756,2.688-0.854c0.575-0.062,1.518,0.097,3.001,0.361
	c0.677,0.121,1.63,0.292,2.15,0.336c1.626-2.414,5.744-1.692,7.564-1.372c0.095,0.017,0.181,0.032,0.256,0.045
	c2.207-1.497,4.14-0.845,5.438-0.405c0.51,0.173,1.09,0.369,1.27,0.263c0.064-0.036,0.401-0.287,0.719-1.697
	c0-0.003,0.001-0.006,0.002-0.009l1.95,0.441c0.009-0.039,0.016,0.04,0.15,0.166c0.225,0.21,1.232,0.866,4.742,0.536
	c1.412-0.134,3.196-3.312,3.782-4.357c0.336-0.6,0.553-0.983,0.891-1.146c0.461-0.396,0.903-1.072,1.332-1.728
	c0.597-0.909,1.212-1.85,2.058-2.339c1.187-0.689,1.242-1.966,1.238-4.161c-0.002-1.44-0.005-3.072,0.554-4.645
	c0.896-2.522-0.154-3.631-0.199-3.677l-0.455-0.464l0.22-0.622c1.297-3.287-7.131-11.307-7.598-11.73c0,0,1.494,1.146,2.5,1.75
	c0.625,0.375,8.237,5.545,7.137,10.149c0.529,0.813,1.243,2.554,0.28,5.264c-0.442,1.245-0.44,2.631-0.438,3.971
	c0.004,2.257,0.008,4.591-2.234,5.895c-0.437,0.253-0.92,0.991-1.388,1.706c-0.555,0.846-1.128,1.721-1.899,2.308
	c-0.064,0.108-0.148,0.263-0.253,0.448c-1.497,2.668-3.181,5.165-5.339,5.368c-2.719,0.261-4.629,0.032-5.796-0.686
	c-0.27,0.46-0.59,0.786-0.976,1.002c-0.962,0.541-1.986,0.194-2.891-0.113c-1.216-0.41-2.366-0.799-3.822,0.272l-0.038,0.033
	c-0.394,0.331-0.753,0.268-1.537,0.131c-1.223-0.216-4.942-0.868-5.675,0.725c-0.438,0.955-1.492,0.769-4.047,0.311
	c-0.838-0.149-2.106-0.386-2.442-0.341c-0.632,0.065-1.346,0.374-2.102,0.7c-1.409,0.609-3.136,1.353-4.966,0.627
	C119.222,133.454,118.351,133.596,117.304,133.596z"/>
<path d="M115.537,96.954c-1.706,0-3.478-0.156-5.326-0.467l-0.438-1.952c4.855,0.819,9.885,0.474,13.778-1.008
	c0.593-0.464,1.805-0.396,5.328-0.137c3.641,0.268,11.218,0.827,12.443-0.857l1.022-0.461c1.116-0.254,3.433-1.523,6.781-2.446
	l1.75,0.5c-0.045,0.013-7.229,3.732-8.217,3.913c-2.015,2.037-7.509,1.818-13.927,1.345c-1.563-0.115-3.312-0.242-3.967-0.185
	l-0.281,0.11C121.684,96.408,118.726,96.954,115.537,96.954z"/>
<path d="M26.445,103.654c-6.422,0.001-10.545-1.601-12.285-4.779c-3.005-5.491,2.906-13.052,2.963-13.125l0.127,1.999
	c-0.799,1.034-3.454,6.294-1.335,10.165c1.652,3.021,6.691,4.247,14.564,3.548c5.51-0.501,7.797-4.979,7.819-5.024l0.846-1.7
	l0.923,1.659c0.019,0.027,3.115,4.651,17.87-0.395c0.396-0.267,0.985-0.225,3.441-0.057c4.943,0.34,16.449,1.13,21.104-2.172
	l0.01-0.011c0.169-0.179,0.643-0.546,1.382-0.092c0.255,0.157,0.853,0.524,1.915,0.899l0.335,2.18
	c-0.829-0.293-2.439-0.887-2.839-1.107c-5.397,3.442-16.576,2.674-22.044,2.299c-0.992-0.068-2.018-0.141-2.408-0.131l-0.055,0.019
	c-6.886,2.376-12.354,3.086-16.255,2.116c-1.505-0.375-2.512-0.944-3.163-1.454c-1.199,1.655-3.936,4.53-8.703,4.963
	C29.159,103.588,27.754,103.654,26.445,103.654z"/>
<path d="M17.282,85.417c0,0-2.11,10.243,18.087,9.073c2.787-2.508,5.866-4.764,5.866-4.764s14.495,13.937,18.954-1.673
	c-0.053-2.728,16.905,12.571,22.155-1.179c6,5.125,5.25,26.5,1.75,46c-0.927,5.164,19.75,1.5,25.25,0.25
	c0.949-0.216,5.781-36.792-3.703-47.329c4.901,4.995,11.968,13.965,18.937-0.001c1.692,7.629,15.74,4.688,18.118,1.423
	c0.142,0.09,8.327,2.852,8.327,2.852s20.679,16.383,32.943,16.178c0.557-0.203,10.034-3.549,10.034-3.549
	c-3.541-15.308-3.541-15.308-5.854-22.534c-7.478,1.663-19.742-4.783-28.407-4.225c-6.435-0.558-25.946-8.392-34.309-5.032
	c-0.558-0.542-17.78-4.927-21.153-1.62c0.527,0.52-18.473-3.524-20.958-1.223c-0.257-0.487-16.513-5.4-27.896-0.714
	c-0.235,0.785-15.286,0.227-18.631,3.572C33.666,71.99,20,76.529,17.282,85.417z"/>
</svg>
