<?xml version="1.0" encoding="utf-8"?>
<!-- Generator: Adobe Illustrator 16.0.0, SVG Export Plug-In . SVG Version: 6.00 Build 0)  -->
<!DOCTYPE svg PUBLIC "-//W3C//DTD SVG 1.1//EN" "http://www.w3.org/Graphics/SVG/1.1/DTD/svg11.dtd">
<svg version="1.1" id="Layer_1" xmlns="http://www.w3.org/2000/svg" xmlns:xlink="http://www.w3.org/1999/xlink" x="0px" y="0px"
	 width="200px" height="200px" viewBox="0 0 200 200" enable-background="new 0 0 200 200" xml:space="preserve">
<path d="M78.603,140.021c-0.76,0-1.536-0.271-2.28-1.033c-1.439-1.475-3.418-0.826-3.999-0.481c-0.356,0.213-1.208,0.72-2.309,0.434
	c-0.901-0.235-1.752-0.948-2.535-2.12c-1.21,1.161-4.083,2.589-6.318,2.589c-1.308-0.015-2.285-0.515-2.862-1.454
	c-1.003,0.729-3.234,2.147-4.843,1.654c-0.49-0.148-1.143-0.547-1.463-1.599c-0.271-0.208-1.911,0.188-2.792,0.4
	c-1.114,0.27-2.166,0.519-2.889,0.452c-3.416-0.338-6.293-1.488-6.414-1.537l-0.338-0.137l0.027-0.363
	c-0.332-0.407-2.725,0.244-3.747,0.521c-1.945,0.53-3.019,0.822-3.316,0.075c-0.52-1.291-4.63-0.523-7.383,0.435
	c-2.818,0.411-4.099-1.612-5.338-3.563c-0.902-1.422-1.836-2.892-3.342-3.54c-1.729-0.744-1.232-5.667-0.874-8.088
	c-0.857,0.121-1.278-0.376-1.441-0.641c-0.805-1.312,0.065-4.302,1.22-5.188l0.046-0.035c0.026-0.085,0.058-0.214,0.084-0.324
	c0.21-0.859,0.629-2.576,2.676-3.978c-0.604-0.654-1.545-1.905-1.346-3.16c0.078-0.492,0.313-0.926,0.703-1.298
	c-3.781-0.569-6.367-1.972-7.721-4.199c-3.059-5.03,1.298-12.323,1.784-13.106c1.323-4.236,5.927-10.286,20.299-15.18l0.038-0.013
	c2.533-2.37,10.132-2.871,15.181-3.204c1.667-0.11,3.386-0.223,3.896-0.367l0.015-0.052l0.221-0.091
	c10.683-4.398,25.867-0.7,28.904,0.642c2.256-1.435,10.189-0.353,18.159,0.889c1.455,0.227,2.839,0.442,3.326,0.476
	c3.727-3.28,19.482,0.519,22.089,1.59c6.115-2.303,17.166,0.676,26.063,3.075c3.946,1.064,7.355,1.984,9.398,2.161
	c4.204-0.275,9.306,1.069,14.24,2.369c5.637,1.485,10.962,2.89,14.938,2.003l0.445-0.099l0.14,0.435
	c2.394,7.48,2.394,7.48,6.055,23.307l0.101,0.436l-0.422,0.148c-0.098,0.034-9.788,3.454-10.354,3.662l-0.164,0.031
	c-0.082,0.001-0.164,0.002-0.246,0.002c-6.589,0-15.268-4.329-22.223-8.597c-0.1,0.254-0.244,0.501-0.434,0.737
	c0.171,0.072,0.411,0.15,0.606,0.213c0.935,0.303,2.216,0.716,2.804,1.961c0.448,0.949,0.392,2.169-0.176,3.723
	c0.466,0.614,1.376,2.29,0.358,5.15c-0.487,1.374-0.485,2.852-0.482,4.281c0.004,2.279,0.007,4.433-2.043,5.625
	c-0.558,0.323-1.069,1.103-1.609,1.928c-0.565,0.861-1.149,1.752-1.906,2.301l-0.012,0.009c-0.073,0.113-0.182,0.312-0.324,0.566
	c-0.922,1.644-2.839,5.063-5.098,5.277c-3.094,0.29-5.152-0.043-6.126-0.997c-0.283,0.694-0.633,1.138-1.076,1.388
	c-0.785,0.441-1.644,0.151-2.554-0.156c-1.275-0.431-2.718-0.919-4.455,0.373l-0.045,0.038c-0.217,0.185-0.397,0.151-1.153,0.019
	c-1.507-0.266-5.505-0.967-6.434,1.05c-0.268,0.585-1.076,0.471-3.597,0.021c-1.055-0.188-2.248-0.402-2.674-0.358
	c-0.735,0.076-1.509,0.411-2.327,0.765c-1.482,0.641-3.153,1.362-4.904,0.561c-1.042,0.497-3.821,0.748-7.156-0.345
	c-1.241-0.41-2.753,0.148-4.22,0.687c-1.948,0.714-3.959,1.453-5.479,0.003c-0.184,0.024-0.5,0.082-0.787,0.134
	c-2.498,0.456-5.252,0.833-6.343-0.479c-0.642-0.771-1.217-1.162-1.71-1.162c-0.006,0-0.012,0-0.019,0.001
	c-0.509,0.01-1.057,0.42-1.725,1.29c-0.177,0.231-0.391,0.364-0.635,0.395c-0.41,0.06-0.75-0.213-1.046-0.445
	c-0.552-0.436-0.886-0.699-1.652,0.182l-0.143,0.113c-1.952,1.037-2.71,0.342-3.32-0.458c-0.331-0.436-0.432-0.521-0.747-0.437
	c-0.381,0.103-0.856,0.361-1.36,0.637C80.805,139.432,79.722,140.021,78.603,140.021z M74.131,137.062
	c0.943,0,1.997,0.296,2.907,1.228c1.217,1.247,2.499,0.696,4.175-0.22c0.558-0.304,1.084-0.59,1.58-0.724
	c0.994-0.263,1.479,0.373,1.802,0.796c0.408,0.535,0.681,0.893,1.976,0.223c1.362-1.5,2.44-0.649,2.962-0.239
	c0.084,0.066,0.201,0.158,0.281,0.208c0.575-0.736,1.413-1.641,2.487-1.661c0.013,0,0.026-0.001,0.039-0.001
	c0.815,0,1.626,0.499,2.478,1.523c0.809,0.972,4.022,0.385,5.395,0.135c1.023-0.186,1.267-0.23,1.51-0.028l0.181,0.184
	c1.078,0.978,2.629,0.406,4.411-0.247c1.626-0.599,3.308-1.216,4.876-0.698c3.543,1.16,6.128,0.613,6.469,0.37l0.263-0.321
	l0.327,0.235c1.42,0.774,2.817,0.17,4.293-0.468c0.853-0.368,1.733-0.749,2.621-0.841c0.567-0.064,1.672,0.14,2.953,0.368
	c0.874,0.155,2.165,0.396,2.604,0.365c1.357-2.501,5.594-1.758,7.424-1.437c0.206,0.036,0.371,0.067,0.486,0.083
	c2.131-1.552,3.968-0.931,5.315-0.475c0.833,0.282,1.364,0.442,1.742,0.231c0.401-0.226,0.738-0.934,1.001-2.105
	c0.001-0.001,0.001-0.002,0.001-0.002l0.976,0.221c-0.001,0.001-0.001,0.002-0.001,0.002c0,0.004-0.044,0.298,0.247,0.61
	c0.403,0.436,1.641,1.117,5.375,0.76c1.736-0.164,3.547-3.393,4.319-4.771c0.373-0.665,0.511-0.911,0.729-0.979
	c0.563-0.454,1.063-1.218,1.548-1.957c0.607-0.927,1.182-1.802,1.944-2.244c1.551-0.901,1.549-2.604,1.545-4.759
	c-0.003-1.443-0.006-3.08,0.541-4.616c1.055-2.969-0.276-4.297-0.333-4.353l-0.241-0.231l0.119-0.315
	c0.552-1.399,0.656-2.48,0.31-3.213c-0.402-0.854-1.403-1.176-2.207-1.436c-0.754-0.244-1.466-0.474-1.466-1.176v-0.213l0.153-0.147
	c0.306-0.294,0.497-0.595,0.574-0.907c-4.105-2.568-7.524-5.046-9.418-6.469c-1.424-0.415-2.599-0.63-3.157-0.561
	c-4.442,1.216-6.117,1.64-6.805,1.751c-1.958,2.248-8.942,1.733-14.074,1.355c-1.845-0.136-3.927-0.29-4.43-0.154l-0.031,0.051
	l-0.158,0.062c-7.52,2.953-14.76,1.218-18.238,0.386c-0.849-0.203-1.729-0.411-1.944-0.374c-13.298,3.977-19.916,1.492-22.287,0.108
	c-5.297,3.666-17.024,2.859-22.707,2.468c-1.143-0.078-2.23-0.153-2.616-0.135l-0.135,0.047
	c-13.676,4.721-18.546,1.807-19.977,0.396c-0.942,1.463-3.694,4.911-8.933,5.387c-2.561,0.229-4.842,0.255-6.839,0.084
	c-0.754,0.341-1.176,0.769-1.256,1.274c-0.164,1.028,1.017,2.309,1.485,2.715l0.531,0.461l-0.609,0.351
	c-2.154,1.238-2.529,2.774-2.753,3.692c-0.099,0.404-0.208,0.854-0.573,0.982c-0.79,0.728-1.356,3.057-0.897,3.805
	c0.056,0.09,0.223,0.362,0.993-0.005l0.871-0.416l-0.162,0.951c-0.592,3.481-0.671,7.447,0.156,7.804
	c1.79,0.771,2.853,2.444,3.791,3.922c1.348,2.123,2.273,3.409,4.26,3.133c1.135-0.406,7.202-2.377,8.465-0.013
	c0.392-0.001,1.429-0.283,2.207-0.495c2.324-0.633,3.904-1,4.643-0.393c0.126,0.104,0.266,0.269,0.331,0.514
	c0.794,0.291,3.184,1.1,5.858,1.363c0.55,0.061,1.573-0.19,2.556-0.428c1.866-0.452,3.629-0.877,3.982,0.28
	c0.157,0.512,0.417,0.817,0.797,0.934c1.277,0.384,3.622-1.205,4.417-1.853l0.537-0.438l0.246,0.647
	c0.353,0.928,1.081,1.386,2.226,1.398c2.507,0.021,5.65-2.039,5.896-2.644l0.386-0.95l0.511,0.89
	c0.747,1.301,1.521,2.063,2.302,2.268c0.7,0.18,1.245-0.146,1.507-0.303C72.217,137.408,73.109,137.062,74.131,137.062z
	 M161.846,103.243c6.93,4.284,15.649,8.715,22.073,8.715c0.049,0,0.097,0,0.146-0.001c0.963-0.347,8.028-2.841,9.863-3.489
	c-3.481-15.049-3.571-15.411-5.796-22.365c-4.152,0.748-9.408-0.64-14.962-2.103c-4.856-1.28-9.885-2.603-13.996-2.339
	c-2.207-0.186-5.655-1.115-9.647-2.192c-8.378-2.26-19.855-5.355-25.622-3.039l-0.302,0.122l-0.233-0.227
	c-1.141-0.677-17.707-4.632-21.045-1.763c-0.207,0.405-0.265,0.396-4.17-0.212c-4.766-0.742-15.925-2.479-17.576-0.953L80.1,73.84
	l-0.251-0.477c-1.612-0.89-17.271-5.025-28.084-0.664c-0.342,0.334-1.325,0.424-4.585,0.639c-4.657,0.307-12.451,0.821-14.626,2.997
	l-0.082,0.082l-0.254,0.086c-14.044,4.783-18.457,10.574-19.685,14.589l-0.056,0.122c-0.047,0.074-4.655,7.434-1.809,12.11
	c1.979,3.25,7.079,4.534,15.157,3.816c5.963-0.542,8.479-5.433,8.504-5.482l0.424-0.846l0.46,0.826
	c0.028,0.049,3.306,5.255,19.172-0.19c0.271-0.201,0.755-0.176,3.258-0.003c5.615,0.386,17.258,1.187,22.188-2.377l0.037-0.042
	c0.285-0.3,0.62-0.095,0.762-0.007c2.095,1.288,8.398,3.853,21.648-0.109c0.387-0.131,0.999,0.007,2.466,0.358
	c3.364,0.806,10.346,2.476,17.535-0.303c0.437-0.372,1.563-0.331,5.163-0.066c4.442,0.327,11.878,0.875,13.317-1.103l0.276-0.379
	l0.246,0.157c0.714-0.141,3.699-0.935,6.402-1.669c0.08-0.031,0.171-0.055,0.271-0.074c0.729-0.198,1.431-0.391,2.054-0.562
	l0.244-0.067l0.199,0.157c0.031,0.025,0.514,0.405,1.354,1.034c3.523,1.036,8.05,3.251,9.505,5.455
	C161.619,102.317,161.798,102.786,161.846,103.243z M154.797,98.569c1.581,1.118,3.513,2.437,5.66,3.803
	C159.493,100.938,157.18,99.585,154.797,98.569z"/>
<path d="M12.053,90.947c0,0-2.179,10.577,18.675,9.369c2.878-2.59,6.057-4.919,6.057-4.919s14.965,14.391,19.57-1.727
	c-0.012-0.576,19.283,15.829,23.312-1.151c-0.264-0.385,18.995,13.814,23.618-1.181c1.151-0.384,12.357,14.42,19.552,0
	c1.747,7.877,16.252,4.84,18.707,1.469c0.146,0.093,8.598,2.945,8.598,2.945s21.352,16.916,34.015,16.705
	c0.575-0.212,10.36-3.665,10.36-3.665c-3.656-15.806-3.656-15.806-6.044-23.267c-7.721,1.716-20.384-4.938-29.33-4.363
	c-6.645-0.575-26.79-8.664-35.424-5.195c-0.576-0.561-18.358-5.087-21.841-1.673c0.544,0.537-19.074-3.639-21.639-1.263
	c-0.265-0.502-17.05-5.576-28.803-0.737c-0.242,0.81-15.783,0.234-19.236,3.688C28.97,77.083,14.86,81.77,12.053,90.947z"/>
<path d="M79.074,70.351c0,0,14.479,58.289-2.394,68.288c0,0,23.48,3.815,30.933,0c-0.02-0.325,16.6-43.137-3.516-64.63
	C103.623,73.935,98.272,69.199,79.074,70.351z"/>
</svg>
