<?xml version="1.0" encoding="utf-8"?>
<!-- Generator: Adobe Illustrator 16.0.0, SVG Export Plug-In . SVG Version: 6.00 Build 0)  -->
<!DOCTYPE svg PUBLIC "-//W3C//DTD SVG 1.1//EN" "http://www.w3.org/Graphics/SVG/1.1/DTD/svg11.dtd">
<svg version="1.1" id="Layer_1" xmlns="http://www.w3.org/2000/svg" xmlns:xlink="http://www.w3.org/1999/xlink" x="0px" y="0px"
	 width="200px" height="200px" viewBox="0 0 200 200" enable-background="new 0 0 200 200" xml:space="preserve">
<path d="M16.692,87.388c0,0-4.557,69.123,0,79.758c6.076,3.798,140.526,20.509,171.669,0c0.76-12.154,0.76-75.961-3.797-79.758
	C180.005,91.944,67.586,105.617,16.692,87.388z"/>
<path d="M132.53,58.763c-7.462,0-13.532-5.56-13.532-12.395c0-6.834,6.07-12.394,13.532-12.394c7.463,0,13.534,5.56,13.534,12.394
	C146.064,53.203,139.993,58.763,132.53,58.763z M132.53,35.975c-6.359,0-11.532,4.663-11.532,10.394
	c0,5.731,5.173,10.395,11.532,10.395c6.36,0,11.534-4.663,11.534-10.395C144.064,40.637,138.891,35.975,132.53,35.975z"/>
<path d="M43.285,81.551c-7.462,0-13.534-5.56-13.534-12.395c0-6.834,6.071-12.394,13.534-12.394c7.463,0,13.534,5.56,13.534,12.394
	C56.819,75.991,50.748,81.551,43.285,81.551z M43.285,58.763c-6.36,0-11.534,4.663-11.534,10.394
	c0,5.731,5.174,10.395,11.534,10.395s11.534-4.663,11.534-10.395C54.819,63.425,49.645,58.763,43.285,58.763z"/>
<path d="M75.798,58.763c-7.462,0-13.534-5.56-13.534-12.395c0-6.834,6.071-12.394,13.534-12.394s13.534,5.56,13.534,12.394
	C89.332,53.203,83.261,58.763,75.798,58.763z M75.798,35.975c-6.36,0-11.534,4.663-11.534,10.394
	c0,5.731,5.174,10.395,11.534,10.395S87.332,52.1,87.332,46.368C87.332,40.637,82.158,35.975,75.798,35.975z"/>
<path d="M172.969,96.373c-7.463,0-13.534-5.56-13.534-12.395s6.071-12.395,13.534-12.395c7.462,0,13.532,5.561,13.532,12.395
	S180.431,96.373,172.969,96.373z M172.969,73.583c-6.36,0-11.534,4.663-11.534,10.395c0,5.731,5.174,10.395,11.534,10.395
	c6.359,0,11.532-4.663,11.532-10.395C184.501,78.247,179.328,73.583,172.969,73.583z"/>
<path d="M140.101,62.099c-2.776,0-5.625-1.217-8.243-3.597l1.346-1.479c3.532,3.211,7.327,3.939,10.685,2.057
	c3.15-1.767,5.34-5.719,4.782-8.63c-0.333-1.74-1.626-2.808-3.737-3.09l0.264-1.982c2.96,0.395,4.942,2.106,5.438,4.696
	c0.729,3.805-1.806,8.528-5.769,10.751C143.344,61.677,141.734,62.099,140.101,62.099z"/>
<path d="M147.851,75.641c-0.905,0-1.87-0.055-2.9-0.173c-6.958-0.803-11.163-2.94-12.499-6.352c-1.797-4.593,2.381-9.532,2.56-9.74
	l1.519,1.303c-0.036,0.042-3.576,4.244-2.213,7.714c1.032,2.627,4.789,4.387,10.862,5.087c7.912,0.918,11.436-2.295,12.837-4.288
	c1.866-2.654,2.123-6.125,0.671-9.059c-1.617-3.265-5.023-5.232-9.346-5.398l0.076-1.998c5.078,0.195,9.11,2.567,11.062,6.508
	c1.778,3.591,1.461,7.843-0.827,11.097C158.186,72.427,154.796,75.641,147.851,75.641z"/>
<path d="M173.969,72.583h-2c0-2.696-0.756-4.584-2.246-5.612c-3.208-2.212-8.876-0.098-8.933-0.077l-0.711-1.869
	c0.272-0.105,6.711-2.505,10.779,0.3C172.922,66.748,173.969,69.19,173.969,72.583z"/>
<path d="M161.55,82.465l-1.869-0.711c0.814-2.14,0.836-3.935,0.064-5.336c-1.235-2.244-4.096-2.849-4.124-2.854l0.398-1.96
	c0.154,0.031,3.801,0.804,5.478,3.85C162.564,77.392,162.582,79.751,161.55,82.465z"/>
<path d="M142.581,94.262c-0.814-6.136,0.343-10.56,3.439-13.146c5.338-4.46,14.339-1.64,14.72-1.518l-0.61,1.904
	c-0.084-0.026-8.341-2.605-12.832,1.152c-2.532,2.119-3.452,5.936-2.734,11.345L142.581,94.262z"/>
<path d="M147.292,82.587l-1.758-0.955c0.613-1.128,0.756-2.167,0.438-3.176c-0.65-2.062-3.065-3.312-3.09-3.324l0.891-1.791
	c0.13,0.065,3.192,1.616,4.106,4.513C148.363,79.387,148.165,80.979,147.292,82.587z"/>
<path d="M139.971,88.828c-1.012,0-2.364-0.27-4.496-1.013l-0.122-0.052c-4.132-2.088-6.302-4.617-6.45-7.517
	c-0.262-5.148,6.092-9.279,6.362-9.453l1.079,1.684c-0.057,0.036-5.65,3.681-5.443,7.67c0.109,2.116,1.892,4.067,5.295,5.8
	c3.568,1.236,6.397,0.018,7.46-0.074l0.172,1.992c-0.74,0.064-1.155,0.243-1.637,0.45C141.516,88.608,140.882,88.828,139.971,88.828
	z"/>
<path d="M127.24,96.184c-2.058-1.483-3.142-3.309-3.222-5.425c-0.182-4.793,5.011-9.228,5.231-9.415l1.29,1.529
	c-0.047,0.04-4.671,3.997-4.522,7.814c0.058,1.488,2.18,3.568,3.732,4.688L127.24,96.184z"/>
<path d="M17.22,88.875c-0.043-0.313-0.997-7.73,3.455-12.211c2.654-2.671,6.608-3.686,11.751-3.02L33.5,75.5
	c-4.489-0.583-9.208,0.366-11.399,2.567c-3.756,3.771-2.908,10.472-2.898,10.539L17.22,88.875z"/>
<path d="M32.534,95.103l-0.472-1.943c4.149-1.007,6.682-2.709,7.529-5.059c1.303-3.615-1.717-7.727-1.748-7.768l1.604-1.195
	c0.151,0.203,3.689,5.026,2.026,9.642C40.383,91.8,37.376,93.927,32.534,95.103z"/>
<path d="M50.928,95.955L48.5,95.5c3.113-4.355,5.038-8.72,4.051-11.281c-1.101-2.857-7.354-4.309-6.426-4.344l2.355-1.239
	c0.181,0.04,4.453,1.012,5.937,4.863C55.675,86.765,54.501,90.956,50.928,95.955z"/>
<path d="M55.86,89.589c-1.811,0-2.783-1.002-2.849-1.073l1.46-1.366c0.047,0.043,1.553,1.436,4.831-1.013
	c2.968-3.455,4.074-6.375,3.287-8.679c-1.247-3.649-6.909-4.829-6.966-4.841l0.392-1.961c0.278,0.056,6.839,1.412,8.464,6.148
	c1.044,3.045-0.211,6.652-3.733,10.722l-0.151,0.142C58.656,89.141,57.071,89.589,55.86,89.589z"/>
<path d="M62.353,98.811c-0.123-0.272-2.97-6.729-0.031-11.401c1.771-2.816,5.195-4.306,10.175-4.43
	c7.829,0.36,8.292,8.178,8.515,11.936c0.033,0.567,0.189,1.477,0.239,1.835l-2.11-0.153c-0.055-0.398-0.088-0.935-0.125-1.564
	c-0.28-4.731-1.04-9.8-6.54-10.055c-4.198,0.107-7.068,1.283-8.461,3.497c-2.374,3.774,0.137,9.459,0.163,9.516L62.353,98.811z"/>
<path d="M89.303,96.831l-1.928,0.044c1.22-4.908,0.852-8.806-1.068-10.549c-3.256-2.954-10.106-0.575-10.174-0.552L73.75,84.5
	c-2.589,0.235,9.769-3.404,13.9,0.345C90.158,87.121,90.714,91.153,89.303,96.831z"/>
<path d="M71.522,84.026c-0.089-1.891-0.723-3.334-1.884-4.29c-2.358-1.943-6.19-1.407-6.227-1.401l-0.296-1.978
	c0.192-0.03,4.732-0.678,7.784,1.827c1.621,1.33,2.502,3.263,2.621,5.747L71.522,84.026z"/>
<path d="M54.904,62.661l-1.999-0.055c0.007-0.252,0.216-6.213,4.268-9.094c2.39-1.699,5.544-1.944,9.377-0.728l-0.604,1.906
	c-3.203-1.016-5.764-0.863-7.613,0.451C55.084,57.451,54.906,62.609,54.904,62.661z"/>
<path d="M69.556,79.01l-1.095-1.674c0.083-0.056,2.141-1.489,1.635-4.481c-1.328-3.388-3.232-5.52-5.662-6.336
	c-3.918-1.319-8.046,1.184-8.088,1.21l-1.055-1.699c0.199-0.124,4.942-3.021,9.765-1.412c3.049,1.019,5.384,3.578,6.941,7.606
	l0.051,0.179C72.857,76.795,69.69,78.921,69.556,79.01z"/>
<path d="M66.896,67.574c-0.013-0.188-0.292-4.658,2.658-7.824c1.847-1.982,4.507-2.987,7.907-2.987v2
	c-2.815,0-4.98,0.787-6.433,2.339c-2.358,2.519-2.139,6.296-2.137,6.334L66.896,67.574z"/>
<path d="M77.801,75.177l-0.681-1.881c6.209-2.247,9.571-4.842,9.722-7.506c0.197-3.474-5.048-6.857-7.086-7.867l0.889-1.792
	c0.347,0.172,8.505,4.283,8.194,9.772C88.636,69.479,84.922,72.6,77.801,75.177z"/>
<path d="M82.292,84.118c-1.614-11.483-10.729-10.589-11.116-10.541l-0.225-1.987c0.113-0.01,11.44-1.138,13.321,12.25L82.292,84.118
	z"/>
<path d="M93.434,89.047c-6.148,0-11.151-5.219-11.151-11.634c0-6.416,5.002-11.635,11.151-11.635c6.15,0,11.153,5.219,11.153,11.635
	C104.587,83.828,99.583,89.047,93.434,89.047z M93.434,67.778c-5.046,0-9.151,4.322-9.151,9.635c0,5.312,4.105,9.634,9.151,9.634
	c5.047,0,9.153-4.322,9.153-9.634C102.587,72.101,98.481,67.778,93.434,67.778z"/>
<path d="M95.164,97.136L93,96.75c0.111-0.171,3.263-4.91,8.026-5.52c3.423-0.44,8.279,1.751,11.849,5.02l-2.662,0.722
	c-3.109-2.847-6.111-4.114-8.913-3.76C97.462,93.692,95.187,97.102,95.164,97.136z"/>
<path d="M110.375,96.875c-0.292-0.206-9.894-7.018-9.123-12.521c0.47-3.348,3.601-6.051,9.308-8.036l0.136-0.037
	c5.531-1.079,8.625,3.189,10.112,5.241l-1.619,1.174c-1.845-2.544-4.141-5.189-8.041-4.465c-4.896,1.714-7.56,3.868-7.914,6.401
	c-0.502,3.574,8.558,10.916,10.267,12.118L110.375,96.875z"/>
<path d="M115.192,97.367c-2.765-2.236-4.027-5.101-3.558-8.064c0.532-3.351,3.219-6.412,6.845-7.799
	c3.618-1.385,7.375-0.81,10.309,1.575l-1.262,1.552c-2.363-1.921-5.4-2.38-8.332-1.258c-2.925,1.119-5.169,3.628-5.584,6.245
	c-0.358,2.26,1.423,4.84,3.64,6.633L115.192,97.367z"/>
<path d="M123.5,82.125c-0.021,0-3.603,0-3.625,0l-0.375-1.5c0.017,0,3.958-1.005,3.975-1.005c4.568,0,6.729-4.024,6.802-7.777
	c0.076-3.843-2.049-8.052-6.893-8.21c-3.479-0.115-6.083,0.821-7.761,2.776c-3.304,3.85-2.114,10.448-2.103,10.514l-1.965,0.368
	c-0.059-0.309-1.372-7.615,2.55-12.185c2.092-2.438,5.257-3.612,9.343-3.473c6.2,0.203,8.923,5.455,8.828,10.249
	C132.181,76.731,129.152,82.125,123.5,82.125z"/>
<path d="M98.048,67.867l-1.863-0.727c0.094-0.242,2.375-5.948,7.877-7.525c3.911-1.123,8.359,0.147,13.216,3.77l-1.195,1.604
	c-4.329-3.229-8.189-4.391-11.47-3.451C100.052,62.845,98.067,67.817,98.048,67.867z"/>
<path d="M120.262,63.588l-2.637-0.963c1.282-0.352,4.199-1.959,4.576-2.929c1.014-2.604-1.195-7.039-2.132-8.528l1.693-1.064
	c0.159,0.253,3.885,6.252,2.303,10.318C123.451,62,122.172,63.066,120.262,63.588z"/>
<path d="M111.792,61.223c-5.076,0-9.205-4.749-9.205-10.586c0-5.836,4.129-10.585,9.205-10.585s9.206,4.749,9.206,10.585
	C120.998,56.474,116.868,61.223,111.792,61.223z M111.792,42.052c-3.973,0-7.205,3.851-7.205,8.585c0,4.734,3.232,8.586,7.205,8.586
	c3.974,0,7.206-3.852,7.206-8.586C118.998,45.903,115.766,42.052,111.792,42.052z"/>
<path d="M93.951,67.489c-4.487,0-8.138-3.664-8.138-8.167c0-4.503,3.651-8.167,8.138-8.167c4.486,0,8.136,3.664,8.136,8.167
	C102.087,63.825,98.437,67.489,93.951,67.489z M93.951,53.155c-3.385,0-6.138,2.766-6.138,6.167s2.753,6.167,6.138,6.167
	c3.383,0,6.136-2.767,6.136-6.167S97.334,53.155,93.951,53.155z"/>
<path d="M99.106,54.461l-1.379-1.448c2.541-2.418,3.499-4.848,2.771-7.026c-0.758-2.269-3.346-4.094-6.294-4.438
	c-1.156-0.135-4.006-0.186-5.507,2.236l-1.7-1.053c1.46-2.358,4.245-3.54,7.439-3.17c3.691,0.431,6.964,2.812,7.958,5.791
	C102.962,47.047,103.286,50.483,99.106,54.461z"/>
<path d="M112.698,41.475l-1.812-0.846c0.492-1.055,0.344-1.991-0.456-2.861c-1.834-1.998-6.302-2.79-9.372-1.663
	c-1.59,0.584-3.51,1.923-3.631,4.986l-1.998-0.078c0.127-3.253,1.882-5.663,4.939-6.785c3.861-1.418,9.144-0.417,11.535,2.187
	C113.253,37.884,113.535,39.682,112.698,41.475z"/>
<polygon points="103.586,51.637 99.75,51.625 100.625,49.375 103.588,49.637 "/>
<rect x="86.345" y="51.773" transform="matrix(0.6189 0.7854 -0.7854 0.6189 74.8222 -48.6732)" width="2.454" height="2.001"/>
</svg>
