<?xml version="1.0" encoding="utf-8"?>
<!-- Generator: Adobe Illustrator 16.0.0, SVG Export Plug-In . SVG Version: 6.00 Build 0)  -->
<!DOCTYPE svg PUBLIC "-//W3C//DTD SVG 1.1//EN" "http://www.w3.org/Graphics/SVG/1.1/DTD/svg11.dtd">
<svg version="1.1" id="Layer_1" xmlns="http://www.w3.org/2000/svg" xmlns:xlink="http://www.w3.org/1999/xlink" x="0px" y="0px"
	 width="200px" height="200px" viewBox="0 0 200 200" enable-background="new 0 0 200 200" xml:space="preserve">
<path d="M8.887,85.925c0,0-4.883,74.059,0,85.452c6.511,4.068,150.559,21.973,183.926,0c0.813-13.021,0.813-81.384-4.069-85.452
	C183.862,90.807,63.416,105.456,8.887,85.925z"/>
<path d="M132.996,54.685c-7.68,0-13.927-5.701-13.927-12.708c0-7.007,6.247-12.707,13.927-12.707c7.681,0,13.929,5.7,13.929,12.707
	C146.925,48.984,140.677,54.685,132.996,54.685z M132.996,30.27c-7.128,0-12.927,5.252-12.927,11.707
	c0,6.456,5.799,11.708,12.927,11.708c7.129,0,12.929-5.252,12.929-11.708C145.925,35.521,140.125,30.27,132.996,30.27z"/>
<path d="M37.379,79.101c-7.68,0-13.929-5.702-13.929-12.71c0-7.006,6.249-12.706,13.929-12.706s13.928,5.7,13.928,12.706
	C51.307,73.399,45.059,79.101,37.379,79.101z M37.379,54.685c-7.129,0-12.929,5.251-12.929,11.706c0,6.457,5.8,11.71,12.929,11.71
	c7.128,0,12.928-5.253,12.928-11.71C50.307,59.936,44.507,54.685,37.379,54.685z"/>
<path d="M72.213,54.685c-7.68,0-13.928-5.701-13.928-12.708c0-7.007,6.248-12.707,13.928-12.707c7.681,0,13.929,5.7,13.929,12.707
	C86.142,48.984,79.894,54.685,72.213,54.685z M72.213,30.27c-7.128,0-12.928,5.252-12.928,11.707c0,6.456,5.8,11.708,12.928,11.708
	c7.129,0,12.929-5.252,12.929-11.708C85.142,35.521,79.342,30.27,72.213,30.27z"/>
<path d="M176.322,94.979c-7.681,0-13.929-5.701-13.929-12.708c0-7.007,6.248-12.708,13.929-12.708
	c7.679,0,13.926,5.701,13.926,12.708C190.248,89.279,184.001,94.979,176.322,94.979z M176.322,70.564
	c-7.129,0-12.929,5.252-12.929,11.708c0,6.456,5.8,11.708,12.929,11.708c7.127,0,12.926-5.252,12.926-11.708
	C189.248,75.816,183.449,70.564,176.322,70.564z"/>
<path d="M141.033,58.276c-2.377,0-5.254-0.885-8.373-3.721l0.672-0.74c5.372,4.882,9.894,3.523,12.111,2.279
	c3.632-2.037,6.057-6.457,5.405-9.853c-0.407-2.128-1.96-3.431-4.49-3.769l0.133-0.991c2.954,0.394,4.851,2.018,5.34,4.572
	c0.726,3.786-1.921,8.681-5.898,10.913C144.792,57.605,143.102,58.276,141.033,58.276z"/>
<path d="M149.406,72.768c-0.947,0-1.959-0.058-3.039-0.182c-7.228-0.833-11.576-3.002-12.924-6.445
	c-1.802-4.604,2.462-9.643,2.645-9.854l0.759,0.651c-0.041,0.047-4.056,4.799-2.471,8.842c1.204,3.069,5.276,5.025,12.106,5.813
	c8.769,1.011,12.712-2.594,14.286-4.833c2.12-3.015,2.412-6.957,0.763-10.288c-1.827-3.691-5.655-5.914-10.503-6.1l0.039-0.999
	c5.225,0.2,9.365,2.626,11.36,6.655c1.812,3.66,1.489,7.992-0.842,11.307C160.082,69.473,156.596,72.767,149.406,72.768z"/>
<path d="M176.822,70.064h-1c0-3.087-0.892-5.269-2.651-6.482c-3.68-2.539-10.035-0.17-10.1-0.146l-0.355-0.935
	c0.28-0.106,6.909-2.579,11.021,0.256C175.784,64.168,176.822,66.627,176.822,70.064z"/>
<path d="M163.555,80.446l-0.936-0.355c0.935-2.456,0.946-4.54,0.035-6.194c-1.45-2.633-4.772-3.336-4.806-3.343l0.199-0.979
	c0.155,0.031,3.812,0.806,5.482,3.84C164.59,75.337,164.598,77.703,163.555,80.446z"/>
<path d="M144.33,93.216c-0.845-6.368,0.328-10.934,3.485-13.572c5.482-4.578,14.836-1.646,15.231-1.52l-0.306,0.952
	c-0.093-0.03-9.23-2.889-14.287,1.337c-2.875,2.404-3.929,6.667-3.132,12.67L144.33,93.216z"/>
<path d="M148.31,80.507l-0.879-0.478c0.725-1.333,0.896-2.628,0.512-3.847c-0.781-2.474-3.573-3.885-3.602-3.899l0.445-0.896
	c0.13,0.065,3.201,1.619,4.109,4.494C149.366,77.37,149.169,78.926,148.31,80.507z"/>
<path d="M140.996,86.904c-0.986,0-2.381-0.267-4.657-1.06c-4.292-2.164-6.512-4.711-6.659-7.598
	c-0.264-5.189,6.275-9.439,6.554-9.618l0.539,0.842c-0.063,0.041-6.33,4.118-6.094,8.727c0.129,2.501,2.164,4.765,6.05,6.729
	c4.031,1.399,4.898,1.025,5.995,0.552c0.56-0.241,1.194-0.514,2.241-0.604l0.086,0.996c-0.887,0.076-1.417,0.305-1.931,0.526
	C142.51,86.659,141.94,86.904,140.996,86.904z"/>
<path d="M127.663,94.885c-2.055-1.48-3.137-3.287-3.216-5.369c-0.186-4.861,5.174-9.438,5.402-9.63l0.645,0.765
	c-0.052,0.044-5.216,4.458-5.048,8.83c0.068,1.758,1.011,3.303,2.801,4.593L127.663,94.885z"/>
<path d="M10.019,87.44c-0.044-0.324-1.031-8,3.541-12.602c2.711-2.729,6.785-3.763,12.111-3.072l-0.129,0.991
	c-5-0.648-8.793,0.289-11.273,2.786C10.041,79.799,11,87.231,11.01,87.306L10.019,87.44z"/>
<path d="M25.725,93.636l-0.236-0.972c4.644-1.127,7.493-3.073,8.47-5.783c1.499-4.159-1.917-8.811-1.952-8.857l0.802-0.598
	c0.155,0.208,3.77,5.135,2.091,9.794C33.801,90.266,30.714,92.424,25.725,93.636z"/>
<path d="M45.103,94.77l-0.813-0.581c3.498-4.895,4.693-8.883,3.553-11.857c-1.281-3.338-5.194-4.239-5.234-4.248l0.214-0.977
	c0.182,0.04,4.47,1.015,5.95,4.857C50.047,85.272,48.812,89.581,45.103,94.77z"/>
<path d="M50.843,87.715c-1.686,0-2.566-0.906-2.627-0.971l0.73-0.684c0.076,0.079,1.991,1.957,5.986-1.055
	c3.355-3.891,4.589-7.224,3.667-9.91c-1.451-4.229-7.825-5.543-7.89-5.556l0.195-0.98c0.285,0.057,7.004,1.444,8.64,6.211
	c1.049,3.056-0.26,6.733-3.891,10.929l-0.076,0.071C53.606,87.269,52.026,87.715,50.843,87.715z"/>
<path d="M58.329,97.929c-0.126-0.281-3.058-6.928-0.07-11.677c1.79-2.845,5.299-4.352,10.432-4.48
	c7.834,0.363,8.31,8.393,8.538,12.251c0.037,0.625,0.068,1.159,0.122,1.555l-0.99,0.136c-0.057-0.415-0.091-0.975-0.13-1.631
	c-0.228-3.841-0.651-10.99-7.551-11.311c-4.741,0.12-7.974,1.47-9.574,4.013c-2.706,4.3,0.107,10.67,0.136,10.734L58.329,97.929z"/>
<path d="M86.127,95.905l-0.971-0.241c1.362-5.477,0.924-9.278-1.299-11.298c-3.734-3.391-11.402-0.734-11.478-0.707l-0.334-0.942
	c0.337-0.12,8.306-2.883,12.482,0.907C87.047,85.91,87.585,90.042,86.127,95.905z"/>
<path d="M68.203,82.296c-0.104-2.198-0.856-3.885-2.234-5.016c-2.737-2.246-7.067-1.626-7.11-1.618l-0.148-0.989
	c0.196-0.029,4.817-0.69,7.893,1.834c1.606,1.318,2.48,3.25,2.599,5.741L68.203,82.296z"/>
<path d="M49.256,59.417l-1-0.027c0.007-0.259,0.222-6.371,4.334-9.293c2.407-1.71,5.617-1.945,9.542-0.701l-0.303,0.953
	c-3.61-1.146-6.524-0.957-8.661,0.563C49.459,53.548,49.257,59.359,49.256,59.417z"/>
<path d="M65.212,76.47l-0.548-0.836c0.109-0.072,2.661-1.814,1.985-5.479c-1.465-3.766-3.639-6.197-6.438-7.135
	c-4.464-1.497-9.094,1.325-9.141,1.354l-0.528-0.849c0.204-0.128,5.064-3.099,9.979-1.456c3.098,1.036,5.481,3.665,7.085,7.814
	C68.432,74.31,65.344,76.384,65.212,76.47z"/>
<path d="M63.246,64.656c-0.014-0.192-0.298-4.741,2.695-7.953c1.866-2.003,4.576-3.019,8.053-3.019v1
	c-3.189,0-5.652,0.909-7.322,2.7c-2.7,2.897-2.432,7.158-2.429,7.201L63.246,64.656z"/>
<path d="M74.164,72.306l-0.34-0.94c6.982-2.526,10.613-5.402,10.792-8.546c0.276-4.852-7.827-8.934-7.908-8.975l0.444-0.896
	c0.358,0.178,8.774,4.417,8.462,9.926C85.411,66.457,81.559,69.63,74.164,72.306z"/>
<path d="M79.737,82.342c-0.76-5.408-3.104-9.032-6.966-10.771c-2.878-1.297-5.548-1.011-5.574-1.01l-0.112-0.993
	c4.041-0.466,12.091,1.595,13.643,12.635L79.737,82.342z"/>
<path d="M91.108,87.132c-6.273,0-11.376-5.335-11.376-11.894s5.103-11.895,11.376-11.895c6.274,0,11.378,5.336,11.378,11.895
	S97.382,87.132,91.108,87.132z M91.108,64.344c-5.721,0-10.376,4.887-10.376,10.895c0,6.007,4.655,10.894,10.376,10.894
	c5.722,0,10.378-4.887,10.378-10.894C101.486,69.231,96.831,64.344,91.108,64.344z"/>
<path d="M92.483,96.057l-0.839-0.544c0.113-0.175,2.828-4.284,7.671-4.903c3.494-0.444,7.134,1.042,10.83,4.425l-0.676,0.737
	c-3.468-3.175-6.844-4.578-10.027-4.17C95.054,92.163,92.509,96.018,92.483,96.057z"/>
<path d="M106.632,93.559c-0.301-0.211-7.36-5.25-6.581-10.805c0.471-3.358,3.698-6.1,9.593-8.15
	c5.635-1.104,8.807,3.27,10.331,5.372l-0.811,0.587c-2.242-3.094-4.908-5.844-9.261-4.996c-5.442,1.898-8.447,4.369-8.862,7.324
	c-0.695,4.951,6.098,9.802,6.167,9.851L106.632,93.559z"/>
<path d="M114.779,96.173c-2.796-2.263-4.077-5.142-3.605-8.107c0.538-3.392,3.276-6.498,6.975-7.912
	c3.678-1.407,7.499-0.825,10.478,1.598l-0.631,0.776c-2.693-2.191-6.152-2.717-9.49-1.44c-3.318,1.269-5.867,4.137-6.344,7.135
	c-0.292,1.837,0.035,4.573,3.247,7.173L114.779,96.173z"/>
<path d="M123.298,79.174c-0.023,0-0.046,0-0.069,0l0.006-1c0.021,0,0.041,0,0.062,0c5.277,0,7.772-4.601,7.857-8.892
	c0.086-4.39-2.361-9.197-7.938-9.379c-3.888-0.118-6.848,0.939-8.764,3.17c-3.714,4.323-2.397,11.673-2.384,11.747l-0.982,0.184
	c-0.061-0.32-1.421-7.888,2.604-12.579c2.124-2.475,5.339-3.662,9.559-3.521c6.255,0.205,9.001,5.533,8.904,10.398
	C132.059,74.066,129.247,79.174,123.298,79.174z"/>
<path d="M95.519,64.803l-0.932-0.363c0.097-0.249,2.438-6.108,8.064-7.721c4.015-1.15,8.607,0.179,13.66,3.947l-0.598,0.802
	c-4.789-3.572-9.087-4.846-12.787-3.788C97.772,59.157,95.541,64.747,95.519,64.803z"/>
<path d="M119.701,59.875l-0.264-0.965c1.561-0.427,2.551-1.228,3.025-2.447c1.411-3.627-2.296-9.589-2.333-9.649l0.846-0.532
	c0.165,0.262,4.011,6.453,2.419,10.544C122.806,58.339,121.562,59.365,119.701,59.875z"/>
<path d="M110.777,57.319c-5.123,0-9.291-4.831-9.291-10.768c0-5.939,4.168-10.771,9.291-10.771c5.124,0,9.292,4.832,9.292,10.771
	C120.069,52.489,115.901,57.319,110.777,57.319z M110.777,36.781c-4.571,0-8.291,4.383-8.291,9.771c0,5.386,3.72,9.768,8.291,9.768
	c4.572,0,8.292-4.382,8.292-9.768C119.069,41.164,115.35,36.781,110.777,36.781z"/>
<path d="M91.663,64.034c-4.493,0-8.148-3.668-8.148-8.178c0-4.51,3.655-8.18,8.148-8.18c4.491,0,8.145,3.669,8.145,8.18
	C99.808,60.365,96.154,64.034,91.663,64.034z M91.663,48.676c-3.942,0-7.148,3.221-7.148,7.18c0,3.958,3.207,7.178,7.148,7.178
	c3.94,0,7.145-3.22,7.145-7.178C98.808,51.897,95.603,48.676,91.663,48.676z"/>
<path d="M96.792,50.234l-0.689-0.725c2.894-2.754,3.972-5.563,3.117-8.123c-0.88-2.634-3.848-4.748-7.218-5.141
	c-2.849-0.334-5.199,0.639-6.452,2.663l-0.851-0.526c1.445-2.333,4.216-3.505,7.418-3.129c3.742,0.436,7.053,2.828,8.051,5.817
	C100.855,43.129,100.828,46.392,96.792,50.234z"/>
<path d="M111.23,36.492l-0.906-0.423c0.628-1.345,0.431-2.588-0.586-3.694c-2.139-2.328-7.119-3.23-10.659-1.931
	c-1.867,0.686-4.123,2.258-4.264,5.856l-0.999-0.039c0.127-3.238,1.874-5.638,4.918-6.755c3.942-1.447,9.319-0.443,11.74,2.193
	C111.755,33.092,112.023,34.794,111.23,36.492z"/>
<rect x="99.308" y="46.049" width="2.678" height="1"/>
<rect x="83.514" y="48.339" transform="matrix(0.6189 0.7855 -0.7855 0.6189 70.6891 -48.0176)" width="2.63" height="1"/>
</svg>
