<?xml version="1.0" encoding="utf-8"?>
<!-- Generator: Adobe Illustrator 16.0.0, SVG Export Plug-In . SVG Version: 6.00 Build 0)  -->
<!DOCTYPE svg PUBLIC "-//W3C//DTD SVG 1.1//EN" "http://www.w3.org/Graphics/SVG/1.1/DTD/svg11.dtd">
<svg version="1.1" id="Layer_1" xmlns="http://www.w3.org/2000/svg" xmlns:xlink="http://www.w3.org/1999/xlink" x="0px" y="0px"
	 width="200px" height="200px" viewBox="0 0 200 200" enable-background="new 0 0 200 200" xml:space="preserve">
<path fill="#020202" stroke="#231F20" stroke-miterlimit="10" d="M196.105,89.396C185.4,68.55,128.764,61.768,128.764,61.919
	c-99.304-9.47-124.775,38.72-124.775,38.72c-3.604,10.303,3.545,7.7,5.201,6.984c-0.221,0.964-0.267,1.939-0.029,2.638
	c0.302,0.892,1.008,1.31,1.962,1.126c-0.384,2.577-1.09,8.854,0.967,9.74c1.839,0.791,2.968,2.568,4.06,4.29
	c1.347,2.122,2.74,4.315,5.441,4.315c0.241,0,0.493-0.017,0.85-0.078c0.039-0.012,3.887-1.344,6.639-1.344
	c0.913,0,2.062,0.152,2.354,0.879c0.088,0.219,0.315,0.479,0.903,0.479c0.647,0,1.718-0.292,2.958-0.63
	c1.389-0.378,2.964-0.807,3.95-0.807c0.502,0,0.63,0.111,0.651,0.134c0.028,0.03,0.029,0.099,0.026,0.151l-0.027,0.362l0.338,0.138
	c0.144,0.059,3.587,1.434,7.674,1.838c0.837,0.078,2.101-0.219,3.435-0.541c1.082-0.26,2.201-0.53,2.929-0.53
	c0.37,0,0.529,0.071,0.543,0.116c0.393,1.291,1.267,1.973,2.528,1.973c1.801,0,4.001-1.445,4.977-2.157
	c0.677,1.177,1.867,1.794,3.48,1.794c2.66,0,6.177-1.793,7.532-3.162c1.171,1.795,2.456,2.703,3.829,2.702
	c0.898,0,1.558-0.394,1.919-0.608c0.319-0.19,1.189-0.547,2.203-0.547c1.066,0,1.982,0.385,2.722,1.143
	c0.782,0.801,1.684,1.206,2.683,1.206c1.305,0,2.547-0.677,3.646-1.278c0.61-0.333,1.186-0.646,1.655-0.771
	c0.433-0.119,0.593,0.021,1.003,0.56c0.366,0.479,0.866,1.136,1.879,1.136c0.556,0,1.204-0.201,1.981-0.613l0.142-0.113
	c0.426-0.488,0.81-0.736,1.141-0.736c0.339,0,0.666,0.258,0.982,0.508c0.325,0.254,0.661,0.521,1.069,0.521
	c0.214,0,0.528-0.077,0.809-0.442c1.636-2.137,2.674-2.117,4.304-0.158c0.587,0.707,1.648,1.049,3.245,1.049
	c1.493,0,3.168-0.306,4.276-0.508c0.399-0.072,0.781-0.143,0.998-0.166c0.692,0.672,1.529,1,2.554,1c1.25,0,2.565-0.482,3.958-0.994
	c1.798-0.658,3.725-1.287,5.132-0.825c2.308,0.756,4.216,0.913,5.411,0.913c1.346,0,2.536-0.2,3.152-0.512
	c0.623,0.291,1.268,0.434,1.961,0.434c1.361,0,2.643-0.555,3.884-1.09c0.991-0.428,1.928-0.832,2.827-0.926
	c0.545-0.053,1.918,0.195,3.234,0.431c1.307,0.233,2.539,0.452,3.258,0.452c0.228,0,0.764,0,0.955-0.42
	c0.527-1.146,1.896-1.728,4.068-1.728c1.432,0,2.891,0.256,3.764,0.408c0.5,0.088,0.748,0.13,0.914,0.13l0.576-0.023v-0.248
	c0.909-0.648,1.799-0.963,2.713-0.963c1.232,0,2.307,0.588,3.172,1.06c0.676,0.368,1.209,0.659,1.727,0.659
	c0.759,0,1.095-0.611,1.254-1.123c0.372,0.062,0.924,0.099,1.754,0.099c1.509,0,3.652-0.13,6.37-0.387
	c2.659-0.251,4.944-4.326,6.044-6.285c0.148-0.267,0.314-0.562,0.404-0.704l0.027-0.02c0.895-0.646,1.59-1.709,2.264-2.736
	c0.656-1.001,1.275-1.947,1.966-2.346c2.411-1.402,2.407-3.961,2.403-6.668c-0.004-1.727-0.006-3.51,0.584-5.174
	c0.123-0.345,0.205-0.664,0.284-0.979c1.706,0.997,2.888,1.233,3.671,0.362C199.146,97.414,196.105,88.995,196.105,89.396z
	 M189.205,103.311c-0.65,1.828-0.646,3.783-0.645,5.511c0.004,2.62,0.008,4.69-1.904,5.801c-0.896,0.519-1.577,1.56-2.301,2.663
	c-0.592,0.904-1.203,1.836-1.9,2.39c-0.235,0.067-0.381,0.327-0.83,1.13c-0.938,1.668-3.128,5.576-5.266,5.777
	c-2.688,0.254-4.799,0.383-6.276,0.383c-1.123,0-1.59-0.076-1.761-0.117l-0.605-1.121l-0.247,1.42
	c-0.056,0.315-0.18,0.845-0.396,0.845c-0.262,0-0.739-0.261-1.246-0.537c-0.913-0.499-2.163-1.183-3.65-1.183
	c-1.15,0-2.293,0.412-3.398,1.225c-0.148-0.02-0.402-0.064-0.633-0.104c-0.904-0.16-2.418-0.425-3.936-0.425
	c-2.502,0-4.148,0.722-4.896,2.145c-0.031,0.002-0.073,0.004-0.129,0.004c-0.629,0-1.875-0.224-3.08-0.438
	c-1.482-0.265-2.879-0.504-3.516-0.439c-1.052,0.107-2.104,0.562-3.119,1.002c-1.147,0.494-2.334,1.008-3.488,1.008
	c-0.623,0-1.197-0.146-1.754-0.449l-0.336-0.225l-0.263,0.318c-0.151,0.116-1.082,0.435-2.761,0.435c-1.123,0-2.919-0.149-5.1-0.865
	c-0.453-0.149-0.949-0.224-1.473-0.224c-1.421,0-2.893,0.539-4.316,1.062c-1.306,0.479-2.541,0.933-3.612,0.933
	c-0.788,0-1.396-0.246-1.91-0.771c-0.089-0.129-0.251-0.236-0.522-0.236c-0.235,0-0.607,0.064-1.299,0.191
	c-1.074,0.195-2.695,0.491-4.097,0.491c-1.247,0-2.103-0.238-2.476-0.688c-1.004-1.207-1.953-1.794-2.899-1.794
	c-1.299,0-2.315,1.132-2.977,2.033c-0.084-0.015-0.309-0.19-0.457-0.308c-0.386-0.305-0.914-0.721-1.601-0.721
	c-0.621,0-1.221,0.329-1.831,1.008c-0.585,0.303-1.067,0.455-1.433,0.455c-0.493,0-0.721-0.267-1.083-0.742
	c-0.336-0.44-0.755-0.99-1.549-0.99c-0.161,0-0.332,0.023-0.509,0.07c-0.584,0.158-1.211,0.5-1.875,0.861
	c-0.991,0.54-2.114,1.151-3.165,1.151c-0.729,0-1.372-0.296-1.967-0.905c-0.922-0.943-2.111-1.443-3.438-1.443
	c-1.148,0-2.178,0.371-2.759,0.713c-0.258,0.156-0.74,0.442-1.362,0.442c-1.126,0.001-2.284-0.981-3.35-2.836l-0.511-0.89
	l-0.386,0.951c-0.302,0.746-4.055,3.233-7.114,3.233c-1.455,0-2.379-0.569-2.825-1.743l-0.246-0.647l-0.537,0.438
	c-0.028,0.022-2.866,2.316-4.848,2.316c-0.81,0-1.309-0.402-1.572-1.264c-0.116-0.377-0.469-0.825-1.5-0.825
	c-0.847,0-2.025,0.284-3.164,0.56c-1.073,0.258-2.181,0.526-2.895,0.526c-0.105,0.001-0.144-0.003-0.208-0.011
	c-3.282-0.323-6.208-1.327-7.112-1.66c-0.052-0.237-0.164-0.405-0.266-0.514c-0.283-0.306-0.736-0.453-1.383-0.453
	c-1.119,0-2.762,0.447-4.212,0.842c-1.122,0.306-2.182,0.595-2.695,0.595c-0.015,0-0.029-0.001-0.042-0.001
	c-0.449-0.9-1.529-1.357-3.214-1.357c-2.92,0-6.805,1.344-6.873,1.377c-2.567,0.36-3.781-1.551-5.213-3.808
	c-1.173-1.849-2.386-3.76-4.508-4.672c-1.07-0.461-0.961-5.28-0.246-9.479l0.162-0.951l-0.871,0.416
	c-0.328,0.156-0.608,0.236-0.832,0.236c-0.21,0-0.445-0.059-0.592-0.492c-0.391-1.15,0.305-3.672,1.215-4.488
	c0.4-0.131,0.522-0.629,0.64-1.112c0.06-0.245,0.135-0.544,0.244-0.871c0.973-1.274,2.03-2.491,3.157-3.655l0.347-0.199
	l-0.049-0.109c23.901-24.205,79.175-24.719,79.51-24.937c59.277-5.123,84.441,21.013,94.376,27.542
	C189.467,102.482,189.357,102.881,189.205,103.311z"/>
</svg>
