<?xml version="1.0" encoding="utf-8"?>
<!-- Generator: Adobe Illustrator 16.0.0, SVG Export Plug-In . SVG Version: 6.00 Build 0)  -->
<!DOCTYPE svg PUBLIC "-//W3C//DTD SVG 1.1//EN" "http://www.w3.org/Graphics/SVG/1.1/DTD/svg11.dtd">
<svg version="1.1" id="Layer_1" xmlns="http://www.w3.org/2000/svg" xmlns:xlink="http://www.w3.org/1999/xlink" x="0px" y="0px"
	 width="200px" height="200px" viewBox="0 0 200 200" enable-background="new 0 0 200 200" xml:space="preserve">
<path fill="#020202" d="M130.392,95.554l-0.698-2.812c-0.088-0.353-2.168-8.685-4.271-13.707
	c-4.76-12.644-3.188-39.013-2.907-43.146l3.528-3.528l0.06-0.523c0.209-1.885-0.482-5.606-4.548-6.325l2.479-10.715h1.771
	c0,0,2.364-5.943,2.955-7.713c-21.273-9.514-59.088,0-59.088,0l4.728,8.409h2.363l5.963,9.871c-1.837,0.131-3.069,0.775-3.661,1.926
	c-1.12,2.182,0.777,4.995,1.843,6.49c0.717,3.196,4.511,35.534,0.338,43.946c-2.301,4.638-6.264,13.72-6.63,14.562
	c-0.401,0.719-1.792,3.216-3.897,7.005c-23.156,33.674-21.25,83.788-21.342,91.809c19.12,11.23,94.12,5.063,100.282,1.824
	C154.578,154.908,139.552,114.252,130.392,95.554z M83.937,79.061c2.066-4.163,2.707-13.126,1.905-26.64
	c-0.375-6.332-1.582-19.12-2.349-20.188c-1.975-2.756-1.809-3.459-1.757-3.569c0.002-0.003,0.304-0.326,1.719-0.326
	c10.618,0.007,35.916,0.059,37.584,0.125c1.752,0.316,2.062,1.761,2.094,2.568l-3.523,3.524l-0.043,0.552
	c-0.099,1.246-2.332,30.688,3.07,45.036c1.229,2.935,2.477,7.155,3.278,10.054c-2.304-1.026-4.408-1.529-6.376-1.529
	c-4.395,0-7.169,2.472-9.616,4.653c-1.729,1.54-3.221,2.869-5.006,3.152c-3.699,0.585-7.32,1.11-10.956,1.11
	c-6.332,0-11.498-1.619-16.16-5.081C78.965,89.846,82.037,82.888,83.937,79.061z M112.375,138.434L100,145.577l-12.376-7.142
	v-14.289L100,117l12.375,7.146V138.434z"/>
</svg>
