<?xml version="1.0" encoding="utf-8"?>
<!-- Generator: Adobe Illustrator 16.0.0, SVG Export Plug-In . SVG Version: 6.00 Build 0)  -->
<!DOCTYPE svg PUBLIC "-//W3C//DTD SVG 1.1//EN" "http://www.w3.org/Graphics/SVG/1.1/DTD/svg11.dtd">
<svg version="1.1" id="Layer_1" xmlns="http://www.w3.org/2000/svg" xmlns:xlink="http://www.w3.org/1999/xlink" x="0px" y="0px"
	 width="200px" height="200px" viewBox="0 0 200 200" enable-background="new 0 0 200 200" xml:space="preserve">
<path d="M83.558,26.738l-6.793-11.244h-2.363l-4.728-8.409c0,0,37.814-9.514,59.088,0c-0.591,1.77-2.955,7.713-2.955,7.713h-1.772
	l-2.786,12.04L83.558,26.738z"/>
<path fill="#020202" d="M74.742,92.069c0,0,13.797,10.632,30.408,5.885c8.307-2.966,10.662-13.266,24.466-3.962
	c9.055,17.917,25.103,59.824,20.046,98.936c-6.162,3.239-81.162,9.406-100.282-1.824c0.092-8.021-1.814-58.135,21.342-91.809
	C73.24,94.762,74.742,92.069,74.742,92.069z M112.375,124.146L100,117l-12.376,7.146v14.289L100,145.577l12.375-7.144V124.146z"/>
<path fill="#020202" d="M93.96,100.583c-7.464,0-13.483-2.047-18.943-6.442l-0.891-0.717l0.456-1.049
	c0.042-0.098,4.265-9.807,6.667-14.648c4.173-8.412,0.379-40.75-0.338-43.946c-1.066-1.495-2.963-4.308-1.843-6.49
	c0.666-1.296,2.14-1.953,4.381-1.953c0.379,0,37.248,0.03,38.005,0.153c4.16,0.672,4.86,4.446,4.649,6.347l-0.059,0.523
	l-3.528,3.528c-0.281,4.133-1.853,30.502,2.907,43.146c2.103,5.022,4.182,13.354,4.27,13.707l0.867,3.492l-3.091-1.842
	c-3.077-1.833-5.672-2.725-7.931-2.725c-3.251,0-5.374,1.891-7.62,3.893c-1.907,1.699-3.878,3.455-6.533,3.875
	C101.563,100.041,97.814,100.583,93.96,100.583z M77.801,92.502c4.662,3.462,9.828,5.081,16.16,5.081
	c3.636,0,7.257-0.525,10.956-1.11c1.785-0.283,3.277-1.612,5.006-3.152c2.447-2.181,5.222-4.653,9.616-4.653
	c1.968,0,4.073,0.503,6.376,1.529c-0.801-2.899-2.05-7.119-3.278-10.054c-5.403-14.348-3.169-43.79-3.071-45.036l0.043-0.552
	l3.524-3.524c-0.032-0.807-0.342-2.252-2.094-2.568c-1.668-0.066-26.966-0.118-37.584-0.125c-1.415,0-1.717,0.323-1.719,0.326
	c-0.052,0.11-0.218,0.813,1.757,3.569c0.767,1.068,1.974,13.856,2.349,20.188c0.802,13.514,0.161,22.477-1.905,26.64
	C82.037,82.888,78.965,89.846,77.801,92.502z"/>
</svg>
