<?xml version="1.0" encoding="utf-8"?>
<!-- Generator: Adobe Illustrator 16.0.0, SVG Export Plug-In . SVG Version: 6.00 Build 0)  -->
<!DOCTYPE svg PUBLIC "-//W3C//DTD SVG 1.1//EN" "http://www.w3.org/Graphics/SVG/1.1/DTD/svg11.dtd">
<svg version="1.1" id="Layer_1" xmlns="http://www.w3.org/2000/svg" xmlns:xlink="http://www.w3.org/1999/xlink" x="0px" y="0px"
	 width="200px" height="200px" viewBox="0 0 200 200" enable-background="new 0 0 200 200" xml:space="preserve">
<g>
	<path d="M158.251,95.458c-1.006-0.604-2.5-1.75-2.5-1.75c0.467,0.423,8.896,8.442,7.599,11.729l-0.221,0.623l0.455,0.463
		c0.045,0.047,1.096,1.156,0.199,3.678c-0.559,1.572-0.557,3.205-0.555,4.645c0.004,2.195-0.051,3.473-1.237,4.161
		c-0.847,0.489-1.462,1.431-2.058,2.339c-0.43,0.656-0.871,1.332-1.332,1.729c-0.338,0.162-0.556,0.546-0.892,1.146
		c-0.586,1.046-2.37,4.224-3.782,4.357c-3.51,0.33-4.517-0.326-4.742-0.536c-0.134-0.126-0.141-0.205-0.149-0.166l-1.95-0.441
		c-0.001,0.004-0.002,0.006-0.002,0.01c-0.318,1.41-0.654,1.66-0.719,1.697c-0.18,0.105-0.76-0.091-1.27-0.264
		c-1.299-0.439-3.231-1.092-5.438,0.405c-0.075-0.013-0.161-0.028-0.257-0.046c-1.819-0.319-5.938-1.041-7.563,1.373
		c-0.521-0.045-1.473-0.215-2.149-0.336c-1.483-0.265-2.426-0.424-3.002-0.361c-0.938,0.098-1.828,0.482-2.688,0.854
		c-1.59,0.688-2.632,1.06-3.708,0.476l-0.728-0.396l-0.426,0.52c-0.476,0.173-2.643,0.587-5.771-0.438
		c-0.861-0.282-1.806-0.282-2.97,0.003l-0.396,1.82c0.786-0.193,2.25-0.084,2.741,0.077c1.673,0.549,3.254,0.769,4.562,0.769
		c1.047,0,1.918-0.142,2.521-0.367c1.829,0.726,3.557-0.019,4.966-0.627c0.756-0.326,1.47-0.636,2.102-0.701
		c0.336-0.045,1.604,0.192,2.442,0.342c2.556,0.458,3.608,0.644,4.047-0.311c0.733-1.594,4.452-0.941,5.675-0.726
		c0.784,0.137,1.144,0.2,1.537-0.131l0.038-0.033c1.456-1.071,2.606-0.683,3.822-0.272c0.905,0.308,1.929,0.654,2.891,0.113
		c0.386-0.216,0.706-0.542,0.976-1.002c1.168,0.719,3.078,0.947,5.797,0.686c2.158-0.202,3.842-2.699,5.339-5.367
		c0.104-0.186,0.188-0.34,0.253-0.448c0.771-0.587,1.344-1.462,1.898-2.308c0.469-0.715,0.951-1.453,1.389-1.707
		c2.242-1.303,2.238-3.637,2.234-5.895c-0.002-1.34-0.004-2.726,0.438-3.971c0.963-2.71,0.249-4.451-0.279-5.264
		C166.488,101.003,158.876,95.833,158.251,95.458z"/>
	<path d="M124.482,95.309l0.281-0.11c0.655-0.057,2.404,0.07,3.967,0.185c6.418,0.473,11.912,0.692,13.928-1.345
		c0.988-0.181,8.172-3.9,8.217-3.913l-1.75-0.5c-3.348,0.923-5.665,2.192-6.781,2.446l-1.021,0.461
		c-1.225,1.684-8.803,1.125-12.443,0.857c-3.523-0.259-4.734-0.327-5.328,0.137c-3.893,1.482-8.923,1.827-13.777,1.008l0.438,1.952
		c1.848,0.311,3.62,0.467,5.326,0.467C118.727,96.954,121.684,96.408,124.482,95.309z"/>
	<path d="M188.146,80.164c-7.479,1.663-19.742-4.783-28.407-4.225c-6.435-0.558-25.946-8.392-34.31-5.032
		c-0.558-0.542-17.779-4.927-21.152-1.62c0.527,0.52-18.473-3.524-20.958-1.223c-0.257-0.487-16.513-5.4-27.896-0.714
		c-0.235,0.785-15.286,0.227-18.631,3.572C33.666,71.99,20,76.529,17.282,85.417c0,0-2.11,10.243,18.087,9.073
		c2.787-2.508,5.866-4.764,5.866-4.764s14.495,13.937,18.954-1.673c-0.053-2.728,16.905,12.571,22.155-1.179
		c5.799,4.954,5.292,25.089,2.091,44.038c-1.576,0.84-3.2,1.635-3.94,0.875c-2.069-2.118-4.81-1.227-5.732-0.682
		c-0.224,0.131-0.601,0.356-1.065,0.235c-0.424-0.11-1.1-0.54-1.912-1.952l-1.004-1.818l-0.771,1.902
		c-0.384,0.625-3.411,2.45-5.509,2.262c-0.74-0.069-1.177-0.381-1.415-1.008l-0.493-1.293l-1.074,0.873
		c-1.031,0.838-2.95,1.961-3.802,1.698c-0.085-0.026-0.284-0.086-0.429-0.562c-0.483-1.584-2.511-1.096-4.472-0.62
		c-0.824,0.198-1.855,0.456-2.303,0.403c-2.322-0.23-4.421-0.896-5.328-1.215c-0.091-0.187-0.222-0.353-0.389-0.49
		c-0.91-0.75-2.481-0.396-4.961,0.28c-0.573,0.156-1.309,0.357-1.742,0.431c-1.629-2.103-6.82-0.559-8.619,0.062
		c-1.545,0.167-2.32-0.909-3.528-2.812c-0.948-1.494-2.023-3.187-3.835-3.955c-0.492-0.524-0.451-3.879,0.086-7.037l0.323-1.902
		l-1.74,0.832c-0.163,0.078-0.273,0.11-0.339,0.123c-0.208-0.545,0.196-2.296,0.75-2.893c0.524-0.252,0.681-0.894,0.774-1.274
		c0.198-0.81,0.528-2.164,2.423-3.253l0.727-0.419l-0.285-0.788c-0.45-1.246-0.745-2.639-0.737-3.342
		c0.747,0.053,1.529,0.08,2.351,0.08c1.309,0,2.714-0.066,4.212-0.2c4.767-0.433,7.504-3.308,8.703-4.963
		c0.651,0.51,1.658,1.079,3.163,1.454c3.901,0.97,9.369,0.26,16.255-2.116l0.055-0.019c0.39-0.01,1.416,0.063,2.408,0.131
		c5.468,0.375,16.647,1.143,22.044-2.299c0.4,0.22,2.01,0.814,2.839,1.107l-0.335-2.18c-1.062-0.375-1.66-0.742-1.915-0.899
		c-0.739-0.454-1.213-0.087-1.382,0.092l-0.01,0.011c-4.655,3.302-16.161,2.512-21.104,2.172c-2.456-0.168-3.045-0.21-3.441,0.057
		c-14.755,5.046-17.851,0.422-17.87,0.395l-0.923-1.659l-0.846,1.7c-0.022,0.045-2.309,4.523-7.819,5.024
		c-2.598,0.23-4.881,0.247-6.842,0.063l-0.018-0.137c-0.132,0.017-0.257,0.051-0.376,0.096c-3.76-0.415-6.258-1.614-7.328-3.57
		c-2.119-3.871,0.536-9.131,1.335-10.165l-0.127-1.999c-0.057,0.073-5.968,7.634-2.963,13.125c1.311,2.395,3.978,3.893,7.958,4.486
		c-0.068,1.114,0.266,2.488,0.576,3.475c-2.031,1.446-2.455,3.186-2.67,4.064c-0.012,0.05-0.023,0.096-0.033,0.138
		c-1.269,1.087-2.12,4.149-1.214,5.628c0.135,0.22,0.519,0.729,1.238,0.857c-0.78,5.625,0.218,7.36,1.239,7.799
		c1.313,0.566,2.135,1.861,3.006,3.232c1.228,1.932,2.612,4.127,5.585,3.709l0.19-0.047c3.207-1.117,6.256-1.328,6.502-0.717
		c0.46,1.146,1.798,0.784,3.826,0.232c0.824-0.226,2.246-0.612,2.95-0.637l-0.023,0.322l0.675,0.271
		c0.12,0.049,2.973,1.19,6.355,1.525c0.786,0.08,1.847-0.179,2.969-0.449c0.662-0.16,1.709-0.412,2.204-0.418
		c0.406,0.998,1.105,1.405,1.646,1.569c1.574,0.476,3.549-0.589,4.725-1.382c0.669,0.775,1.657,1.197,2.882,1.211
		c1.93,0.018,4.567-1.098,6.035-2.262c0.742,0.963,1.55,1.562,2.413,1.789c1.28,0.334,2.235-0.24,2.63-0.476
		c0.018-0.01,1.879-1.011,3.241,0.384c0.849,0.869,1.747,1.159,2.584,1.159c0.973,0,1.849-0.386,2.489-0.712
		c1.225,4.017,20.002,0.678,25.206-0.505c0.949-0.216,5.781-36.792-3.703-47.329c4.901,4.995,11.969,13.965,18.938-0.001
		c1.691,7.629,15.74,4.688,18.117,1.423c0.143,0.09,8.328,2.852,8.328,2.852s20.679,16.383,32.942,16.178
		c0.558-0.203,10.034-3.549,10.034-3.549C190.459,87.39,190.459,87.39,188.146,80.164z"/>
</g>
</svg>
