<?xml version="1.0" encoding="utf-8"?>
<!-- Generator: Adobe Illustrator 16.0.0, SVG Export Plug-In . SVG Version: 6.00 Build 0)  -->
<!DOCTYPE svg PUBLIC "-//W3C//DTD SVG 1.1//EN" "http://www.w3.org/Graphics/SVG/1.1/DTD/svg11.dtd">
<svg version="1.1" id="Layer_1" xmlns="http://www.w3.org/2000/svg" xmlns:xlink="http://www.w3.org/1999/xlink" x="0px" y="0px"
	 width="200px" height="200px" viewBox="0 0 200 200" enable-background="new 0 0 200 200" xml:space="preserve">
<path fill="#020202" d="M103.33,197.611c-22.828,0-54.45-2.262-54.45-6.509c0-53.757,11.736-74.768,24.161-97.011
	c2.821-5.051,5.738-10.273,8.547-15.937c4.498-9.065,0.158-43.667-0.32-44.949c-0.87-1.198-2.767-3.845-1.872-5.588
	c0.481-0.938,1.658-1.413,3.498-1.413c0.38,0,37.305,0.039,37.931,0.14c3.424,0.554,3.998,3.683,3.823,5.261l-0.02,0.174
	l-3.553,3.553c-0.185,2.546-2.074,30.695,2.95,44.041c1.351,3.225,2.645,6.307,3.879,9.245
	c20.173,48.033,24.371,58.028,22.257,104.331l-0.017,0.365l-0.352,0.095C139.791,196.119,123.29,197.611,103.33,197.611z
	 M82.9,27.205c-0.993,0-2.246,0.151-2.615,0.869c-0.616,1.201,1.166,3.687,1.836,4.623c0.877,1.222,4.947,36.662,0.362,45.903
	c-2.819,5.685-5.743,10.918-8.569,15.979c-12.36,22.127-24.034,43.028-24.034,96.524c0,2.167,22.952,5.509,53.45,5.509
	c19.642,0,35.896-1.444,45.85-4.072c2.064-45.768-2.149-55.798-22.198-103.533c-1.233-2.939-2.528-6.021-3.885-9.263
	c-5.325-14.141-3.103-43.432-3.005-44.671l0.014-0.184l3.56-3.559c0.032-0.726-0.042-3.518-3.001-3.997
	C119.865,27.265,92.98,27.212,82.9,27.205z"/>
<path d="M83.558,26.738l-6.793-11.244h-2.363l-4.728-8.409c0,0,37.815-9.514,59.087,0c-0.59,1.77-2.955,7.713-2.955,7.713h-1.772
	l-2.786,12.04L83.558,26.738z"/>
<path fill="#020202" d="M74.742,92.069c0,0,13.797,10.632,30.408,5.885c8.307-2.966,10.663-13.266,24.466-3.962
	c9.055,17.917,25.103,59.825,20.046,98.936c-6.162,3.239-81.162,9.406-100.282-1.825c0.092-8.021-1.814-58.134,21.342-91.808
	C73.24,94.762,74.742,92.069,74.742,92.069z M112.375,124.146L100,117l-12.376,7.146v14.289L100,145.577l12.375-7.143V124.146z
	 M76.353,156.214c-0.21-0.303-0.501-0.57-0.872-0.803c-0.371-0.231-0.865-0.492-1.483-0.782c-0.348-0.166-0.589-0.307-0.725-0.423
	c-0.135-0.115-0.203-0.253-0.203-0.411c0-0.17,0.067-0.312,0.203-0.429s0.354-0.174,0.655-0.174c0.46,0,0.892,0.093,1.295,0.278
	c0.404,0.186,0.77,0.396,1.098,0.632v-1.884c-0.093-0.062-0.263-0.146-0.51-0.255c-0.248-0.107-0.561-0.205-0.942-0.292
	c-0.38-0.087-0.794-0.131-1.243-0.131c-0.629,0-1.163,0.104-1.599,0.313c-0.437,0.208-0.761,0.487-0.973,0.837
	s-0.319,0.74-0.319,1.173c0,0.448,0.105,0.837,0.316,1.165c0.21,0.328,0.481,0.602,0.814,0.819c0.332,0.219,0.718,0.42,1.159,0.605
	c0.398,0.159,0.701,0.312,0.91,0.461s0.313,0.331,0.313,0.548c0,0.119-0.061,0.248-0.183,0.385
	c-0.122,0.138-0.389,0.206-0.802,0.206c-0.448,0-0.868-0.083-1.26-0.249s-0.791-0.375-1.197-0.626v1.97
	c0.433,0.189,0.849,0.332,1.249,0.429c0.399,0.097,0.72,0.155,0.961,0.177c0.242,0.021,0.445,0.032,0.611,0.032
	c0.595,0,1.122-0.098,1.582-0.293c0.459-0.195,0.818-0.476,1.075-0.843s0.385-0.802,0.385-1.304
	C76.668,156.895,76.563,156.518,76.353,156.214z M84.27,155.51c-0.143-0.366-0.354-0.688-0.634-0.962
	c-0.28-0.273-0.634-0.487-1.061-0.64s-0.918-0.229-1.475-0.229c-0.553,0-1.039,0.076-1.46,0.227s-0.775,0.366-1.063,0.646
	c-0.288,0.28-0.502,0.602-0.644,0.965c-0.141,0.363-0.211,0.767-0.211,1.211c0,0.587,0.126,1.11,0.38,1.57
	c0.253,0.46,0.633,0.822,1.141,1.089c0.509,0.267,1.128,0.4,1.857,0.4c0.73,0,1.349-0.134,1.857-0.4
	c0.508-0.267,0.889-0.629,1.144-1.089s0.383-0.983,0.383-1.57C84.484,156.282,84.413,155.877,84.27,155.51z M81.984,157.83
	c-0.203,0.269-0.497,0.403-0.884,0.403c-0.379,0-0.67-0.136-0.875-0.406c-0.204-0.27-0.307-0.637-0.307-1.101
	c0-0.467,0.102-0.833,0.304-1.098c0.203-0.265,0.496-0.397,0.878-0.397c0.387,0,0.681,0.133,0.884,0.397s0.304,0.631,0.304,1.098
	C82.288,157.194,82.188,157.562,81.984,157.83z M89.693,153.783l-1.362,2.932l-1.199-2.932H84.89l2.335,5.128l-1.622,3.453h2.109
	l4.009-8.581H89.693z M103.952,156.214c-0.211-0.303-0.501-0.57-0.872-0.803c-0.371-0.231-0.865-0.492-1.483-0.782
	c-0.348-0.166-0.589-0.307-0.724-0.423c-0.136-0.115-0.203-0.253-0.203-0.411c0-0.17,0.067-0.312,0.203-0.429
	c0.135-0.116,0.354-0.174,0.654-0.174c0.46,0,0.892,0.093,1.295,0.278s0.77,0.396,1.098,0.632v-1.884
	c-0.092-0.062-0.263-0.146-0.51-0.255c-0.247-0.107-0.561-0.205-0.941-0.292c-0.38-0.087-0.795-0.131-1.242-0.131
	c-0.63,0-1.163,0.104-1.6,0.313c-0.437,0.208-0.761,0.487-0.974,0.837c-0.212,0.35-0.318,0.74-0.318,1.173
	c0,0.448,0.105,0.837,0.315,1.165c0.211,0.328,0.482,0.602,0.814,0.819c0.332,0.219,0.719,0.42,1.159,0.605
	c0.397,0.159,0.7,0.312,0.909,0.461s0.312,0.331,0.312,0.548c0,0.119-0.061,0.248-0.182,0.385c-0.122,0.138-0.39,0.206-0.803,0.206
	c-0.448,0-0.868-0.083-1.261-0.249c-0.392-0.166-0.79-0.375-1.196-0.626v1.97c0.433,0.189,0.849,0.332,1.249,0.429
	c0.399,0.097,0.72,0.155,0.962,0.177c0.241,0.021,0.444,0.032,0.611,0.032c0.595,0,1.122-0.098,1.581-0.293
	c0.46-0.195,0.818-0.476,1.075-0.843s0.385-0.802,0.385-1.304C104.268,156.895,104.163,156.518,103.952,156.214z M111.69,158.291
	c-0.225,0.112-0.402,0.168-0.533,0.168c-0.108,0-0.183-0.053-0.224-0.159c-0.04-0.106-0.061-0.268-0.061-0.483v-2.277
	c0-0.579-0.216-1.034-0.646-1.364c-0.431-0.331-1.072-0.496-1.926-0.496c-0.336,0-0.669,0.029-0.997,0.087
	c-0.328,0.059-0.643,0.146-0.944,0.264c-0.301,0.118-0.581,0.27-0.84,0.455v1.6c0.324-0.317,0.682-0.576,1.072-0.776
	c0.39-0.201,0.812-0.302,1.269-0.302c0.386,0,0.637,0.081,0.753,0.243s0.174,0.387,0.174,0.672
	c-0.081,0.043-0.158,0.078-0.231,0.104c-0.073,0.027-0.185,0.065-0.333,0.113c-0.149,0.048-0.368,0.119-0.658,0.212
	c-0.51,0.162-0.919,0.318-1.229,0.469c-0.309,0.15-0.555,0.345-0.738,0.582c-0.184,0.238-0.275,0.538-0.275,0.901
	c0,0.239,0.054,0.472,0.159,0.698c0.106,0.226,0.292,0.413,0.557,0.562c0.265,0.149,0.611,0.224,1.04,0.224
	c0.444,0,0.804-0.06,1.077-0.177c0.274-0.118,0.523-0.268,0.748-0.449c0.058,0.174,0.154,0.321,0.289,0.443
	c0.136,0.121,0.375,0.183,0.719,0.183c0.363,0,0.674-0.037,0.933-0.11s0.541-0.17,0.847-0.29V158.291z M108.355,158.543
	c-0.141,0.079-0.283,0.119-0.426,0.119c-0.15,0-0.283-0.053-0.396-0.156c-0.114-0.104-0.171-0.255-0.171-0.452
	c0-0.274,0.113-0.491,0.342-0.652c0.228-0.16,0.589-0.341,1.083-0.541v1.396C108.641,158.368,108.496,158.464,108.355,158.543z
	 M118.724,153.783h-2.085v3.465c-0.187,0.271-0.368,0.492-0.547,0.666c-0.178,0.174-0.42,0.261-0.726,0.261
	c-0.356,0-0.588-0.12-0.694-0.361c-0.106-0.242-0.16-0.522-0.16-0.844v-3.187h-2.086v3.465c0,0.653,0.131,1.239,0.394,1.759
	c0.262,0.52,0.838,0.779,1.728,0.779c0.453,0,0.841-0.078,1.165-0.234c0.323-0.157,0.632-0.394,0.927-0.71v0.84h2.085V153.783z
	 M125.115,157.77c-0.383,0.116-0.707,0.205-0.974,0.267s-0.504,0.093-0.713,0.093c-0.22,0-0.44-0.05-0.66-0.15
	s-0.401-0.258-0.545-0.473c-0.143-0.214-0.214-0.478-0.214-0.791c0-0.471,0.144-0.818,0.432-1.043
	c0.287-0.224,0.617-0.336,0.987-0.336c0.383,0,0.914,0.108,1.594,0.324v-1.64c-0.282-0.104-0.561-0.187-0.834-0.249
	c-0.274-0.062-0.63-0.093-1.066-0.093c-0.653,0-1.202,0.108-1.648,0.325c-0.446,0.216-0.787,0.484-1.022,0.805
	c-0.235,0.321-0.401,0.653-0.495,0.997c-0.095,0.344-0.143,0.646-0.143,0.909s0.047,0.566,0.14,0.91
	c0.092,0.344,0.26,0.681,0.501,1.011s0.585,0.604,1.031,0.823c0.446,0.218,0.991,0.327,1.637,0.327c0.286,0,0.55-0.019,0.791-0.056
	c0.241-0.036,0.458-0.083,0.651-0.139s0.377-0.117,0.551-0.183V157.77z M132.178,156.819c0-0.741-0.144-1.347-0.432-1.816
	c-0.287-0.469-0.654-0.808-1.101-1.014c-0.446-0.207-0.908-0.311-1.388-0.311c-0.727,0-1.344,0.131-1.854,0.392
	c-0.511,0.261-0.892,0.62-1.145,1.077c-0.253,0.458-0.38,0.977-0.38,1.556c0,0.588,0.127,1.113,0.38,1.576
	c0.253,0.464,0.634,0.831,1.145,1.101c0.51,0.271,1.127,0.406,1.854,0.406c0.672,0,1.226-0.064,1.66-0.194
	c0.435-0.129,0.805-0.273,1.109-0.432v-1.292c-0.85,0.394-1.626,0.591-2.329,0.591c-0.401,0-0.761-0.113-1.078-0.342
	c-0.316-0.228-0.516-0.521-0.597-0.881h4.154V156.819z M127.966,156.205c0-0.371,0.107-0.671,0.321-0.9
	c0.215-0.23,0.496-0.345,0.844-0.345c0.351,0,0.62,0.112,0.808,0.339c0.188,0.226,0.281,0.528,0.281,0.906H127.966z M70.635,164.91
	v4.265h0.454v-2.989c0.365-0.609,0.83-0.913,1.395-0.913c0.772,0,1.159,0.491,1.159,1.474v2.429h0.455v-2.601
	c0-0.547-0.144-0.975-0.431-1.283c-0.288-0.31-0.672-0.464-1.154-0.464c-0.581,0-1.049,0.275-1.404,0.825h-0.019v-0.742H70.635z
	 M78.088,168.813c-0.068,0-0.102-0.073-0.102-0.218v-2.656c0-0.361-0.125-0.638-0.375-0.827c-0.25-0.19-0.568-0.285-0.955-0.285
	c-0.436,0-0.895,0.151-1.376,0.454v0.468c0.466-0.361,0.9-0.542,1.302-0.542c0.63,0,0.946,0.291,0.946,0.871v0.543
	c-0.797,0.04-1.411,0.193-1.84,0.461s-0.645,0.633-0.645,1.097c0,0.299,0.111,0.555,0.334,0.765s0.494,0.314,0.816,0.314
	c0.442,0,0.887-0.176,1.335-0.528c0.019,0.214,0.048,0.354,0.088,0.425c0.04,0.069,0.113,0.104,0.218,0.104
	c0.182,0,0.47-0.147,0.862-0.444v-0.38C78.377,168.687,78.174,168.813,78.088,168.813z M76.34,168.883
	c-0.241,0-0.442-0.068-0.603-0.204s-0.241-0.303-0.241-0.5c0-0.353,0.192-0.643,0.577-0.869c0.385-0.228,0.869-0.33,1.453-0.309
	v1.33C77.125,168.699,76.73,168.883,76.34,168.883z M80.03,163.497l-0.311,0.398v1.015H78.57v0.371h1.149v3.068
	c0,0.284,0.094,0.507,0.283,0.668c0.188,0.16,0.423,0.24,0.704,0.24c0.287,0,0.581-0.072,0.881-0.218v-0.436
	c-0.297,0.14-0.557,0.209-0.779,0.209c-0.29,0-0.469-0.064-0.535-0.192s-0.1-0.396-0.1-0.805v-2.535h1.196v-0.371h-1.196v-1.413
	H80.03z M85.666,169.175v-4.265h-0.454v2.994c-0.21,0.334-0.419,0.569-0.628,0.705s-0.461,0.204-0.758,0.204
	c-0.346,0-0.627-0.113-0.844-0.339c-0.216-0.226-0.324-0.536-0.324-0.932v-2.633h-0.454v2.643c0,0.544,0.149,0.964,0.449,1.261
	s0.679,0.444,1.136,0.444c0.321,0,0.586-0.06,0.795-0.181c0.209-0.12,0.412-0.322,0.609-0.606h0.019v0.704H85.666z M88.832,164.827
	c-0.485,0-0.982,0.401-1.493,1.205H87.32v-1.122h-0.454v4.265h0.454v-2.679c0.485-0.816,0.941-1.224,1.368-1.224
	c0.216,0,0.502,0.162,0.857,0.486l0.264-0.427C89.436,164.995,89.11,164.827,88.832,164.827z M93.055,168.813
	c-0.068,0-0.103-0.073-0.103-0.218v-2.656c0-0.361-0.125-0.638-0.375-0.827c-0.251-0.19-0.569-0.285-0.955-0.285
	c-0.436,0-0.895,0.151-1.377,0.454v0.468c0.467-0.361,0.901-0.542,1.303-0.542c0.631,0,0.945,0.291,0.945,0.871v0.543
	c-0.797,0.04-1.41,0.193-1.84,0.461s-0.645,0.633-0.645,1.097c0,0.299,0.111,0.555,0.334,0.765s0.494,0.314,0.815,0.314
	c0.442,0,0.887-0.176,1.335-0.528c0.019,0.214,0.048,0.354,0.088,0.425c0.041,0.069,0.113,0.104,0.219,0.104
	c0.182,0,0.47-0.147,0.861-0.444v-0.38C93.343,168.687,93.141,168.813,93.055,168.813z M91.307,168.883
	c-0.241,0-0.441-0.068-0.603-0.204c-0.16-0.136-0.241-0.303-0.241-0.5c0-0.353,0.192-0.643,0.577-0.869
	c0.385-0.228,0.869-0.33,1.453-0.309v1.33C92.092,168.699,91.696,168.883,91.307,168.883z M94.38,162.699v6.476h0.459v-6.476H94.38z
	 M96.164,162.699v6.476h0.459v-6.476H96.164z M100.746,164.91l-1.475,2.978l-1.547-2.978h-0.477l1.797,3.436l-1.491,3.013h0.466
	l3.191-6.448H100.746z M106.124,169.258c0.72,0,1.297-0.214,1.731-0.642c0.434-0.428,0.651-0.997,0.651-1.708
	c0-0.612-0.178-1.111-0.533-1.499c-0.355-0.389-0.812-0.582-1.367-0.582c-0.572,0-1.085,0.231-1.539,0.695v-2.823h-0.454v6.239
	C105.147,169.151,105.651,169.258,106.124,169.258z M106.551,165.207c0.423,0,0.773,0.162,1.052,0.486
	c0.278,0.325,0.417,0.739,0.417,1.242c0,0.544-0.18,0.993-0.54,1.347c-0.359,0.354-0.814,0.531-1.364,0.531
	c-0.347,0-0.695-0.066-1.048-0.199v-2.582C105.55,165.482,106.044,165.207,106.551,165.207z M111.427,164.827
	c-0.485,0-0.982,0.401-1.493,1.205h-0.019v-1.122h-0.454v4.265h0.454v-2.679c0.485-0.816,0.941-1.224,1.368-1.224
	c0.216,0,0.502,0.162,0.857,0.486l0.264-0.427C112.03,164.995,111.705,164.827,111.427,164.827z M115.7,165.381
	c-0.365-0.369-0.812-0.554-1.34-0.554c-0.562,0-1.029,0.205-1.399,0.614c-0.371,0.409-0.557,0.926-0.557,1.55
	c0,0.658,0.201,1.201,0.603,1.627c0.402,0.427,0.91,0.64,1.525,0.64c0.605,0,1.152-0.188,1.641-0.565v-0.514
	c-0.516,0.423-1.045,0.635-1.585,0.635c-0.464,0-0.865-0.165-1.205-0.496s-0.51-0.734-0.51-1.21c0-0.074,0.004-0.148,0.014-0.223
	h3.36C116.247,166.252,116.064,165.75,115.7,165.381z M113.454,165.599c0.255-0.218,0.558-0.326,0.906-0.326
	c0.738,0,1.188,0.415,1.349,1.246h-2.762C113.03,166.123,113.199,165.816,113.454,165.599z M122.846,164.91l-1.488,3.477
	l-1.297-3.477h-0.248l-1.339,3.477l-1.455-3.477h-0.447l1.825,4.348h0.205l1.323-3.462l1.312,3.462h0.218l1.843-4.348H122.846z
	 M126.824,165.381c-0.365-0.369-0.812-0.554-1.34-0.554c-0.562,0-1.029,0.205-1.399,0.614c-0.371,0.409-0.557,0.926-0.557,1.55
	c0,0.658,0.201,1.201,0.603,1.627c0.402,0.427,0.91,0.64,1.525,0.64c0.605,0,1.152-0.188,1.641-0.565v-0.514
	c-0.516,0.423-1.045,0.635-1.585,0.635c-0.464,0-0.865-0.165-1.205-0.496s-0.51-0.734-0.51-1.21c0-0.074,0.004-0.148,0.014-0.223
	h3.36C127.371,166.252,127.188,165.75,126.824,165.381z M124.578,165.599c0.255-0.218,0.558-0.326,0.906-0.326
	c0.738,0,1.188,0.415,1.349,1.246h-2.762C124.154,166.123,124.323,165.816,124.578,165.599z M131.501,162.699v2.471
	c-0.448-0.229-0.868-0.343-1.261-0.343c-0.618,0-1.132,0.21-1.541,0.63c-0.41,0.421-0.614,0.947-0.614,1.581
	c0,0.624,0.207,1.15,0.623,1.578s0.927,0.642,1.532,0.642c0.451,0,0.871-0.139,1.261-0.417v0.334h0.459v-6.476H131.501z
	 M130.352,168.813c-0.51,0-0.936-0.172-1.275-0.515s-0.51-0.772-0.51-1.289c0-0.506,0.159-0.923,0.478-1.249
	s0.724-0.488,1.215-0.488c0.42,0,0.834,0.133,1.242,0.398v2.753C131.13,168.684,130.747,168.813,130.352,168.813z M88.984,173.811
	v4.856h0.361v-4.856H88.984z M91.64,173.811v2.267c0.229-0.069,0.452-0.104,0.668-0.104c0.396,0,0.714,0.107,0.952,0.321
	c0.239,0.215,0.358,0.512,0.358,0.893c0,0.348-0.112,0.635-0.337,0.861c-0.226,0.228-0.512,0.341-0.859,0.341
	c-0.336,0-0.729-0.131-1.182-0.393v0.414c0.403,0.213,0.793,0.319,1.168,0.319c0.449,0,0.824-0.149,1.123-0.448
	s0.448-0.674,0.448-1.123c0-0.459-0.147-0.824-0.441-1.097s-0.684-0.408-1.168-0.408c-0.128,0-0.257,0.01-0.39,0.031v-1.537h1.718
	v-0.337H91.64z M95.208,174.363c-0.313,0.41-0.471,1.063-0.471,1.961c0,0.721,0.146,1.302,0.438,1.743
	c0.293,0.441,0.668,0.662,1.127,0.662c0.438,0,0.804-0.225,1.097-0.675c0.293-0.449,0.439-1.047,0.439-1.793
	c0-0.802-0.149-1.422-0.448-1.858s-0.666-0.655-1.102-0.655C95.882,173.748,95.522,173.953,95.208,174.363z M95.428,177.796
	c-0.22-0.395-0.329-0.913-0.329-1.556c0-0.635,0.112-1.152,0.337-1.552c0.226-0.4,0.509-0.6,0.853-0.6
	c0.363,0,0.652,0.203,0.867,0.609c0.214,0.407,0.321,0.916,0.321,1.528c0,0.626-0.11,1.143-0.33,1.551
	c-0.221,0.407-0.511,0.611-0.873,0.611C95.929,178.389,95.646,178.191,95.428,177.796z M100.474,175.469v3.198h0.341v-2.242
	c0.271-0.457,0.592-0.685,0.963-0.685c0.255,0,0.458,0.096,0.61,0.286c0.151,0.191,0.228,0.465,0.228,0.819v1.821h0.344v-2.18
	c0.155-0.262,0.306-0.452,0.452-0.57c0.146-0.118,0.317-0.177,0.515-0.177c0.264,0,0.469,0.099,0.615,0.297
	c0.146,0.198,0.219,0.47,0.219,0.815v1.814h0.341v-1.964c0-0.392-0.103-0.706-0.306-0.942c-0.204-0.236-0.472-0.354-0.804-0.354
	c-0.44,0-0.811,0.256-1.112,0.769c-0.199-0.513-0.543-0.769-1.032-0.769c-0.42,0-0.759,0.208-1.019,0.626h-0.014v-0.563H100.474z
	 M106.032,173.811v4.856h0.344v-4.856H106.032z M114.802,175.961c0-0.83-0.211-1.492-0.632-1.987
	c-0.421-0.494-0.984-0.741-1.691-0.741c-0.734,0-1.331,0.254-1.791,0.762c-0.459,0.508-0.689,1.168-0.689,1.979
	c0,0.541,0.109,1.017,0.328,1.429c0.218,0.411,0.509,0.738,0.872,0.981c0.362,0.243,0.838,0.365,1.425,0.365
	c0.429,0,0.803-0.046,1.121-0.139s0.641-0.247,0.965-0.464v-1.031c-0.587,0.433-1.229,0.648-1.924,0.648
	c-0.498,0-0.904-0.15-1.22-0.451c-0.314-0.302-0.485-0.707-0.513-1.217h3.749V175.961z M111.548,174.489
	c0.242-0.228,0.552-0.342,0.931-0.342c0.378,0,0.68,0.114,0.903,0.342c0.225,0.229,0.35,0.553,0.377,0.974h-2.683
	C111.149,175.042,111.307,174.718,111.548,174.489z"/>
</svg>
