<?xml version="1.0" encoding="utf-8"?>
<!-- Generator: Adobe Illustrator 16.0.0, SVG Export Plug-In . SVG Version: 6.00 Build 0)  -->
<!DOCTYPE svg PUBLIC "-//W3C//DTD SVG 1.1//EN" "http://www.w3.org/Graphics/SVG/1.1/DTD/svg11.dtd">
<svg version="1.1" id="Layer_1" xmlns="http://www.w3.org/2000/svg" xmlns:xlink="http://www.w3.org/1999/xlink" x="0px" y="0px"
	 width="200px" height="200px" viewBox="0 0 200 200" enable-background="new 0 0 200 200" xml:space="preserve">
<path fill="#020202" d="M185.759,100.876c3.802,82.106-15.68,73.79-86.216,74.978c-81.105,1.366-81.287-19.11-81.287-75.317
	c0-45.271-21.859-75.555,82.445-81.63C197.598,13.262,182.734,35.499,185.759,100.876z M24.04,81.91
	c-2.87,2.029-5.335,9.105,0.052,12.591c0,0-7.272,4.596,1.036,10.614c3.263,2.362-9.65-3.777,0.601,13.615
	c0,0-4.958,3.674-1.054,7.488c1.214,1.188-1.357,4.913-1.667,8.771c0,0-1.385,10.294,5.583,10.929
	c3.323,0.301,0.713,5.64,1.448,7.859c2.127,6.421,2.948,6.396,2.948,6.396c3.089,7.484,15.945,6.848,17.023,4.408
	c4.36,6.996,8.323,4.587,9.35,4.026c1.307-0.713,6.008-2.226,9.504,1.069c4.436,4.18,9.496-0.705,12.867-1.539
	c3.371-0.833,2.101,4.746,8.16,1.776c3.718-3.932,5.29,1.654,6.836-0.202c2.714-3.26,5.246-4.13,8.726-0.272
	c2.852,3.159,14.374-0.201,14.374,0.356c4.871,4.752,13.355-3.264,19.84-1.308c7.948,2.398,13.78,1.149,14.374,0.476
	c5.228,2.613,10.143-1.927,14.85-2.376c2.31-0.221,6.928-9.957,7.128-10.93c0.594-2.851,0.713-6.678,0.713-7.127
	c2.383-0.385,9.38-13.553,4.443-17.67c-2.923-2.437,5.453-10.959,0.315-15.095c-4.503-3.625-0.973-8.354-0.72-7.864
	c2.88-1.918-3.373-10.458-0.713-11.88c6.165-3.298-4.099-7.172-1.418-14.113c2.457-6.369-1.604-12.321-1.434-11.785
	c4.704-10.976-2.851-18.022-2.851-20.196c8.843-7.84-2.12-16.9-4.276-15.681c0-7.84-11.476-3.484-13.139-8.386
	c-2.543-7.499-8.397,3.935-12.521-0.642c-6.178-6.857-15.053,0.03-15.919-0.951c-4.849-5.487-13.068,2.139-18.058,0.951
	c-1.822-0.435-13.067-8.791-18.057,0c-6.89-6.89-14.255,9.979-19.958,2.376c-3.761-5.016-13.955,3.935-14.494,3.326
	c-8.891-2.515-18.057-4.277-21.621,3.089c-3.044,6.294-5.365,10.812-5.888,10.222c-6.693-1.682-1.715,7.359-5.992,9.023
	c-7.811,3.039-2.383,15.599-2.383,15.599C15.167,72.501,25.117,81.91,24.04,81.91z"/>
<path d="M104.637,134.578c-3.103,0-5.285-0.369-6.67-1.127l-0.189-0.104l-0.055-0.208c-0.522-1.981-1.748-5.005-3.044-8.205
	c-3.355-8.28-6.824-16.843-3.868-19.081l0.017,0.022c0.016-0.02,0.033-0.04,0.052-0.062l-0.002-0.004l0.002,0.003
	c0.933-1.095,4.666-4.467,18.57-16.9c9.385-8.392,18.784-16.746,18.784-16.746l0.526-0.468l0.268,0.651
	c0.052,0.124,5.138,12.521,9.263,25.346c5.686,17.678,6.847,27.323,3.551,29.484l-0.021-0.031
	c-1.795,1.27-13.357,3.919-13.883,4.039c-5.548,1.266-15.95,3.389-23.298,3.39C104.639,134.578,104.638,134.578,104.637,134.578z
	 M98.632,132.67c1.238,0.603,3.257,0.908,6.005,0.908c0.002,0,0.002,0,0.003,0c12.59-0.001,34.689-6.137,36.489-7.101l0.009-0.031
	l0.155-0.102c5.639-3.698-7.169-38.856-12.922-52.961c-10.48,9.317-36.054,32.117-36.871,33.146l-0.331-0.263l0.244,0.383
	c-2.345,1.776,1.433,11.101,4.191,17.908C96.87,127.678,98.066,130.63,98.632,132.67z"/>
<path fill="#020202" d="M124.995,72.443c0,0-39.161,30.866-36.661,35.558c0,0,2.724,13.315,5.291,17.999
	c0.708,1.834,0.726,17.112-10.332,4.836c-0.019,0.703-16.589-16.292-15.351-17.673c-0.039,1.399,2.058-12.162,1.838-18.49
	c0.015-0.537-3.627-22.061,3.104-23.988C73.579,70,126.718,53.477,124.995,72.443z"/>
<path d="M91.573,180.678c-38.71,0-58.61-5.339-68.688-18.426c-9.936-12.902-9.936-33.359-9.936-61.672
	c0-7.462-0.557-14.449-1.095-21.206c-1.366-17.134-2.545-31.931,7.109-43.016c11.249-12.915,36.388-19.847,81.514-22.476
	c10.279-0.599,19.103-0.89,26.976-0.89c30.119,0,46.411,4.419,54.478,14.776c7.911,10.159,8.073,25.9,8.297,47.687
	c0.078,7.575,0.167,16.161,0.597,25.46c1.783,38.521-1.32,57.526-11.067,67.783c-10.934,11.505-29.812,11.593-61.09,11.737
	c-6.126,0.029-12.46,0.059-19.374,0.175C96.641,180.655,94.064,180.678,91.573,180.678z M127.453,13.992
	c-7.854,0-16.659,0.291-26.917,0.888C55.7,17.493,30.774,24.319,19.717,37.015c-9.378,10.768-8.214,25.371-6.867,42.279
	c0.54,6.776,1.099,13.784,1.099,21.286c0,59.404,0.013,80.478,85.328,79.031c6.919-0.116,13.257-0.146,19.385-0.175
	c31.012-0.144,49.729-0.23,60.369-11.426c9.537-10.035,12.563-28.834,10.795-67.049c-0.432-9.316-0.521-17.912-0.599-25.496
	C188.781,31.988,188.596,13.992,127.453,13.992z"/>
</svg>
