<?xml version="1.0" encoding="utf-8"?>
<!-- Generator: Adobe Illustrator 16.0.0, SVG Export Plug-In . SVG Version: 6.00 Build 0)  -->
<!DOCTYPE svg PUBLIC "-//W3C//DTD SVG 1.1//EN" "http://www.w3.org/Graphics/SVG/1.1/DTD/svg11.dtd">
<svg version="1.1" id="Layer_1" xmlns="http://www.w3.org/2000/svg" xmlns:xlink="http://www.w3.org/1999/xlink" x="0px" y="0px"
	 width="200px" height="200px" viewBox="0 0 200 200" enable-background="new 0 0 200 200" xml:space="preserve">
<path d="M193.902,44.723c-1.539,0.659-6.81-4.701-14.34-1.369c-7.527,3.33-59.606,3.297-67.071,4.616
	c-7.466,1.319-54.34,15.962-80.764,24.958c0,0-20.028,23.09-19.006,46.184c-4.09,2.379-6.712,4.532-7.027,6.253
	c0.524,1.674,2.064,12.038,14.146,13.166c7.832,10.007,23.004,18.529,49.86,23.131c13.489-0.66,53.395-15.136,66.946-31.623
	c13.553-16.489,55.844-76.083,55.844-76.083S195.441,44.062,193.902,44.723z M28.409,111.583c-1.048-0.55-2.18-1.393-2.907-2.662
	c-1.036-1.81-1.04-4.12-0.011-6.866c3.308-8.823,45.037-16.434,48.109-16.982l11.273,6.357c-0.074,0.021-0.145,0.031-0.22,0.055
	C84.654,91.485,51.744,101.728,28.409,111.583z M36.244,142.854c-1.444-1.359-1.553-3.957-2.093-3.662
	c-0.413,0.226-1.42-0.489-3.134-3.189c1.807-0.577,3.703-1.199,5.64-1.849c-0.729,0.829-1.177,1.598-1.277,2.284
	c0.233,0.936,0.766,5.062,3.431,8.058C37.788,144.719,37.917,144.431,36.244,142.854z M39.812,145.473
	c0.31,0.261,0.641,0.507,0.997,0.732C40.005,146.443,39.865,145.99,39.812,145.473z M43.877,147.454
	c0.485,0.107,0.999,0.185,1.542,0.229c-0.254,0.057-0.483,0.182-0.67,0.406C44.526,148.355,44.231,147.981,43.877,147.454z
	 M111.604,113.677c2.123,1.707-0.44,2.656,0.767,3.661c0.135,0.114-1.279,3.352-0.11,5.889c0.838,1.817-3.387,3.523-2.484,5.758
	c0.625,1.551-2.594,3.5-2.094,4.971c1.067,3.162-3.986,5.414-4.449,6.545c-0.744,1.822-3.458,2.527-4.447,4.712
	c-1.088,2.399-3.14,2.224-5.233,2.877c-2,0.625-2.195-0.34-3.009,1.31c-0.663,1.338-4.963,0.256-5.496,1.308
	c-1.023,2.026-3.722-0.327-3.925,0c-1.495,2.421-3.975,1.405-4.188,1.44c0,0.186-3.679-0.918-3.925,0.262
	c-0.084,0.4-3.364,0.441-4.317,0.533c-1.945,0.187-4.252,0.371-6.411-0.707c-0.415,1.451-0.512,0.38-3.794-0.609
	c-2.679-0.809-2.176,1.828-4.187-0.133c0-0.231-3.271,0.126-4.448-1.178c-0.954-1.058-2.393-2.278-3.582-2.591
	c0.075,0.001,0.146,0.007,0.222,0.007c7.333-2.258,26.862-11.293,26.862-11.293l24.104-13.553c0,0.001-0.774-7.68-3.153-12.243
	l2.671-1.2c0,0-0.964-7.623-3.836-13.021c0,0-4.577-5.276-6.679-5.243l-12.682-7.153l-0.176,0.03
	c-1.853,0.322-45.433,8.001-49.049,17.647c-1.139,3.039-1.112,5.634,0.08,7.715c0.682,1.189,1.651,2.044,2.62,2.657
	c-2.436,1.042-4.747,2.076-6.902,3.093c-0.116-0.438-0.273-0.78-0.463-0.965c-1.612-1.575,0.616-3.076,0.616-3.076
	c-4.235-7.183,2.604-6.676,1.256-7.653c-3.431-2.483,1.251-1.83,1.251-1.83c-2.224-1.439-1.037-3.479,0.148-4.318
	c0.445,0,0.168-3.336,3.011-4.842c0,0-0.872-5.025,2.355-6.278c1.766-0.687,1.809-4.464,4.574-3.769
	c0.215,0.244,1.173-1.623,2.431-4.222c1.472-3.042,5.258-2.315,8.93-1.277c0.222,0.252,4.432-3.445,5.985-1.374
	c2.355,3.141,5.398-3.826,8.243-0.981c2.061-3.63,6.704-0.179,7.458,0c2.061,0.491,5.454-2.658,7.457-0.393
	c0.358,0.406,4.023-2.439,6.574,0.393c1.704,1.89,4.121-2.832,5.171,0.265c1.012,2.984,6.893-0.054,6.893,2.196
	c0.89-0.503,14.249,3.697,10.598,6.934c0,0.899,7.96,3.319,6.02,7.851c0.56,0.041,3.5,4.304,2.484,6.934
	c-1.105,2.866,3.069,5.181,0.524,6.542c-1.101,0.588,1.801,4.311,0.61,5.104C112.375,110.203,109.746,112.179,111.604,113.677z"/>
</svg>
