<?xml version="1.0" encoding="utf-8"?>
<!-- Generator: Adobe Illustrator 16.0.0, SVG Export Plug-In . SVG Version: 6.00 Build 0)  -->
<!DOCTYPE svg PUBLIC "-//W3C//DTD SVG 1.1//EN" "http://www.w3.org/Graphics/SVG/1.1/DTD/svg11.dtd">
<svg version="1.1" id="Layer_1" xmlns="http://www.w3.org/2000/svg" xmlns:xlink="http://www.w3.org/1999/xlink" x="0px" y="0px"
	 width="200px" height="200px" viewBox="0 0 200 200" enable-background="new 0 0 200 200" xml:space="preserve">
<path d="M112.491,47.97c7.465-1.319,59.544-1.286,67.072-4.616c7.53-3.332,12.801,2.028,14.34,1.369
	c1.539-0.661-1.413,9.232-1.413,9.232s-42.291,59.594-55.843,76.083c-13.552,16.488-53.458,30.963-66.947,31.623
	c-100.076-17.148-37.973-88.733-37.973-88.733C58.151,63.932,105.025,49.289,112.491,47.97z M23.16,97.324
	c-1.185,0.839-2.372,2.879-0.148,4.319c0,0-4.682-0.654-1.251,1.83c1.348,0.977-5.491,0.471-1.256,7.653
	c0,0-2.228,1.501-0.616,3.076c0.501,0.49,0.782,2.071,0.655,3.663c0,0-1.047,3.794,1.832,4.055c1.372,0.126,1.396,3.009,1.701,3.926
	c0.878,2.65,2.863,4.854,2.863,4.854c1.275,3.091,3.495,6.097,3.94,5.091c1.801,2.888,2.847,3.632,3.271,3.401
	c0.54-0.295,0.649,2.302,2.093,3.661c1.832,1.728,1.486,1.916,2.879,1.571c1.392-0.344-0.278,2.797,2.224,1.569
	c1.536-1.623,2.763,2.862,3.402,2.096c1.121-1.347,3.665,0.631,5.103,2.225c1.177,1.304,4.448,0.947,4.448,1.178
	c2.011,1.961,1.508-0.676,4.187,0.133c3.282,0.989,3.379,2.061,3.794,0.609c2.159,1.079,4.466,0.894,6.411,0.708
	c0.953-0.092,4.233-0.134,4.317-0.534c0.246-1.18,3.925-0.076,3.925-0.262c0.213-0.035,2.693,0.981,4.188-1.44
	c0.203-0.327,2.902,2.027,3.925,0c0.533-1.051,4.833,0.03,5.496-1.308c0.814-1.649,1.009-0.684,3.009-1.309
	c2.093-0.654,4.145-0.477,5.233-2.877c0.99-2.184,3.703-2.89,4.448-4.712c0.462-1.131,5.516-3.383,4.448-6.545
	c-0.499-1.471,2.72-3.42,2.094-4.971c-0.902-2.234,3.322-3.94,2.485-5.757c-1.169-2.538,0.245-5.775,0.11-5.889
	c-1.207-1.005,1.357-1.954-0.766-3.661c-1.858-1.498,0.771-3.474,0.875-3.271c1.19-0.793-1.711-4.515-0.611-5.103
	c2.545-1.361-1.63-3.676-0.524-6.542c1.016-2.63-1.925-6.893-2.485-6.934c1.941-4.532-6.019-6.952-6.019-7.851
	c3.651-3.237-9.708-7.437-10.598-6.934c0-2.25-5.881,0.788-6.893-2.196c-1.05-3.097-3.467,1.625-5.171-0.265
	c-2.551-2.832-6.216,0.013-6.574-0.393c-2.003-2.265-5.396,0.884-7.457,0.393c-0.754-0.179-5.397-3.63-7.458,0
	c-2.845-2.845-5.888,4.122-8.243,0.981c-1.553-2.071-5.763,1.626-5.985,1.374c-3.672-1.038-7.458-1.765-8.93,1.277
	c-1.258,2.599-2.216,4.466-2.431,4.222c-2.765-0.695-2.808,3.082-4.574,3.769c-3.227,1.253-2.355,6.278-2.355,6.278
	C23.328,93.988,23.605,97.324,23.16,97.324z"/>
<path d="M89.078,107.605c0,0-52.47,20.433-53.699,28.833c0.376,1.506,1.522,11.293,11.113,11.293
	c7.333-2.258,26.862-11.293,26.862-11.293l24.104-13.553C97.458,122.886,95.652,104.958,89.078,107.605z"/>
<path d="M30.924,113.521l-0.11-0.02c-0.174-0.03-4.287-0.779-6.18-4.084c-1.192-2.081-1.219-4.676-0.08-7.715
	c3.616-9.646,47.196-17.325,49.049-17.647l0.176-0.03L94.9,95.937L30.924,113.521z M73.6,85.072
	c-3.072,0.549-44.801,8.16-48.109,16.983c-1.029,2.746-1.025,5.057,0.011,6.866c1.506,2.631,4.757,3.441,5.379,3.575l61.414-16.881
	L73.6,85.072z"/>
<path d="M84.654,91.485c0,0-77.152,24.011-78.96,33.879c0.554,1.771,2.238,13.272,16.342,13.272
	c10.782-2.654,39.497-13.272,39.497-13.272l35.443-15.923C96.977,109.441,94.32,88.376,84.654,91.485z"/>
</svg>
